<svg width="69" height="45" viewBox="0 0 69 45" fill="none" xmlns="http://www.w3.org/2000/svg">
<rect width="69" height="45" rx="5" fill="#FFD8CF"/>
<path d="M23.9301 19.7354C23.9301 20.3437 23.9958 20.8369 24.1109 21.1986C24.2424 21.5603 24.4068 21.9548 24.637 22.3823C24.7192 22.5138 24.7521 22.6453 24.7521 22.7604C24.7521 22.9248 24.6534 23.0892 24.4397 23.2536L23.404 23.9441C23.256 24.0427 23.108 24.0921 22.9765 24.0921C22.8121 24.0921 22.6477 24.0099 22.4833 23.8619C22.2532 23.6153 22.0559 23.3523 21.8915 23.0892C21.7271 22.8097 21.5627 22.4974 21.3818 22.1192C20.0995 23.6317 18.4884 24.388 16.5484 24.388C15.1675 24.388 14.066 23.9934 13.2604 23.2043C12.4548 22.4152 12.0438 21.363 12.0438 20.0478C12.0438 18.6504 12.537 17.516 13.5399 16.6611C14.5427 15.8062 15.8744 15.3788 17.5677 15.3788C18.1267 15.3788 18.7021 15.4281 19.3104 15.5103C19.9187 15.5925 20.5434 15.724 21.201 15.872V14.6719C21.201 13.4224 20.9379 12.5511 20.4283 12.0414C19.9022 11.5318 19.0144 11.2852 17.7486 11.2852C17.1731 11.2852 16.5813 11.3509 15.973 11.4989C15.3647 11.6469 14.7729 11.8277 14.1975 12.0579C13.9344 12.1729 13.7372 12.2387 13.6221 12.2716C13.507 12.3045 13.4248 12.3209 13.359 12.3209C13.1289 12.3209 13.0138 12.1565 13.0138 11.8113V11.0057C13.0138 10.7427 13.0467 10.5454 13.1289 10.4303C13.2111 10.3152 13.359 10.2001 13.5892 10.085C14.1646 9.78913 14.8551 9.54252 15.6607 9.34524C16.4662 9.13152 17.3211 9.03288 18.2253 9.03288C20.1817 9.03288 21.612 9.47676 22.5326 10.3645C23.4368 11.2523 23.8972 12.6004 23.8972 14.4088V19.7354H23.9301ZM17.2553 22.2343C17.7979 22.2343 18.3568 22.1357 18.9487 21.9384C19.5405 21.7411 20.0666 21.3794 20.5105 20.8862C20.7735 20.5739 20.9708 20.2286 21.0695 19.8341C21.1681 19.4395 21.2339 18.9627 21.2339 18.4038V17.7133C20.7571 17.5982 20.2475 17.4996 19.7214 17.4338C19.1953 17.368 18.6856 17.3352 18.176 17.3352C17.0745 17.3352 16.2689 17.5489 15.7264 17.9928C15.1839 18.4366 14.9208 19.0614 14.9208 19.8834C14.9208 20.6561 15.1181 21.2315 15.5291 21.626C15.9237 22.037 16.4991 22.2343 17.2553 22.2343V22.2343ZM30.4568 24.0099C30.1609 24.0099 29.9636 23.9605 29.8321 23.8455C29.7005 23.7468 29.5855 23.5167 29.4868 23.2043L25.6234 10.4961C25.5247 10.1673 25.4754 9.95353 25.4754 9.83845C25.4754 9.57541 25.6069 9.42744 25.87 9.42744H27.4811C27.7935 9.42744 28.0072 9.47676 28.1223 9.59185C28.2538 9.69049 28.3524 9.92065 28.4511 10.233L31.213 21.1164L33.7777 10.233C33.8599 9.90421 33.9585 9.69049 34.0901 9.59185C34.2216 9.4932 34.4517 9.42744 34.7477 9.42744H36.0629C36.3752 9.42744 36.589 9.47676 36.7205 9.59185C36.852 9.69049 36.9671 9.92065 37.0328 10.233L39.6304 21.2479L42.4745 10.233C42.5732 9.90421 42.6883 9.69049 42.8033 9.59185C42.9349 9.4932 43.1486 9.42744 43.4445 9.42744H44.9734C45.2365 9.42744 45.3844 9.55897 45.3844 9.83845C45.3844 9.92065 45.368 10.0028 45.3516 10.1015C45.3351 10.2001 45.3022 10.3317 45.2365 10.5125L41.2744 23.2207C41.1758 23.5495 41.0607 23.7633 40.9292 23.8619C40.7976 23.9605 40.5839 24.0263 40.3044 24.0263H38.8906C38.5782 24.0263 38.3645 23.977 38.233 23.8619C38.1015 23.7468 37.9864 23.5331 37.9206 23.2043L35.3724 12.6004L32.8406 23.1879C32.7584 23.5167 32.6598 23.7304 32.5282 23.8455C32.3967 23.9605 32.1666 24.0099 31.8706 24.0099H30.4568ZM51.5824 24.4537C50.7275 24.4537 49.8726 24.3551 49.0506 24.1578C48.2286 23.9605 47.5874 23.7468 47.16 23.5002C46.8969 23.3523 46.7161 23.1878 46.6503 23.0399C46.5846 22.8919 46.5517 22.7275 46.5517 22.5796V21.7411C46.5517 21.3959 46.6832 21.2315 46.9298 21.2315C47.0285 21.2315 47.1271 21.2479 47.2257 21.2808C47.3244 21.3137 47.4723 21.3794 47.6367 21.4452C48.1957 21.6918 48.804 21.8891 49.4452 22.0206C50.1028 22.1521 50.7439 22.2179 51.4015 22.2179C52.4373 22.2179 53.2428 22.037 53.8018 21.6754C54.3608 21.3137 54.6567 20.7876 54.6567 20.1135C54.6567 19.6532 54.5087 19.2751 54.2128 18.9627C53.9169 18.6504 53.3579 18.3709 52.5523 18.1078L50.1685 17.368C48.9684 16.9899 48.0806 16.4309 47.5381 15.6911C46.9956 14.9678 46.7161 14.1622 46.7161 13.3073C46.7161 12.6168 46.8641 12.0085 47.16 11.4825C47.4559 10.9564 47.8505 10.4961 48.3437 10.1344C48.8369 9.75625 49.3958 9.47676 50.0534 9.27948C50.711 9.0822 51.4015 9 52.1249 9C52.4866 9 52.8647 9.01644 53.2264 9.06576C53.6045 9.11508 53.9498 9.18084 54.295 9.2466C54.6238 9.3288 54.9362 9.411 55.2321 9.50964C55.528 9.60829 55.7582 9.70693 55.9226 9.80557C56.1527 9.93709 56.3171 10.0686 56.4158 10.2166C56.5144 10.3481 56.5637 10.5289 56.5637 10.7591V11.5318C56.5637 11.877 56.4322 12.0579 56.1856 12.0579C56.0541 12.0579 55.8404 11.9921 55.5609 11.8606C54.6238 11.4331 53.5716 11.2194 52.4044 11.2194C51.4673 11.2194 50.7275 11.3674 50.2178 11.6797C49.7082 11.9921 49.4452 12.4689 49.4452 13.1429C49.4452 13.6032 49.6096 13.9978 49.9384 14.3102C50.2672 14.6225 50.8755 14.9349 51.7468 15.2144L54.0813 15.9542C55.265 16.3323 56.1199 16.8584 56.6295 17.5324C57.1391 18.2065 57.3857 18.9792 57.3857 19.8341C57.3857 20.541 57.2378 21.1822 56.9583 21.7411C56.6624 22.3001 56.2678 22.7933 55.7582 23.1879C55.2485 23.5989 54.6402 23.8948 53.9333 24.1085C53.1935 24.3387 52.4208 24.4537 51.5824 24.4537V24.4537Z" fill="#252F3E"/>
<path fill-rule="evenodd" clip-rule="evenodd" d="M54.6896 32.4436C49.2808 36.4386 41.4224 38.5593 34.6655 38.5593C25.196 38.5593 16.6635 35.0576 10.219 29.2378C9.70934 28.7774 10.1697 28.1527 10.778 28.5144C17.7486 32.5587 26.3468 35.0083 35.2409 35.0083C41.2416 35.0083 47.8341 33.7588 53.9005 31.1941C54.8047 30.7831 55.5774 31.786 54.6896 32.4436V32.4436Z" fill="#FF9900"/>
<path fill-rule="evenodd" clip-rule="evenodd" d="M56.9418 29.879C56.2514 28.9912 52.3715 29.4515 50.6124 29.6652C50.0863 29.731 50.0041 29.2707 50.4809 28.9254C53.5716 26.7553 58.6516 27.3801 59.2435 28.1034C59.8353 28.8432 59.0791 33.9233 56.1856 36.3564C55.7417 36.7345 55.3143 36.5372 55.5115 36.044C56.1692 34.4165 57.6323 30.7503 56.9418 29.879V29.879Z" fill="#FF9900"/>
</svg>
