<svg width="156" height="45" viewBox="0 0 156 45" fill="none" xmlns="http://www.w3.org/2000/svg">
<rect width="156" height="45" rx="5" fill="#CDDEFF"/>
<path d="M43.0973 31V13.5455H49.4893C50.728 13.5455 51.7536 13.75 52.5661 14.1591C53.3786 14.5625 53.9865 15.1108 54.3899 15.804C54.7933 16.4915 54.995 17.267 54.995 18.1307C54.995 18.858 54.8615 19.4716 54.5945 19.9716C54.3274 20.4659 53.9695 20.8636 53.5206 21.1648C53.0774 21.4602 52.5888 21.6761 52.0547 21.8125V21.983C52.6342 22.0114 53.1996 22.1989 53.7507 22.5455C54.3075 22.8864 54.7678 23.3722 55.1314 24.0028C55.495 24.6335 55.6768 25.4006 55.6768 26.304C55.6768 27.196 55.4666 27.9972 55.0462 28.7074C54.6314 29.4119 53.9893 29.9716 53.12 30.3864C52.2507 30.7955 51.1399 31 49.7876 31H43.0973ZM45.7308 28.7415H49.532C50.7933 28.7415 51.6967 28.4972 52.2422 28.0085C52.7876 27.5199 53.0604 26.9091 53.0604 26.1761C53.0604 25.625 52.9212 25.1193 52.6428 24.6591C52.3643 24.1989 51.9666 23.8324 51.4496 23.5597C50.9382 23.2869 50.3303 23.1506 49.6257 23.1506H45.7308V28.7415ZM45.7308 21.0966H49.2592C49.8501 21.0966 50.3814 20.983 50.853 20.7557C51.3303 20.5284 51.7081 20.2102 51.9865 19.8011C52.2706 19.3864 52.4126 18.8977 52.4126 18.3352C52.4126 17.6136 52.1598 17.0085 51.6541 16.5199C51.1484 16.0312 50.3729 15.7869 49.3274 15.7869H45.7308V21.0966ZM58.5959 31V17.9091H61.1442V31H58.5959ZM59.8828 15.8892C59.4396 15.8892 59.0589 15.7415 58.7408 15.446C58.4283 15.1449 58.272 14.7869 58.272 14.3722C58.272 13.9517 58.4283 13.5937 58.7408 13.2983C59.0589 12.9972 59.4396 12.8466 59.8828 12.8466C60.326 12.8466 60.7038 12.9972 61.0163 13.2983C61.3345 13.5937 61.4936 13.9517 61.4936 14.3722C61.4936 14.7869 61.3345 15.1449 61.0163 15.446C60.7038 15.7415 60.326 15.8892 59.8828 15.8892ZM70.6832 17.9091V19.9545H63.5327V17.9091H70.6832ZM65.4503 14.7727H67.9986V27.1562C67.9986 27.6506 68.0724 28.0227 68.2202 28.2727C68.3679 28.517 68.5582 28.6847 68.7912 28.7756C69.0298 28.8608 69.2884 28.9034 69.5668 28.9034C69.7713 28.9034 69.9503 28.8892 70.1037 28.8608C70.2571 28.8324 70.3764 28.8097 70.4616 28.7926L70.9219 30.8977C70.7741 30.9545 70.5639 31.0114 70.2912 31.0682C70.0185 31.1307 69.6776 31.1648 69.2685 31.1705C68.598 31.1818 67.973 31.0625 67.3935 30.8125C66.8139 30.5625 66.3452 30.1761 65.9872 29.6534C65.6293 29.1307 65.4503 28.4744 65.4503 27.6847V14.7727ZM73.9879 31V13.5455H76.5362V20.0312H76.6896C76.8374 19.7585 77.0504 19.4432 77.3288 19.0852C77.6072 18.7273 77.9936 18.4148 78.4879 18.1477C78.9822 17.875 79.6357 17.7386 80.4482 17.7386C81.505 17.7386 82.4482 18.0057 83.2777 18.5398C84.1072 19.0739 84.7578 19.8437 85.2294 20.8494C85.7067 21.8551 85.9453 23.0653 85.9453 24.4801C85.9453 25.8949 85.7095 27.108 85.2379 28.1193C84.7663 29.125 84.1186 29.9006 83.2947 30.446C82.4709 30.9858 81.5305 31.2557 80.4737 31.2557C79.6783 31.2557 79.0277 31.1222 78.522 30.8551C78.022 30.5881 77.63 30.2756 77.3459 29.9176C77.0618 29.5597 76.843 29.2415 76.6896 28.9631H76.4766V31H73.9879ZM76.4851 24.4545C76.4851 25.375 76.6186 26.1818 76.8857 26.875C77.1527 27.5682 77.5391 28.1108 78.0447 28.5028C78.5504 28.8892 79.1697 29.0824 79.9027 29.0824C80.6641 29.0824 81.3004 28.8807 81.8118 28.4773C82.3232 28.0682 82.7095 27.5142 82.9709 26.8153C83.2379 26.1165 83.3714 25.3295 83.3714 24.4545C83.3714 23.5909 83.2408 22.8153 82.9794 22.1278C82.7237 21.4403 82.3374 20.8977 81.8203 20.5C81.3089 20.1023 80.6697 19.9034 79.9027 19.9034C79.1641 19.9034 78.5391 20.0937 78.0277 20.4744C77.522 20.8551 77.1385 21.3864 76.8771 22.0682C76.6158 22.75 76.4851 23.5455 76.4851 24.4545ZM97.0994 25.571V17.9091H99.6562V31H97.1506V28.733H97.0142C96.7131 29.4318 96.2301 30.0142 95.5653 30.4801C94.9063 30.9403 94.0852 31.1705 93.1023 31.1705C92.2614 31.1705 91.517 30.9858 90.8693 30.6165C90.2273 30.2415 89.7216 29.6875 89.3523 28.9545C88.9886 28.2216 88.8068 27.3153 88.8068 26.2358V17.9091H91.3551V25.929C91.3551 26.821 91.6023 27.5312 92.0966 28.0597C92.5909 28.5881 93.233 28.8523 94.0227 28.8523C94.5 28.8523 94.9744 28.733 95.446 28.4943C95.9233 28.2557 96.3182 27.8949 96.6307 27.4119C96.9489 26.929 97.1051 26.3153 97.0994 25.571ZM108.594 31.2642C107.327 31.2642 106.237 30.9773 105.322 30.4034C104.413 29.8239 103.714 29.0256 103.225 28.0085C102.737 26.9915 102.492 25.8267 102.492 24.5142C102.492 23.1847 102.742 22.0114 103.242 20.9943C103.742 19.9716 104.447 19.1733 105.356 18.5994C106.265 18.0256 107.336 17.7386 108.569 17.7386C109.563 17.7386 110.45 17.9233 111.228 18.2926C112.006 18.6562 112.634 19.1676 113.112 19.8267C113.594 20.4858 113.881 21.2557 113.972 22.1364H111.492C111.356 21.5227 111.043 20.9943 110.555 20.5511C110.072 20.108 109.424 19.8864 108.612 19.8864C107.901 19.8864 107.279 20.0739 106.745 20.4489C106.217 20.8182 105.805 21.3466 105.509 22.0341C105.214 22.7159 105.066 23.5227 105.066 24.4545C105.066 25.4091 105.211 26.233 105.501 26.9261C105.79 27.6193 106.2 28.1562 106.728 28.5369C107.262 28.9176 107.89 29.108 108.612 29.108C109.094 29.108 109.532 29.0199 109.924 28.8438C110.322 28.6619 110.654 28.4034 110.921 28.0682C111.194 27.733 111.384 27.3295 111.492 26.858H113.972C113.881 27.7045 113.606 28.4602 113.146 29.125C112.685 29.7898 112.069 30.3125 111.296 30.6932C110.529 31.0739 109.629 31.2642 108.594 31.2642ZM119.041 26.5597L119.024 23.4489H119.467L124.683 17.9091H127.734L121.786 24.2159H121.385L119.041 26.5597ZM116.697 31V13.5455H119.246V31H116.697ZM124.964 31L120.277 24.7784L122.033 22.9972L128.092 31H124.964ZM135.16 31.2642C133.87 31.2642 132.759 30.9886 131.827 30.4375C130.901 29.8807 130.185 29.0994 129.68 28.0938C129.18 27.0824 128.93 25.8977 128.93 24.5398C128.93 23.1989 129.18 22.017 129.68 20.9943C130.185 19.9716 130.89 19.1733 131.793 18.5994C132.702 18.0256 133.765 17.7386 134.981 17.7386C135.719 17.7386 136.435 17.8608 137.129 18.1051C137.822 18.3494 138.444 18.733 138.995 19.2557C139.546 19.7784 139.981 20.4574 140.299 21.2926C140.617 22.1222 140.776 23.1307 140.776 24.3182V25.2216H130.37V23.3125H138.279C138.279 22.642 138.143 22.0483 137.87 21.5312C137.597 21.0085 137.214 20.5966 136.719 20.2955C136.231 19.9943 135.657 19.8438 134.998 19.8438C134.282 19.8438 133.657 20.0199 133.123 20.3722C132.594 20.7187 132.185 21.1733 131.896 21.7358C131.612 22.2926 131.469 22.8977 131.469 23.5511V25.0426C131.469 25.9176 131.623 26.6619 131.93 27.2756C132.242 27.8892 132.677 28.358 133.234 28.6818C133.79 29 134.441 29.1591 135.185 29.1591C135.668 29.1591 136.109 29.0909 136.506 28.9545C136.904 28.8125 137.248 28.6023 137.538 28.3239C137.827 28.0455 138.049 27.7017 138.202 27.2926L140.614 27.7273C140.421 28.4375 140.075 29.0597 139.575 29.5938C139.08 30.1222 138.458 30.5341 137.708 30.8295C136.964 31.1193 136.114 31.2642 135.16 31.2642ZM149.714 17.9091V19.9545H142.564V17.9091H149.714ZM144.482 14.7727H147.03V27.1562C147.03 27.6506 147.104 28.0227 147.251 28.2727C147.399 28.517 147.589 28.6847 147.822 28.7756C148.061 28.8608 148.32 28.9034 148.598 28.9034C148.803 28.9034 148.982 28.8892 149.135 28.8608C149.288 28.8324 149.408 28.8097 149.493 28.7926L149.953 30.8977C149.805 30.9545 149.595 31.0114 149.322 31.0682C149.05 31.1307 148.709 31.1648 148.3 31.1705C147.629 31.1818 147.004 31.0625 146.425 30.8125C145.845 30.5625 145.376 30.1761 145.018 29.6534C144.661 29.1307 144.482 28.4744 144.482 27.6847V14.7727Z" fill="#293C5C"/>
<path d="M7.87624 11.0001C7.74997 10.9985 7.62489 11.0242 7.50976 11.0755C7.39462 11.1267 7.29224 11.2023 7.2098 11.2968C7.12736 11.3914 7.06686 11.5026 7.03255 11.6228C6.99824 11.7429 6.99094 11.869 7.01118 11.9922L10.6835 34.0293C10.7292 34.299 10.8696 34.5441 11.0801 34.7216C11.2905 34.8991 11.5574 34.9977 11.834 34.9999H29.4515C29.6588 35.0025 29.8602 34.9314 30.019 34.7996C30.1777 34.6678 30.2833 34.4839 30.3164 34.2816L33.9888 11.9965C34.0091 11.8733 34.0017 11.7472 33.9674 11.6271C33.9331 11.507 33.8725 11.3957 33.7901 11.3012C33.7077 11.2067 33.6053 11.1311 33.4901 11.0799C33.375 11.0286 33.2499 11.0029 33.1237 11.0046L7.87624 11.0001ZM23.3396 26.9272H17.7165L16.194 19.0641H24.7021L23.3396 26.9272Z" fill="#2684FF"/>
</svg>
