<svg width="13" height="12" viewBox="0 0 13 12" fill="none" xmlns="http://www.w3.org/2000/svg">
<path d="M5.03054 10.8155C3.50146 8.85054 -0.846893 4.3985 1.87804 1.60577C3.44875 -0.00402994 5.05181 1.95936 5.85551 3.26653C6.22089 3.8608 6.51556 4.46853 6.82041 5.09338C6.92504 5.30785 7.04722 5.94196 7.15186 5.72749C7.31138 5.40052 7.23409 4.75384 7.35073 4.36868C7.51207 3.83588 7.75992 3.36418 8.1094 2.93438C8.73813 2.16112 10.2424 0.785555 11.3282 1.65106C12.7276 2.76652 11.6158 5.95078 10.9157 7.22973C10.323 8.31264 9.54153 9.45339 8.68391 10.3323C8.58191 10.4369 7.89165 11.2857 8.15359 10.672C8.36874 10.168 8.61025 9.55548 8.61025 8.99618C8.61025 8.44927 8.14141 9.97913 7.88842 10.4607C7.38879 11.4117 8.8473 10.8155 9.40575 10.8155" stroke="#BAA7A7" stroke-linecap="round"/>
</svg>
