<svg width="145" height="45" viewBox="0 0 145 45" fill="none" xmlns="http://www.w3.org/2000/svg">
<rect x="0.401306" width="143.718" height="44.8681" rx="5" fill="#FFCDF1" fill-opacity="0.7"/>
<path fill-rule="evenodd" clip-rule="evenodd" d="M18.9339 10.3916C17.4754 10.6317 15.6862 11.3852 14.2531 12.3627C13.4418 12.9161 11.8112 14.6202 11.2817 15.4682C8.95279 19.1976 8.63598 23.5637 10.4111 27.4676C13.5957 34.4716 22.1753 36.52 27.9838 31.6628C30.5259 29.5371 32.0577 26.4312 32.2542 23.0043C32.5794 17.328 29.1061 12.276 23.7768 10.6739C22.9566 10.4273 22.4576 10.3604 21.1818 10.3252C20.313 10.3013 19.3015 10.3311 18.9339 10.3916ZM21.6895 21.0443V26.0406C21.6895 26.5858 21.2962 27.0514 20.7587 27.1425V27.1425C20.2468 27.2293 19.2694 27.3006 18.5868 27.3011C16.4018 27.3027 15.0353 26.6429 14.3933 25.2762C14.1228 24.7008 14.0678 24.42 14.035 23.4508C14.0068 22.6148 14.0464 22.1482 14.1814 21.7233C14.7663 19.8832 16.1544 18.9407 18.2765 18.943V18.943C18.8527 18.9436 19.3201 18.4766 19.3201 17.9004V17.024V16.2885C19.3201 15.6342 19.8505 15.1038 20.5048 15.1038V15.1038V15.1038C21.1591 15.1038 21.6895 15.6342 21.6895 16.2885V21.0443ZM25.6384 16.4009V16.4569C25.6384 17.1423 25.0827 17.698 24.3973 17.698V17.698V17.698C23.7119 17.698 23.1562 17.1424 23.1562 16.4569V16.4009V16.3449C23.1562 15.6595 23.7119 15.1038 24.3973 15.1038V15.1038V15.1038C25.0827 15.1038 25.6384 15.6595 25.6384 16.3449V16.4009ZM25.6066 23.2106C25.5739 25.7048 25.5027 27.5062 25.4247 27.8142C25.1113 29.053 24.3821 30.0779 23.4673 30.5656V30.5656C23.1951 30.7108 22.8695 30.7155 22.5932 30.5781L21.9384 30.2527L21.1887 29.8801C21.0431 29.8078 21.0391 29.6015 21.1818 29.5235V29.5235C22.2019 28.9659 22.8121 28.1461 23.0322 27.0372C23.1068 26.6613 23.1562 24.9579 23.1562 22.7627V20.365C23.1562 19.6736 23.7168 19.113 24.4082 19.113V19.113V19.113C25.0971 19.113 25.6529 19.6762 25.6439 20.3649L25.6066 23.2106ZM17.7147 21.017C16.4066 21.399 15.9444 23.7031 16.9624 24.767C17.3486 25.1707 18.2235 25.4176 18.8656 25.3043V25.3043C19.1285 25.2578 19.3201 25.0293 19.3201 24.7623V23.1777C19.3201 22.0523 19.2735 21.1015 19.2167 21.0647C19.003 20.9267 18.1201 20.8986 17.7147 21.017Z" fill="#E935B6"/>
<path d="M46.6156 31.0765H42.8283L42.8522 28.2628H46.6156C47.5554 28.2628 48.3479 28.0504 48.9931 27.6256C49.6382 27.1927 50.124 26.5634 50.4506 25.7378C50.7851 24.9121 50.9524 23.9142 50.9524 22.7438V21.8901C50.9524 20.9923 50.8568 20.2027 50.6657 19.5214C50.4825 18.84 50.2077 18.2669 49.8413 17.8019C49.4749 17.337 49.0249 16.9883 48.4913 16.7558C47.9576 16.5154 47.3443 16.3951 46.6514 16.3951H42.7567V13.5695H46.6514C47.8143 13.5695 48.8776 13.7699 49.8413 14.1707C50.813 14.5634 51.6533 15.1286 52.3621 15.8661C53.071 16.6035 53.6166 17.4853 53.9989 18.5113C54.3892 19.5294 54.5843 20.6636 54.5843 21.9142V22.7438C54.5843 23.9863 54.3892 25.1206 53.9989 26.1466C53.6166 27.1727 53.071 28.0544 52.3621 28.7919C51.6612 29.5214 50.821 30.0865 49.8413 30.4873C48.8696 30.8801 47.7944 31.0765 46.6156 31.0765ZM44.8593 13.5695V31.0765H41.2752V13.5695H44.8593Z" fill="#E935B6"/>
<path d="M64.2256 25.7017V13.5695H67.7978V25.7017C67.7978 26.8721 67.543 27.8781 67.0332 28.7198C66.5235 29.5534 65.8266 30.1947 64.9425 30.6436C64.0663 31.0925 63.0787 31.317 61.9796 31.317C60.8406 31.317 59.8331 31.1246 58.957 30.7398C58.0808 30.355 57.3919 29.7659 56.8901 28.9723C56.3883 28.1707 56.1374 27.1566 56.1374 25.9302H59.7335C59.7335 26.5715 59.8211 27.0805 59.9964 27.4572C60.1795 27.834 60.4384 28.1025 60.7729 28.2628C61.1074 28.4232 61.5097 28.5033 61.9796 28.5033C62.4336 28.5033 62.8278 28.3951 63.1623 28.1787C63.4969 27.9622 63.7557 27.6456 63.9389 27.2288C64.1301 26.8119 64.2256 26.3029 64.2256 25.7017Z" fill="#E935B6"/>
<path d="M77.6662 16.5634L72.9351 31.0765H69.124L75.5874 13.5695H78.0126L77.6662 16.5634ZM81.5968 31.0765L76.8538 16.5634L76.4714 13.5695H78.9206L85.4198 31.0765H81.5968ZM81.3817 24.5594V27.3851H72.1944V24.5594H81.3817Z" fill="#E935B6"/>
<path d="M101.19 13.5695V31.0765H97.6059L90.6168 19.341V31.0765H87.0327V13.5695H90.6168L97.6179 25.317V13.5695H101.19Z" fill="#E935B6"/>
<path d="M118.095 21.9262V28.864C117.824 29.1927 117.406 29.5494 116.841 29.9342C116.275 30.3109 115.547 30.6356 114.654 30.9081C113.762 31.1807 112.683 31.317 111.417 31.317C110.294 31.317 109.27 31.1326 108.346 30.7638C107.422 30.3871 106.626 29.838 105.957 29.1166C105.296 28.3951 104.786 27.5133 104.428 26.4713C104.069 25.4212 103.89 24.2228 103.89 22.8761V21.7819C103.89 20.4352 104.061 19.2368 104.404 18.1867C104.754 17.1366 105.252 16.2508 105.897 15.5294C106.542 14.8079 107.311 14.2588 108.203 13.8821C109.095 13.5053 110.087 13.317 111.178 13.317C112.691 13.317 113.934 13.5655 114.905 14.0624C115.877 14.5514 116.618 15.2328 117.128 16.1065C117.645 16.9723 117.964 17.9663 118.083 19.0885H114.607C114.519 18.4953 114.352 17.9783 114.105 17.5374C113.858 17.0965 113.504 16.7518 113.042 16.5033C112.588 16.2548 111.998 16.1306 111.273 16.1306C110.676 16.1306 110.142 16.2548 109.673 16.5033C109.211 16.7438 108.82 17.1005 108.502 17.5735C108.183 18.0464 107.94 18.6316 107.773 19.329C107.606 20.0264 107.522 20.836 107.522 21.7578V22.8761C107.522 23.7899 107.61 24.5995 107.785 25.3049C107.96 26.0023 108.219 26.5915 108.561 27.0725C108.912 27.5454 109.342 27.9021 109.852 28.1426C110.361 28.3831 110.955 28.5033 111.632 28.5033C112.197 28.5033 112.667 28.4552 113.042 28.359C113.424 28.2628 113.731 28.1466 113.962 28.0103C114.2 27.8661 114.384 27.7298 114.511 27.6015V24.4993H111.238V21.9262H118.095Z" fill="#E935B6"/>
<path d="M135.275 21.9142V22.7438C135.275 24.0745 135.096 25.2689 134.738 26.327C134.379 27.3851 133.873 28.2869 133.22 29.0324C132.567 29.7699 131.787 30.335 130.879 30.7278C129.979 31.1206 128.979 31.317 127.88 31.317C126.789 31.317 125.789 31.1206 124.881 30.7278C123.981 30.335 123.201 29.7699 122.54 29.0324C121.878 28.2869 121.365 27.3851 120.998 26.327C120.64 25.2689 120.461 24.0745 120.461 22.7438V21.9142C120.461 20.5755 120.64 19.3811 120.998 18.331C121.357 17.2729 121.863 16.3711 122.516 15.6256C123.177 14.8801 123.957 14.3109 124.857 13.9182C125.765 13.5254 126.765 13.329 127.856 13.329C128.955 13.329 129.955 13.5254 130.855 13.9182C131.763 14.3109 132.543 14.8801 133.196 15.6256C133.857 16.3711 134.367 17.2729 134.726 18.331C135.092 19.3811 135.275 20.5755 135.275 21.9142ZM131.655 22.7438V21.8901C131.655 20.9602 131.572 20.1426 131.404 19.4372C131.237 18.7318 130.99 18.1386 130.664 17.6576C130.337 17.1767 129.939 16.816 129.469 16.5755C128.999 16.327 128.461 16.2027 127.856 16.2027C127.251 16.2027 126.713 16.327 126.243 16.5755C125.781 16.816 125.387 17.1767 125.06 17.6576C124.742 18.1386 124.499 18.7318 124.332 19.4372C124.164 20.1426 124.081 20.9602 124.081 21.8901V22.7438C124.081 23.6657 124.164 24.4833 124.332 25.1967C124.499 25.9021 124.746 26.4993 125.072 26.9883C125.399 27.4693 125.797 27.834 126.267 28.0825C126.737 28.331 127.275 28.4552 127.88 28.4552C128.485 28.4552 129.023 28.331 129.493 28.0825C129.963 27.834 130.357 27.4693 130.676 26.9883C130.994 26.4993 131.237 25.9021 131.404 25.1967C131.572 24.4833 131.655 23.6657 131.655 22.7438Z" fill="#E935B6"/>
</svg>
