<svg width="142" height="45" viewBox="0 0 142 45" fill="none" xmlns="http://www.w3.org/2000/svg">
<rect width="142" height="45" rx="5" fill="#BEE2F5"/>
<path d="M67.3556 15.329C66.6937 15.3083 66.1559 15.8255 66.1352 16.4667V22.424C63.3014 20.1487 59.1436 20.6038 56.8683 23.4376C55.9374 24.6167 55.4203 26.0646 55.4203 27.5747C55.3582 31.2153 58.2542 34.2146 61.8948 34.2767C65.5354 34.3387 68.5347 31.4428 68.5968 27.8022V16.5495C68.5968 16.2185 68.4726 15.9082 68.2451 15.6807C67.9969 15.4531 67.6866 15.329 67.3556 15.329ZM65.8043 29.1674C65.3906 30.1603 64.6045 30.9463 63.6116 31.3807C62.5774 31.8151 61.419 31.8151 60.3847 31.3807C59.3918 30.967 58.6265 30.1603 58.2128 29.1881C57.7784 28.1745 57.7784 27.0162 58.2128 25.9819C58.6265 24.989 59.4125 24.203 60.3847 23.7893C61.419 23.3549 62.5774 23.3549 63.6116 23.7893C64.6045 24.2237 65.3906 25.0097 65.8043 26.0026C66.2386 26.9955 66.2386 28.1538 65.8043 29.1674V29.1674ZM81.1113 22.9205C78.5463 20.3555 74.3679 20.3555 71.803 22.9205C70.5619 24.1616 69.8792 25.8371 69.8792 27.5747C69.8172 31.2153 72.7131 34.2146 76.3537 34.2767C79.9943 34.3387 82.9937 31.4428 83.0557 27.8022V27.5747C83.0557 26.7059 82.8902 25.8578 82.5593 25.0511C82.2283 24.2443 81.7319 23.5204 81.1113 22.9205V22.9205ZM80.2632 29.1467C80.0564 29.6432 79.7461 30.0776 79.3737 30.4499C79.0014 30.8222 78.5463 31.1325 78.0706 31.3394C77.0363 31.7738 75.878 31.7738 74.8437 31.3394C73.8508 30.9257 73.0648 30.1189 72.6511 29.1467C72.2167 28.1332 72.2167 26.9748 72.6511 25.9405C73.0648 24.9476 73.8508 24.1823 74.8437 23.7479C75.878 23.3135 77.0363 23.3135 78.0706 23.7479C78.567 23.9548 79.0014 24.265 79.3737 24.6374C79.7461 25.0097 80.0564 25.4648 80.2632 25.9405C80.6976 26.9955 80.6976 28.1538 80.2632 29.1467ZM108.354 22.1965C108.354 22.031 108.312 21.8655 108.25 21.7208C108.188 21.576 108.085 21.4518 107.981 21.3277C107.878 21.2243 107.733 21.1209 107.588 21.0588C107.444 20.9968 107.278 20.9554 107.113 20.9554C106.885 20.9554 106.658 21.0175 106.451 21.1416L99.4177 25.713V16.5701C99.4177 16.2392 99.2936 15.9289 99.0661 15.7014C98.8385 15.4738 98.5282 15.329 98.1973 15.329C97.5147 15.329 96.9768 15.8668 96.9562 16.5495V32.9114C96.9562 33.2424 97.0803 33.5527 97.3078 33.7802C97.5353 34.0284 97.8456 34.1526 98.1766 34.1526C98.5076 34.1526 98.8178 34.0284 99.0454 33.7802C99.2729 33.5527 99.4177 33.2424 99.397 32.9114V28.671L100.824 27.7401L106.265 33.8423C106.492 34.0491 106.782 34.1732 107.092 34.1526C107.257 34.1526 107.423 34.1319 107.568 34.0491C107.712 33.9871 107.837 33.9043 107.961 33.7802C108.064 33.6561 108.168 33.532 108.23 33.3872C108.292 33.2424 108.333 33.0769 108.333 32.9114C108.333 32.6012 108.209 32.2909 108.002 32.0633L102.955 26.3749L107.878 23.1687C108.209 22.9619 108.374 22.5895 108.354 22.1965ZM87.9374 24.6374C88.3098 24.265 88.7648 23.9548 89.2613 23.7479C89.7784 23.5411 90.3162 23.4169 90.8747 23.4169C91.3712 23.4169 91.8469 23.4997 92.302 23.6652C92.7571 23.8513 93.1915 24.0995 93.5638 24.4305C93.7913 24.6167 94.0809 24.6994 94.3705 24.6994C94.7015 24.7201 95.0324 24.596 95.26 24.3478C95.4875 24.1202 95.6116 23.7893 95.6116 23.4583C95.6116 23.1067 95.4668 22.755 95.1772 22.5275C93.9982 21.4725 92.4675 20.8933 90.8747 20.9347C87.2341 20.9347 84.2761 23.8927 84.2761 27.5333C84.2761 31.1739 87.2134 34.1112 90.8333 34.1319C92.4261 34.1319 93.9568 33.5734 95.1565 32.5391C95.4048 32.3116 95.5496 31.9806 95.5496 31.629C95.5703 30.967 95.0531 30.4292 94.4119 30.4085H94.3291C94.0395 30.4085 93.7706 30.4913 93.5431 30.6568C93.1708 30.9877 92.7571 31.2359 92.302 31.4221C91.8469 31.5876 91.3505 31.6703 90.8747 31.6703C90.3162 31.6703 89.7784 31.5669 89.2613 31.3394C88.7648 31.1325 88.3304 30.8222 87.9374 30.4499C86.324 28.8365 86.324 26.2301 87.9167 24.6167C87.9374 24.658 87.9374 24.658 87.9374 24.6374V24.6374ZM132.783 21.8035C132.535 21.576 132.266 21.4105 131.956 21.307C131.604 21.1829 131.232 21.1002 130.859 21.0588C130.487 21.0175 130.115 20.9968 129.742 20.9968C128.998 20.9968 128.232 21.1209 127.529 21.3898C126.826 21.638 126.184 22.0103 125.605 22.4654V22.2172C125.584 21.5346 125.005 21.0175 124.323 21.0381C124.013 21.0485 123.719 21.176 123.5 21.3949C123.281 21.6138 123.154 21.9078 123.144 22.2172V32.9528C123.164 33.6354 123.743 34.1525 124.426 34.1319C124.736 34.1215 125.029 33.994 125.248 33.7751C125.467 33.5562 125.595 33.2622 125.605 32.9528V27.5953C125.605 27.0368 125.709 26.499 125.936 25.9819C126.143 25.4855 126.433 25.0511 126.826 24.6787C127.198 24.3064 127.653 23.9961 128.129 23.7893C128.646 23.5824 129.184 23.4583 129.742 23.4583C130.301 23.4583 130.839 23.5617 131.356 23.7479C131.521 23.8306 131.687 23.872 131.873 23.872C132.038 23.872 132.204 23.8513 132.349 23.7686C132.493 23.7065 132.617 23.6238 132.742 23.4997C132.845 23.3963 132.948 23.2515 133.01 23.1067C133.073 22.9619 133.114 22.7964 133.114 22.6309C133.135 22.3206 133.01 22.031 132.783 21.8035V21.8035ZM121.365 25.0511C120.31 22.6102 117.91 21.0175 115.263 20.9968C111.622 20.9968 108.685 23.9341 108.664 27.5747C108.664 31.2153 111.622 34.1732 115.263 34.1732C116.835 34.1732 118.365 33.6147 119.565 32.5805L119.606 32.5391C119.71 32.4564 119.813 32.3529 119.875 32.2288C120.268 31.6496 120.124 30.8843 119.565 30.4913C119.089 30.181 118.469 30.243 118.055 30.6361C118.014 30.6774 117.89 30.7809 117.89 30.8015L117.869 30.8222C117.517 31.1118 117.124 31.3601 116.69 31.5048C116.235 31.6703 115.759 31.7531 115.263 31.7324C114.807 31.7324 114.373 31.6703 113.939 31.5255C113.525 31.3807 113.132 31.1946 112.78 30.9257C112.429 30.6774 112.118 30.3672 111.87 30.0155C111.601 29.6639 111.415 29.2502 111.291 28.8365H120.599C120.93 28.8365 121.241 28.7123 121.468 28.4848C121.716 28.2573 121.84 27.947 121.82 27.616C121.84 26.7266 121.675 25.8578 121.365 25.0511V25.0511ZM111.291 26.3749C111.415 25.9405 111.601 25.5475 111.87 25.1959C112.118 24.8442 112.429 24.5339 112.78 24.2857C113.132 24.0375 113.525 23.8306 113.939 23.6858C114.352 23.541 114.807 23.479 115.242 23.479C115.676 23.479 116.131 23.541 116.545 23.6858C117.372 23.9548 118.096 24.4926 118.614 25.1959C118.882 25.5475 119.069 25.9612 119.213 26.3749H111.291ZM128.584 32.3736C128.108 32.3736 127.736 32.7666 127.736 33.2424C127.736 33.7182 128.129 34.0905 128.605 34.0905C129.08 34.0905 129.453 33.6975 129.453 33.2424C129.453 32.746 129.06 32.3736 128.584 32.3736ZM128.584 33.9043C128.211 33.925 127.901 33.6354 127.881 33.2631C127.86 32.8908 128.149 32.5805 128.522 32.5598C128.894 32.5391 129.204 32.8287 129.225 33.201V33.2424C129.246 33.5941 128.956 33.9043 128.605 33.9043H128.584Z" fill="#0091E2"/>
<path d="M128.791 33.2424C128.894 33.2217 128.956 33.139 128.956 33.0355C128.956 32.9528 128.935 32.8908 128.873 32.8494C128.791 32.808 128.687 32.7873 128.584 32.7873C128.48 32.7873 128.356 32.7873 128.253 32.808V33.6561H128.439V33.3251H128.522C128.625 33.3251 128.687 33.3665 128.708 33.4492C128.729 33.5113 128.749 33.594 128.77 33.6561H128.977C128.935 33.594 128.915 33.5113 128.915 33.4492C128.935 33.3665 128.873 33.2838 128.791 33.2424V33.2424ZM128.542 33.1803H128.439V32.9321H128.542C128.667 32.9321 128.729 32.9942 128.729 33.0562C128.749 33.139 128.646 33.201 128.542 33.1803V33.1803ZM53.1656 18.1008C53.0415 17.9974 51.9245 17.1493 49.525 17.1493C48.9044 17.1493 48.2632 17.2114 47.6426 17.3148C47.1876 14.15 44.5606 12.6193 44.4571 12.5365L43.8159 12.1642L43.4022 12.7641C42.8851 13.5708 42.492 14.4809 42.2645 15.4118C41.8301 17.2114 42.099 18.9076 43.0092 20.3555C41.9128 20.9761 40.1339 21.1209 39.7616 21.1416L10.3886 21.1416C9.62326 21.1416 9.0027 21.7621 9.0027 22.5275C8.96133 25.0924 9.39572 27.6574 10.2852 30.0776C11.2988 32.7253 12.8088 34.6904 14.7532 35.8901C16.9458 37.2346 20.5244 38 24.558 38C26.3783 38 28.1986 37.8345 29.9982 37.5035C32.5011 37.0485 34.9006 36.1797 37.1139 34.9179C38.9342 33.863 40.5683 32.5184 41.9542 30.9463C44.2916 28.3193 45.6776 25.382 46.6911 22.7757H47.1048C49.6491 22.7757 51.2212 21.7621 52.09 20.8933C52.6692 20.3555 53.1035 19.6936 53.4138 18.9489L53.6 18.4111L53.1656 18.1008Z" fill="#0091E2"/>
<path d="M13.1191 20.2935H17.0493C17.2354 20.2935 17.4009 20.1487 17.4009 19.9418V16.4253C17.4009 16.2392 17.2561 16.0737 17.0493 16.0737H13.1191C12.9329 16.0737 12.7674 16.2185 12.7674 16.4253V19.9418C12.7881 20.1487 12.9329 20.2935 13.1191 20.2935ZM18.5386 20.2935H22.4688C22.6549 20.2935 22.8204 20.1487 22.8204 19.9418V16.4253C22.8204 16.2392 22.6756 16.0737 22.4688 16.0737H18.5386C18.3524 16.0737 18.1869 16.2185 18.1869 16.4253V19.9418C18.2076 20.1487 18.3524 20.2935 18.5386 20.2935ZM24.0615 20.2935H27.9917C28.1779 20.2935 28.3434 20.1487 28.3434 19.9418V16.4253C28.3434 16.2392 28.1986 16.0737 27.9917 16.0737H24.0615C23.8754 16.0737 23.7099 16.2185 23.7099 16.4253V19.9418C23.7099 20.1487 23.8547 20.2935 24.0615 20.2935ZM29.5017 20.2935H33.4319C33.6181 20.2935 33.7836 20.1487 33.7836 19.9418V16.4253C33.7836 16.2392 33.6388 16.0737 33.4319 16.0737H29.5017C29.3156 16.0737 29.1501 16.2185 29.1501 16.4253V19.9418C29.1501 20.1487 29.3156 20.2935 29.5017 20.2935ZM18.5386 15.267L22.4688 15.267C22.6549 15.267 22.8204 15.1015 22.8204 14.9153V11.3988C22.8204 11.2127 22.6756 11.0472 22.4688 11.0472H18.5386C18.3524 11.0472 18.1869 11.192 18.1869 11.3988V14.9153C18.2076 15.1015 18.3524 15.267 18.5386 15.267ZM24.0615 15.267H27.9917C28.1779 15.267 28.3434 15.1015 28.3434 14.9153V11.3988C28.3434 11.2127 28.1986 11.0472 27.9917 11.0472H24.0615C23.8754 11.0472 23.7099 11.192 23.7099 11.3988V14.9153C23.7099 15.1015 23.8547 15.267 24.0615 15.267ZM29.5017 15.267H33.4319C33.6181 15.267 33.7836 15.1015 33.7836 14.9153V11.3988C33.7836 11.2127 33.6181 11.0472 33.4319 11.0472L29.5017 11.0472C29.3156 11.0472 29.1501 11.192 29.1501 11.3988V14.9153C29.1501 15.1015 29.3156 15.267 29.5017 15.267ZM29.5017 10.2198L33.4319 10.2198C33.6181 10.2198 33.7836 10.075 33.7836 9.86813V6.35165C33.7836 6.16548 33.6181 6 33.4319 6L29.5017 6C29.3156 6 29.1501 6.1448 29.1501 6.35165V9.86813C29.1501 10.0543 29.3156 10.2198 29.5017 10.2198ZM34.9833 20.2935H38.9135C39.0997 20.2935 39.2652 20.1487 39.2652 19.9418V16.4253C39.2652 16.2392 39.1204 16.0737 38.9135 16.0737H34.9833C34.7972 16.0737 34.6317 16.2185 34.6317 16.4253V19.9418C34.6524 20.1487 34.7972 20.2935 34.9833 20.2935Z" fill="#0091E2"/>
</svg>
