<svg width="133" height="45" viewBox="0 0 133 45" fill="none" xmlns="http://www.w3.org/2000/svg">
<rect width="133" height="45" rx="5" fill="#FFEFB8"/>
<g clip-path="url(#clip0_229_121)">
<path d="M7.66669 32.5625L11.5023 8.01698C11.5252 7.8702 11.5936 7.73432 11.6979 7.62856C11.8023 7.52281 11.9372 7.45252 12.0836 7.42766C12.2301 7.40279 12.3807 7.4246 12.514 7.49C12.6474 7.5554 12.7569 7.66107 12.8269 7.79208L16.7936 15.1906L18.3749 12.1802C18.435 12.066 18.5252 11.9704 18.6356 11.9036C18.7461 11.8369 18.8727 11.8017 19.0018 11.8017C19.1309 11.8017 19.2575 11.8369 19.3679 11.9036C19.4784 11.9704 19.5686 12.066 19.6287 12.1802L30.3334 32.5625H7.66669Z" fill="#FFA000"/>
<path d="M20.9178 23.0018L16.7918 15.1888L7.66669 32.5625L20.9178 23.0018Z" fill="#F57C00"/>
<path d="M30.3334 32.5625L27.3955 14.3832C27.3738 14.2551 27.3172 14.1355 27.232 14.0374C27.1468 13.9393 27.0363 13.8665 26.9125 13.827C26.7888 13.7875 26.6565 13.7829 26.5303 13.8135C26.404 13.8441 26.2886 13.9089 26.1967 14.0007L7.66669 32.5625L17.9198 38.3124C18.2365 38.4892 18.5931 38.582 18.9557 38.582C19.3184 38.582 19.675 38.4892 19.9917 38.3124L30.3334 32.5625Z" fill="#FFCA28"/>
<path d="M27.3955 14.3832C27.3738 14.2551 27.3172 14.1355 27.232 14.0374C27.1468 13.9393 27.0363 13.8665 26.9125 13.827C26.7888 13.7875 26.6565 13.7829 26.5303 13.8135C26.404 13.8441 26.2886 13.9089 26.1967 14.0007L22.5204 17.6875L19.6269 12.1785C19.5668 12.0642 19.4767 11.9686 19.3662 11.9019C19.2557 11.8352 19.1291 11.7999 19 11.7999C18.871 11.7999 18.7444 11.8352 18.6339 11.9019C18.5234 11.9686 18.4332 12.0642 18.3732 12.1785L16.7918 15.1889L12.8251 7.79211C12.755 7.66108 12.6454 7.55543 12.5119 7.49012C12.3784 7.42482 12.2277 7.40317 12.0812 7.42824C11.9347 7.45331 11.7998 7.52383 11.6956 7.62981C11.5914 7.7358 11.5231 7.87187 11.5005 8.01878L7.66669 32.5625H7.65253L7.66492 32.5767L7.76586 32.6263L22.5116 17.8646L26.1914 14.1813C26.2832 14.089 26.3988 14.0238 26.5253 13.9929C26.6518 13.962 26.7844 13.9665 26.9084 14.006C27.0325 14.0456 27.1433 14.1186 27.2286 14.2169C27.3139 14.3153 27.3705 14.4353 27.392 14.5638L30.305 32.5802L30.3334 32.5625L27.3955 14.3832ZM7.70034 32.5289L11.5023 8.19409C11.5249 8.04719 11.5931 7.91111 11.6973 7.80513C11.8015 7.69914 11.9364 7.62862 12.0829 7.60355C12.2295 7.57848 12.3801 7.60013 12.5136 7.66544C12.6472 7.73074 12.7568 7.83639 12.8269 7.96743L16.7936 15.366L18.3749 12.3556C18.435 12.2413 18.5252 12.1457 18.6356 12.079C18.7461 12.0123 18.8727 11.977 19.0018 11.977C19.1309 11.977 19.2575 12.0123 19.3679 12.079C19.4784 12.1457 19.5686 12.2413 19.6287 12.3556L22.462 17.7442L7.70034 32.5289Z" fill="white" fill-opacity="0.2"/>
<path opacity="0.2" d="M19.9917 38.1389C19.675 38.3157 19.3184 38.4085 18.9557 38.4085C18.5931 38.4085 18.2365 38.3157 17.9198 38.1389L7.69148 32.4014L7.66669 32.5625L17.9198 38.3106C18.2365 38.4874 18.5931 38.5803 18.9557 38.5803C19.3184 38.5803 19.675 38.4874 19.9917 38.3106L30.3334 32.5625L30.3068 32.3996L19.9917 38.1389Z" fill="#A52714"/>
<path d="M27.3955 14.3832C27.3738 14.2551 27.3172 14.1355 27.232 14.0374C27.1468 13.9393 27.0363 13.8665 26.9125 13.827C26.7888 13.7875 26.6565 13.7829 26.5303 13.8135C26.404 13.8441 26.2886 13.9089 26.1967 14.0007L22.5204 17.6875L19.6269 12.1785C19.5668 12.0642 19.4767 11.9686 19.3662 11.9019C19.2557 11.8352 19.1291 11.7999 19 11.7999C18.871 11.7999 18.7443 11.8352 18.6339 11.9019C18.5234 11.9686 18.4332 12.0642 18.3731 12.1785L16.7918 15.1889L12.8251 7.79211C12.755 7.66108 12.6454 7.55543 12.5119 7.49012C12.3783 7.42482 12.2277 7.40317 12.0812 7.42824C11.9347 7.45331 11.7998 7.52383 11.6956 7.62981C11.5914 7.7358 11.5231 7.87187 11.5005 8.01878L7.66669 32.5625L17.9198 38.3107C18.2365 38.4875 18.5931 38.5803 18.9557 38.5803C19.3184 38.5803 19.675 38.4875 19.9917 38.3107L30.3334 32.5625L27.3955 14.3832Z" fill="url(#paint0_linear_229_121)"/>
<path d="M27.5 38.5834C31.412 38.5834 34.5833 35.412 34.5833 31.5C34.5833 27.588 31.412 24.4167 27.5 24.4167C23.588 24.4167 20.4167 27.588 20.4167 31.5C20.4167 35.412 23.588 38.5834 27.5 38.5834Z" fill="#757575"/>
<path fill-rule="evenodd" clip-rule="evenodd" d="M27.5 31.8541L24.3125 33.2708V31.8541L27.5 30.4375L30.6875 31.8541V33.0937V32.8281V33.2708L27.5 31.8541ZM27.5 27.9583L30.6875 29.375V30.7916L27.5 29.375L24.3125 30.7916V29.375L27.5 27.9583ZM28.6953 33.0937L30.2891 33.8021L27.5 35.0416V33.625L28.6953 33.0937Z" fill="white"/>
</g>
<path d="M41.598 31V16.4545H50.6179V18.3438H43.7926V22.7756H49.9716V24.6577H43.7926V31H41.598ZM53.1463 31V20.0909H55.2699V31H53.1463ZM54.2188 18.4077C53.8494 18.4077 53.5322 18.2846 53.267 18.0384C53.0066 17.7874 52.8764 17.4891 52.8764 17.1435C52.8764 16.7931 53.0066 16.4948 53.267 16.2486C53.5322 15.9976 53.8494 15.8722 54.2188 15.8722C54.5881 15.8722 54.9029 15.9976 55.1634 16.2486C55.4285 16.4948 55.5611 16.7931 55.5611 17.1435C55.5611 17.4891 55.4285 17.7874 55.1634 18.0384C54.9029 18.2846 54.5881 18.4077 54.2188 18.4077ZM58.1268 31V20.0909H60.1793V21.8239H60.293C60.4918 21.2367 60.8422 20.7751 61.3441 20.4389C61.8507 20.098 62.4237 19.9276 63.0629 19.9276C63.1954 19.9276 63.3517 19.9323 63.5316 19.9418C63.7163 19.9512 63.8607 19.9631 63.9648 19.9773V22.0085C63.8796 21.9848 63.7281 21.9588 63.5103 21.9304C63.2925 21.8973 63.0747 21.8807 62.8569 21.8807C62.355 21.8807 61.9076 21.9872 61.5146 22.2003C61.1263 22.4086 60.8185 22.6998 60.5913 23.0739C60.364 23.4432 60.2504 23.8646 60.2504 24.3381V31H58.1268ZM70.1136 31.2202C69.0388 31.2202 68.1132 30.9905 67.3366 30.5312C66.5649 30.0672 65.9683 29.4162 65.5469 28.5781C65.1302 27.7353 64.9219 26.7481 64.9219 25.6165C64.9219 24.4991 65.1302 23.5142 65.5469 22.6619C65.9683 21.8097 66.5554 21.1444 67.3082 20.6662C68.0658 20.188 68.9512 19.9489 69.9645 19.9489C70.58 19.9489 71.1766 20.0507 71.7543 20.2543C72.3319 20.4579 72.8504 20.7775 73.3097 21.2131C73.7689 21.6487 74.1312 22.2145 74.3963 22.9105C74.6615 23.6018 74.794 24.4422 74.794 25.4318V26.1847H66.1222V24.5938H72.7131C72.7131 24.035 72.5994 23.5402 72.3722 23.1094C72.1449 22.6738 71.8253 22.3305 71.4134 22.0795C71.0062 21.8286 70.5279 21.7031 69.9787 21.7031C69.3821 21.7031 68.8613 21.8499 68.4162 22.1435C67.9759 22.4323 67.6349 22.8111 67.3935 23.2798C67.1567 23.7438 67.0384 24.2481 67.0384 24.7926V26.0355C67.0384 26.7647 67.1662 27.3849 67.4219 27.8963C67.6823 28.4077 68.0445 28.7983 68.5085 29.0682C68.9725 29.3333 69.5147 29.4659 70.1349 29.4659C70.5374 29.4659 70.9044 29.4091 71.2358 29.2955C71.5672 29.1771 71.8537 29.0019 72.0952 28.7699C72.3366 28.5379 72.5213 28.2514 72.6491 27.9105L74.6591 28.2727C74.4981 28.8646 74.2093 29.383 73.7926 29.8281C73.3807 30.2685 72.8622 30.6117 72.2372 30.858C71.617 31.0994 70.9091 31.2202 70.1136 31.2202ZM85.3249 22.7543L83.4002 23.0952C83.3197 22.849 83.1919 22.6146 83.0167 22.392C82.8462 22.1695 82.6142 21.9872 82.3207 21.8452C82.0271 21.7031 81.6602 21.6321 81.2198 21.6321C80.6185 21.6321 80.1166 21.767 79.7141 22.0369C79.3117 22.3021 79.1104 22.6454 79.1104 23.0668C79.1104 23.4313 79.2454 23.7249 79.5153 23.9474C79.7852 24.17 80.2208 24.3523 80.8221 24.4943L82.555 24.892C83.5588 25.1241 84.3069 25.4815 84.7994 25.9645C85.2918 26.4474 85.538 27.0748 85.538 27.8466C85.538 28.5 85.3486 29.0824 84.9698 29.5938C84.5958 30.1004 84.0726 30.4981 83.4002 30.7869C82.7326 31.0758 81.9585 31.2202 81.0778 31.2202C79.8562 31.2202 78.8595 30.9598 78.0877 30.4389C77.3159 29.9134 76.8424 29.1676 76.6673 28.2017L78.7198 27.8892C78.8477 28.4242 79.1104 28.8291 79.5082 29.1037C79.9059 29.3736 80.4244 29.5085 81.0636 29.5085C81.7596 29.5085 82.3159 29.3641 82.7326 29.0753C83.1493 28.7817 83.3576 28.4242 83.3576 28.0028C83.3576 27.6619 83.2298 27.3755 82.9741 27.1435C82.7231 26.9115 82.3372 26.7363 81.8164 26.6179L79.9698 26.2131C78.9518 25.9811 78.199 25.6117 77.7113 25.1051C77.2283 24.5985 76.9869 23.9569 76.9869 23.1804C76.9869 22.5365 77.1668 21.973 77.5266 21.4901C77.8865 21.0071 78.3836 20.6307 79.0181 20.3608C79.6526 20.0862 80.3794 19.9489 81.1985 19.9489C82.3775 19.9489 83.3055 20.2045 83.9826 20.7159C84.6597 21.2225 85.1071 21.902 85.3249 22.7543ZM92.9652 20.0909V21.7955H87.0064V20.0909H92.9652ZM88.6044 17.4773H90.728V27.7969C90.728 28.2088 90.7895 28.5189 90.9126 28.7273C91.0357 28.9309 91.1944 29.0705 91.3885 29.1463C91.5874 29.2173 91.8028 29.2528 92.0348 29.2528C92.2053 29.2528 92.3544 29.241 92.4822 29.2173C92.6101 29.1937 92.7095 29.1747 92.7805 29.1605L93.1641 30.9148C93.041 30.9621 92.8658 31.0095 92.6385 31.0568C92.4112 31.1089 92.1271 31.1373 91.7862 31.142C91.2275 31.1515 90.7067 31.0521 90.2237 30.8438C89.7408 30.6354 89.3501 30.3134 89.0518 29.8778C88.7536 29.4422 88.6044 28.8954 88.6044 28.2372V17.4773ZM99.7923 31.2202C98.7695 31.2202 97.877 30.9858 97.1147 30.517C96.3524 30.0483 95.7605 29.3925 95.3391 28.5497C94.9177 27.7069 94.707 26.7221 94.707 25.5952C94.707 24.4635 94.9177 23.474 95.3391 22.6264C95.7605 21.7789 96.3524 21.1207 97.1147 20.652C97.877 20.1832 98.7695 19.9489 99.7923 19.9489C100.815 19.9489 101.708 20.1832 102.47 20.652C103.232 21.1207 103.824 21.7789 104.245 22.6264C104.667 23.474 104.877 24.4635 104.877 25.5952C104.877 26.7221 104.667 27.7069 104.245 28.5497C103.824 29.3925 103.232 30.0483 102.47 30.517C101.708 30.9858 100.815 31.2202 99.7923 31.2202ZM99.7994 29.4375C100.462 29.4375 101.011 29.2623 101.447 28.9119C101.883 28.5616 102.205 28.0952 102.413 27.5128C102.626 26.9304 102.733 26.2888 102.733 25.5881C102.733 24.892 102.626 24.2528 102.413 23.6705C102.205 23.0833 101.883 22.6122 101.447 22.2571C101.011 21.902 100.462 21.7244 99.7994 21.7244C99.1317 21.7244 98.5778 21.902 98.1374 22.2571C97.7018 22.6122 97.3775 23.0833 97.1644 23.6705C96.9561 24.2528 96.8519 24.892 96.8519 25.5881C96.8519 26.2888 96.9561 26.9304 97.1644 27.5128C97.3775 28.0952 97.7018 28.5616 98.1374 28.9119C98.5778 29.2623 99.1317 29.4375 99.7994 29.4375ZM107.248 31V20.0909H109.3V21.8239H109.414C109.613 21.2367 109.963 20.7751 110.465 20.4389C110.972 20.098 111.545 19.9276 112.184 19.9276C112.317 19.9276 112.473 19.9323 112.653 19.9418C112.837 19.9512 112.982 19.9631 113.086 19.9773V22.0085C113.001 21.9848 112.849 21.9588 112.631 21.9304C112.414 21.8973 112.196 21.8807 111.978 21.8807C111.476 21.8807 111.029 21.9872 110.636 22.2003C110.247 22.4086 109.94 22.6998 109.712 23.0739C109.485 23.4432 109.371 23.8646 109.371 24.3381V31H107.248ZM119.235 31.2202C118.16 31.2202 117.234 30.9905 116.458 30.5312C115.686 30.0672 115.089 29.4162 114.668 28.5781C114.251 27.7353 114.043 26.7481 114.043 25.6165C114.043 24.4991 114.251 23.5142 114.668 22.6619C115.089 21.8097 115.676 21.1444 116.429 20.6662C117.187 20.188 118.072 19.9489 119.086 19.9489C119.701 19.9489 120.298 20.0507 120.875 20.2543C121.453 20.4579 121.971 20.7775 122.431 21.2131C122.89 21.6487 123.252 22.2145 123.517 22.9105C123.783 23.6018 123.915 24.4422 123.915 25.4318V26.1847H115.243V24.5938H121.834C121.834 24.035 121.721 23.5402 121.493 23.1094C121.266 22.6738 120.946 22.3305 120.534 22.0795C120.127 21.8286 119.649 21.7031 119.1 21.7031C118.503 21.7031 117.982 21.8499 117.537 22.1435C117.097 22.4323 116.756 22.8111 116.515 23.2798C116.278 23.7438 116.159 24.2481 116.159 24.7926V26.0355C116.159 26.7647 116.287 27.3849 116.543 27.8963C116.803 28.4077 117.166 28.7983 117.63 29.0682C118.094 29.3333 118.636 29.4659 119.256 29.4659C119.658 29.4659 120.025 29.4091 120.357 29.2955C120.688 29.1771 120.975 29.0019 121.216 28.7699C121.458 28.5379 121.642 28.2514 121.77 27.9105L123.78 28.2727C123.619 28.8646 123.33 29.383 122.914 29.8281C122.502 30.2685 121.983 30.6117 121.358 30.858C120.738 31.0994 120.03 31.2202 119.235 31.2202Z" fill="#5F6368"/>
<defs>
<linearGradient id="paint0_linear_229_121" x1="6.81456" y1="13.1331" x2="30.4883" y2="36.8069" gradientUnits="userSpaceOnUse">
<stop stop-color="white" stop-opacity="0.1"/>
<stop offset="1" stop-color="white" stop-opacity="0"/>
</linearGradient>
<clipPath id="clip0_229_121">
<rect width="34" height="34" fill="white" transform="translate(2 6)"/>
</clipPath>
</defs>
</svg>
