<svg width="123" height="45" viewBox="0 0 123 45" fill="none" xmlns="http://www.w3.org/2000/svg">
<rect width="123" height="45" rx="5" fill="white"/>
<path d="M10.6734 10.9899C10.3719 11.1622 10.4365 11.6252 10.835 12.0345C11.0233 12.2346 11.0082 12.551 10.8016 12.7322L10.6519 12.8636C10.135 13.3267 10.1242 13.3375 10.2642 13.6713C10.3827 13.9728 10.3827 14.0374 10.1888 14.2959C10.0704 14.4466 9.81195 14.6189 9.60734 14.6728C9.40274 14.7266 9.1766 14.8127 9.11199 14.8774C8.93969 15.0173 8.92892 15.4589 9.09045 15.5665C9.15506 15.6096 9.03661 15.7388 8.78893 15.8788C8.30435 16.1696 7.98129 16.6757 7.97052 17.1495C7.97052 17.3434 8.08897 17.8064 8.23973 18.1941C8.40126 18.5817 8.70278 19.594 8.91815 20.4555C9.3812 22.3292 9.68272 23.1476 10.4365 24.6768C12.9779 29.7703 16.4238 32.3763 21.5174 33.0547C24.0372 33.3885 27.6124 33.2808 29.1631 32.807C29.583 32.6886 30.2076 32.5701 30.563 32.5593C30.9183 32.5486 31.4245 32.4732 31.6937 32.4086C31.9629 32.3332 32.3613 32.2255 32.5875 32.1717C33.0398 32.064 33.1474 31.9025 33.0505 31.4933C32.9859 31.2348 32.9428 31.224 32.1675 31.224C31.726 31.224 31.2629 31.181 31.1553 31.1164C31.026 31.041 30.8645 31.0625 30.6276 31.181C30.3691 31.3102 30.2184 31.321 29.8953 31.2348C29.6692 31.1702 29.2384 31.1164 28.9369 31.1164C28.6354 31.1164 28.3554 31.0841 28.3231 31.0517C28.28 31.0087 28.3985 30.7933 28.5708 30.5779C28.7539 30.3518 28.8939 30.0933 28.8939 30.0072C28.8939 29.598 28.3554 29.6518 27.817 30.1041C27.5585 30.3303 27.5155 30.4164 27.6232 30.4918C27.7308 30.5779 27.7201 30.5887 27.5909 30.5456C27.4832 30.5133 27.3109 30.5995 27.1601 30.7502C26.8694 31.0625 26.6863 31.041 25.1249 30.5564C23.165 29.9426 21.3774 28.8011 20.1928 27.4227C18.696 25.689 18.276 25.0106 17.813 23.6322C17.3822 22.34 17.1884 21.1447 17.0054 18.6248C16.8007 15.8788 16.8546 15.7604 18.2653 16.2557C18.9437 16.4926 19.0837 16.5142 19.2991 16.3742C19.6975 16.1157 18.8683 15.5019 17.4253 15.0066C16.9515 14.8451 16.4346 14.6189 16.2731 14.5112C16.1116 14.4035 15.81 14.242 15.6054 14.1559C15.3901 14.0589 15.2178 13.9297 15.2178 13.8436C15.2178 13.682 14.7763 13.4559 14.4317 13.4451C14.3024 13.4451 14.0225 13.3913 13.8179 13.3159C13.5056 13.2082 13.4302 13.1221 13.3871 12.8098C13.3557 12.5898 13.1751 12.4216 12.9535 12.4058L12.5795 12.379L12.3851 12.3652C12.0749 12.343 11.8401 12.0757 11.858 11.7652C11.8795 11.2914 11.8472 11.1837 11.6426 11.0437C11.3734 10.8499 10.9426 10.8284 10.6734 10.9899ZM11.4272 11.1084C11.6749 11.356 11.5672 11.4853 11.1257 11.4745C10.6411 11.4637 10.6304 11.453 10.878 11.173C11.0826 10.9468 11.2442 10.9253 11.4272 11.1084ZM12.3103 12.7236C12.4518 12.7236 12.3795 12.8066 12.239 12.7895C12.2169 12.7868 12.197 12.7828 12.181 12.7775C12.1057 12.7452 12.1595 12.7236 12.3103 12.7236ZM13.0317 13.5744C13.2256 13.6497 13.2471 13.7144 13.1825 13.9513C13.1394 14.1128 13.0533 14.2635 12.9994 14.2851C12.8271 14.3389 12.3103 13.779 12.3103 13.5421C12.3103 13.3267 12.3856 13.3267 13.0317 13.5744ZM12.2564 13.9943C12.2995 14.0589 12.1487 14.102 11.8903 14.102C11.6641 14.102 11.3734 14.1236 11.2657 14.1559C11.158 14.1882 11.2226 14.1451 11.3949 14.0589C11.7718 13.8651 12.1595 13.8436 12.2564 13.9943ZM14.2055 14.5866C14.324 14.9527 14.324 14.9635 14.1301 14.7912C13.9363 14.6189 13.9255 14.6189 13.9255 14.8989C13.9255 15.3512 13.6348 15.3727 13.2794 14.9527C13.0425 14.6835 12.9671 14.6404 12.9564 14.7697C12.9564 14.9312 12.881 14.9527 12.4718 14.8989C12.2133 14.8558 11.7718 14.8881 11.4918 14.9527C11.2226 15.0281 10.975 15.0604 10.9534 15.0389C10.9103 14.9958 13.6456 14.242 13.9255 14.2205C14.0225 14.2097 14.1409 14.3605 14.2055 14.5866ZM17.1992 15.1358C17.3499 15.2866 17.3499 15.3296 17.21 15.6096C17.113 15.7927 16.9084 15.9973 16.7469 16.0727C16.2946 16.3096 15.1101 16.568 14.044 16.6757C13.4625 16.7403 12.9025 16.8695 12.6118 17.0095C12.3641 17.1388 11.9226 17.3326 11.6426 17.451C11.2011 17.6233 11.1257 17.6233 11.1257 17.4941C11.1257 17.3111 11.0826 17.3003 10.5981 17.3972C10.415 17.4403 10.2642 17.5372 10.2642 17.6126C10.2642 17.7741 9.97347 17.8064 9.68272 17.6987C9.40274 17.591 9.25198 17.2357 9.41351 17.0526C9.57504 16.848 9.47812 16.7511 9.18737 16.848C8.92892 16.9342 8.75663 17.3003 8.75663 17.7956L8.75549 17.8318C8.75278 17.9186 8.63753 17.9468 8.5951 17.871C8.28281 17.3218 8.50895 16.8588 9.21967 16.5896C9.70426 16.4065 9.94117 16.4388 9.94117 16.6972C9.94117 16.9772 10.6088 17.2787 10.8888 17.128C11.0611 17.0311 11.0611 17.0203 10.878 16.9449C10.7596 16.9018 10.7057 16.8049 10.7488 16.6865C10.7919 16.568 10.738 16.4711 10.6196 16.428C10.4581 16.3634 10.4473 16.3311 10.5873 16.2665C10.6734 16.2127 10.9426 16.1373 11.1796 16.0942C11.4165 16.0619 12.1703 15.8573 12.8595 15.6527C13.5379 15.4481 14.3347 15.2543 14.604 15.222C15.0778 15.1573 15.1101 15.1681 15.1101 15.3835C15.1101 15.6527 15.3901 15.8035 15.5624 15.6312C15.6593 15.5342 15.6377 15.4481 15.4978 15.2973C15.3147 15.0927 15.3147 15.082 15.7239 15.0389C16.6715 14.942 17.0377 14.9635 17.1992 15.1358ZM9.94117 15.3942C9.85502 15.4481 9.73657 15.5019 9.67195 15.5019C9.61811 15.5019 9.63965 15.4481 9.7258 15.3942C9.81195 15.3404 9.94117 15.2866 9.99501 15.2866C10.0596 15.2866 10.0273 15.3404 9.94117 15.3942ZM19.0945 16.0511C19.0945 16.1157 19.0191 16.1157 18.8791 16.0404C18.7606 15.9758 18.6637 15.8788 18.6637 15.8142C18.6637 15.7496 18.7391 15.7496 18.8791 15.825C18.9975 15.8896 19.0945 15.9865 19.0945 16.0511ZM16.6715 17.0418C16.7038 17.2357 16.7361 17.6772 16.7361 18.0325C16.7361 19.7555 16.7684 20.3478 16.8654 20.3478C16.9192 20.3478 16.9407 20.5309 16.9084 20.7785C16.8761 21.0154 16.8977 21.2416 16.9515 21.2739C17.1023 21.36 17.07 21.64 16.8977 21.64C16.7361 21.64 16.6177 21.8662 16.6177 22.1569C16.6177 22.2969 16.6608 22.2754 16.79 22.0923C17.0054 21.78 17.113 21.8554 17.1992 22.4154C17.2423 22.6738 17.393 23.2768 17.5438 23.7722C17.7915 24.5906 17.8022 24.666 17.6407 24.8275C17.4792 24.989 17.4899 25.0214 17.7915 25.2044C17.9745 25.3121 18.1253 25.4844 18.1253 25.5705C18.1253 25.6675 18.1791 25.7105 18.233 25.6782C18.4053 25.5705 18.6529 25.8182 19.0729 26.4859C19.2775 26.8089 19.6329 27.2828 19.8698 27.5304C20.0959 27.7889 20.279 28.0796 20.279 28.1873C20.279 28.6288 21.4528 29.5011 22.4866 29.8241C22.7235 29.8995 23.0896 30.1149 23.2942 30.3195C23.6819 30.6856 24.1234 30.901 24.4895 30.901C24.608 30.901 24.7695 30.9656 24.8556 31.041C24.931 31.1164 25.2648 31.2456 25.5987 31.321C26.234 31.461 26.3632 31.5902 25.9648 31.6871C25.6633 31.7732 24.7049 31.5363 23.8649 31.181C23.1111 30.8687 22.3789 30.8148 22.0235 31.0733C21.7651 31.2456 21.7004 31.1487 21.9266 30.901C21.9912 30.8148 21.9266 30.8471 21.7758 30.9871C21.4312 31.2887 21.3451 31.2887 21.022 30.9441C20.882 30.7933 20.6882 30.6964 20.5913 30.7179C20.279 30.8041 20.0636 30.5995 20.1067 30.2549C20.1498 29.8995 20.1175 29.8887 19.2237 29.7811C18.5345 29.7057 18.0068 29.178 18.6206 29.178C18.8252 29.178 18.8898 29.2211 18.836 29.3395C18.7714 29.5226 19.1483 29.7164 19.5898 29.7164C19.9667 29.7164 19.9129 29.5765 19.3098 28.9734C18.7929 28.4565 18.3514 28.1981 16.3485 27.2935C15.9931 27.132 15.7562 26.9812 15.8316 26.9489C15.8962 26.9274 16.1977 27.0351 16.4992 27.1966C16.9407 27.4227 17.0807 27.455 17.21 27.3474C17.4899 27.1105 17.0377 26.4428 16.51 26.3243C16.3485 26.292 16.1008 26.1413 15.9716 26.0013L15.9384 25.9667C15.8371 25.861 15.8773 25.686 16.0146 25.6352C16.4023 25.4844 16.37 25.2044 15.907 24.6983C15.7024 24.4722 15.5516 24.3645 15.5839 24.4722C15.6162 24.5906 15.67 24.806 15.7024 24.9567C15.7107 25.0021 15.6479 25.0226 15.6279 24.9811L15.6162 24.9567C15.3039 24.2999 14.787 23.9983 14.787 24.4614C14.7763 24.6768 14.7655 24.6875 14.6793 24.526C14.6147 24.4291 14.4855 24.3752 14.3671 24.4075C14.1301 24.4722 14.0655 24.386 13.9794 23.8907C13.9363 23.6753 13.7532 23.3522 13.5163 23.1153L13.3509 22.9454C13.2956 22.8887 13.3561 22.7965 13.4302 22.8246C13.8609 22.9861 14.0332 22.8138 13.8179 22.4261C13.5486 21.9631 13.344 21.8985 13.0533 22.1677C12.9493 22.263 12.7812 22.1955 12.772 22.0547L12.7625 21.9092C12.7302 21.4893 12.6979 21.4246 12.5795 21.5323C12.4826 21.6185 12.4502 21.7692 12.4933 21.9738C12.5472 22.2431 12.5256 22.2861 12.2995 22.2861C12.0626 22.2861 12.0733 22.3077 12.4502 22.6953C12.7625 23.0184 12.8164 23.1369 12.7195 23.2338C12.4933 23.4599 12.3318 23.3738 12.2026 22.9861C12.138 22.7815 11.9764 22.523 11.8472 22.4261C11.7072 22.3077 11.6211 22.1354 11.6426 22.0062C11.6641 21.8554 11.578 21.7154 11.3949 21.5969C11.1365 21.4246 11.1365 21.4031 11.298 21.1554C11.5026 20.8431 11.8257 20.8001 11.9764 21.0693C12.041 21.1985 12.0303 21.2847 11.9118 21.3708C11.718 21.5108 11.901 22.0708 12.1487 22.0708C12.2672 22.0708 12.3103 21.9523 12.3103 21.5969C12.3103 21.037 12.0303 20.6278 11.6318 20.617C11.4811 20.6062 11.2765 20.5416 11.1903 20.4662C10.9857 20.2939 10.9642 20.0247 11.158 20.0247C11.2334 20.0247 11.3411 19.917 11.3949 19.7771C11.4595 19.6371 11.6211 19.5294 11.7934 19.5078C12.2672 19.454 12.3749 19.2279 12.1487 18.7325C11.9226 18.2372 11.9657 18.151 12.4718 18.1187C12.9348 18.0972 13.2794 17.9141 13.2794 17.7095C13.2794 17.6018 13.3871 17.548 13.6025 17.548C13.7748 17.548 13.9578 17.4726 14.0009 17.3864C14.0763 17.2572 14.1732 17.2464 14.464 17.3326C14.9809 17.4834 15.0993 17.4618 14.8516 17.2787C14.7332 17.1926 14.6686 17.0957 14.7009 17.0634C14.7332 17.0311 15.0778 16.9342 15.487 16.848C15.8854 16.7726 16.23 16.6757 16.2623 16.6434C16.3915 16.5142 16.6177 16.7403 16.6715 17.0418ZM11.718 18.6248C11.718 18.7217 11.5995 18.7971 11.3949 18.8079C11.1257 18.8294 11.1042 18.8187 11.2872 18.7433C11.4918 18.6464 11.4918 18.6464 11.2334 18.5279C10.975 18.4202 10.9857 18.4202 11.3411 18.4418C11.5888 18.4525 11.718 18.5171 11.718 18.6248ZM10.5011 18.8617C10.4042 18.9586 10.3396 18.9586 10.2427 18.8617C10.1458 18.7648 10.1673 18.7325 10.3719 18.7325C10.5765 18.7325 10.5981 18.7648 10.5011 18.8617ZM10.5873 19.917C10.5873 20.057 10.4688 20.057 10.2642 19.917C10.135 19.8309 10.1458 19.8094 10.3504 19.8094C10.4796 19.8094 10.5873 19.8524 10.5873 19.917ZM9.61811 20.3586C9.61811 20.4232 9.57504 20.4339 9.51043 20.4016C9.45658 20.3693 9.40274 20.2832 9.40274 20.2293C9.40274 20.1647 9.45658 20.154 9.51043 20.1863C9.57504 20.2186 9.61811 20.3047 9.61811 20.3586ZM10.4581 20.3263C10.4796 20.4016 10.4365 20.4339 10.3288 20.3909C10.2319 20.3586 10.1565 20.2724 10.1565 20.2186C10.1565 20.0786 10.4042 20.1647 10.4581 20.3263ZM10.2104 22.1354C10.2319 22.3184 10.3611 22.7707 10.5119 23.1369C10.7057 23.6214 10.738 23.7614 10.6088 23.6645C10.4581 23.5353 9.73657 22.0923 9.49966 21.4246C9.40274 21.1662 9.41351 21.177 9.68272 21.4785C9.87656 21.7046 9.94117 21.7369 9.88733 21.5862C9.70426 21.0801 9.73657 20.9724 9.95194 21.36C10.0812 21.5969 10.1996 21.9415 10.2104 22.1354ZM11.4918 22.5123C11.6187 22.5007 11.5699 22.6227 11.4484 22.5847C11.4412 22.5824 11.4341 22.5798 11.4272 22.5769C11.3411 22.5446 11.3734 22.5123 11.4918 22.5123ZM13.5379 23.4276C13.5702 23.5245 13.6025 23.686 13.6025 23.783C13.6025 23.8907 13.7532 24.1599 13.9255 24.386C14.1086 24.6121 14.2271 24.8167 14.1948 24.8491C14.1086 24.9352 12.6118 24.2029 12.4502 24.0091C12.2133 23.7184 12.2779 23.5461 12.6118 23.6214C13.4948 23.8476 13.5056 23.8476 13.3871 23.5353C13.3333 23.3845 13.3225 23.2553 13.3763 23.2553C13.4302 23.2553 13.5056 23.3307 13.5379 23.4276ZM10.7057 24.2783C10.8673 24.6445 11.1796 25.1506 11.3949 25.409C11.6103 25.6567 11.8257 25.9582 11.8795 26.0551C11.9334 26.1628 12.0841 26.3674 12.2133 26.5074C12.3426 26.6474 12.5256 26.9812 12.6225 27.2504C12.741 27.552 12.9025 27.7781 13.0856 27.8643C13.2471 27.9396 13.4733 28.1658 13.6025 28.3704C13.7317 28.575 13.8825 28.7473 13.9363 28.7473C14.0009 28.7473 14.1624 28.8873 14.3132 29.0596C14.4532 29.2319 14.7978 29.5011 15.0562 29.6626C15.3255 29.8134 15.5408 30.0072 15.5408 30.0933C15.5408 30.1795 15.5193 30.2549 15.487 30.2549C14.9701 30.2549 12.9887 28.4135 12.4718 27.4443C12.2995 27.1212 11.8257 26.3567 11.4165 25.7644C10.7057 24.6983 10.0273 23.3845 10.275 23.5353C10.3396 23.5784 10.5334 23.9122 10.7057 24.2783ZM14.5717 25.3444C14.927 25.4736 14.927 25.4844 14.7116 25.5598C14.4532 25.6459 14.3778 25.8398 14.604 25.8398C14.7009 25.8398 14.7009 25.8613 14.5932 25.9367C14.4855 26.0013 14.5286 26.109 14.787 26.389C15.0778 26.712 15.4762 27.3474 15.3793 27.3474C15.2931 27.3474 13.7102 26.4643 13.7102 26.4105C13.7102 26.389 13.8179 26.389 13.9578 26.432C14.1948 26.4966 14.1948 26.4966 13.9794 26.3028C13.5594 25.9151 13.4733 25.6567 13.6779 25.409C13.8932 25.1613 14.044 25.1506 14.5717 25.3444ZM16.2839 27.735C16.4346 27.8643 16.0793 27.7458 15.907 27.6058C15.7131 27.455 15.7131 27.455 15.9716 27.5735C16.1223 27.6381 16.2623 27.7135 16.2839 27.735ZM15.4762 27.9935C16.2192 28.2304 16.3485 28.3596 15.9393 28.4673C15.4547 28.5857 14.4532 28.1658 14.6147 27.9073C14.7116 27.7458 14.6363 27.735 15.4762 27.9935ZM16.8977 28.2304C17.253 28.3919 17.3607 28.4781 17.2315 28.5104C17.07 28.5427 16.2946 28.155 16.2946 28.0366C16.2946 27.9612 16.3485 27.9827 16.8977 28.2304ZM17.5438 28.0904C17.5976 28.1442 17.7376 28.2088 17.8561 28.2412C18.0607 28.2842 18.0607 28.295 17.8453 28.3058C17.7161 28.3058 17.4469 28.2412 17.253 28.155C16.9084 28.015 16.9084 28.0042 17.1669 27.9935C17.3176 27.9935 17.4792 28.0366 17.5438 28.0904ZM17.4792 28.855C17.5653 28.9088 17.5976 28.9626 17.533 28.9626C17.4792 28.9626 17.3499 28.9088 17.2638 28.855C17.1776 28.8011 17.1561 28.7473 17.21 28.7473C17.2746 28.7473 17.393 28.8011 17.4792 28.855ZM17.4792 29.4472C17.6515 29.5441 17.6838 29.598 17.5761 29.6088C17.4899 29.6088 17.3176 29.5334 17.1992 29.4472C16.9407 29.2534 17.1238 29.2426 17.4792 29.4472ZM18.3945 30.2549C18.4268 30.3087 18.416 30.3626 18.3514 30.3626C18.2976 30.3626 18.2114 30.3087 18.1791 30.2549C18.1468 30.1903 18.1576 30.1472 18.2222 30.1472C18.276 30.1472 18.3622 30.1903 18.3945 30.2549ZM19.676 30.3733C19.8028 30.3618 19.754 30.4838 19.6325 30.4457C19.6253 30.4435 19.6182 30.4409 19.6113 30.4379C19.5252 30.4056 19.5575 30.3733 19.676 30.3733ZM17.5976 31.3425C18.0822 31.5794 18.5453 31.7517 18.6314 31.7194C18.7176 31.6871 18.7606 31.6979 18.7283 31.7409C18.6422 31.8809 20.3436 32.484 21.1405 32.6132C21.5281 32.667 22.7342 32.7532 23.8326 32.7963C25.9217 32.8716 26.2232 33.0332 24.3172 33.0439C23.0142 33.0547 19.9667 32.624 18.9868 32.3009C18.1899 32.0317 16.51 31.2671 16.51 31.1702C16.51 31.1379 16.7577 31.2348 17.0592 31.3856C17.6945 31.7194 18.1253 31.8809 18.1253 31.8163C18.1253 31.784 17.7484 31.5686 17.2961 31.3425C17.126 31.2554 16.9762 31.1742 16.8585 31.1057C16.654 30.9867 16.7124 30.9269 16.9295 31.021C17.1138 31.1009 17.3528 31.2145 17.5976 31.3425ZM17.6945 31.0087C17.6945 31.0625 17.6515 31.1164 17.5869 31.1164C17.533 31.1164 17.4792 31.0625 17.4792 31.0087C17.4792 30.9441 17.533 30.901 17.5869 30.901C17.6515 30.901 17.6945 30.9441 17.6945 31.0087ZM23.2727 31.504C23.2511 31.6548 23.1434 31.7086 22.885 31.7086C22.465 31.7086 22.4542 31.6333 22.8311 31.3317C23.1434 31.0948 23.3373 31.1702 23.2727 31.504ZM28.8292 31.5148C29.4323 31.6333 28.7862 31.7302 27.7739 31.6763C26.9017 31.6333 26.8263 31.6117 27.0201 31.4717C27.2247 31.321 27.9247 31.3425 28.8292 31.5148ZM23.6926 31.6225C23.5563 31.7588 23.3597 31.609 23.5182 31.4991C23.5697 31.4634 23.6352 31.4394 23.7034 31.4394C23.8649 31.4394 23.8649 31.4502 23.6926 31.6225ZM32.1567 31.6225C32.0167 31.644 31.7798 31.644 31.6183 31.6225C31.446 31.6009 31.5645 31.5794 31.8552 31.5794C32.1567 31.5794 32.286 31.6009 32.1567 31.6225ZM24.3711 31.7625C24.3711 31.8163 24.3172 31.8702 24.2526 31.8702C24.1988 31.8702 24.1772 31.8163 24.2095 31.7625C24.2418 31.6979 24.2957 31.6548 24.328 31.6548C24.3495 31.6548 24.3711 31.6979 24.3711 31.7625ZM23.7788 31.8702C23.7465 31.924 23.6496 31.9778 23.5849 31.9778C23.5096 31.9778 23.5203 31.9348 23.6173 31.8702C23.8219 31.7409 23.8649 31.7409 23.7788 31.8702ZM20.3328 32.0855C21.1189 32.2578 21.4097 32.4624 20.7097 32.3547C20.4405 32.3117 20.0313 32.1824 19.7944 32.0748C19.5575 31.9563 19.439 31.8809 19.5252 31.9132C19.6113 31.9348 19.9775 32.0102 20.3328 32.0855ZM25.3402 32.0209C25.3402 32.0425 25.2648 32.0963 25.1679 32.1286C25.0818 32.1609 25.0387 32.1501 25.071 32.0855C25.1356 31.9778 25.3402 31.9348 25.3402 32.0209Z" fill="#535F6A"/>
<path d="M15.8639 15.4481C15.6593 15.6958 15.7778 15.7281 16.0685 15.4912C16.2408 15.3512 16.2623 15.2866 16.1547 15.2866C16.0685 15.2866 15.9393 15.362 15.8639 15.4481Z" fill="#535F6A"/>
<path d="M12.8379 15.9327C12.7931 15.97 12.8362 16.0411 12.89 16.0187L12.9671 15.9865C13.1825 15.9112 13.4517 15.8573 13.5809 15.8896C13.6994 15.9219 13.8932 15.9004 14.0009 15.8358C14.1517 15.7496 14.0871 15.7281 13.6456 15.7173C13.2364 15.7173 13.021 15.7819 12.8379 15.9327Z" fill="#535F6A"/>
<path d="M12.041 16.2665C11.9333 16.428 12.041 16.4926 12.3318 16.4496C12.4129 16.439 12.4348 16.3318 12.3644 16.2902L12.3425 16.2773C12.181 16.1911 12.0841 16.1804 12.041 16.2665Z" fill="#535F6A"/>
<path d="M11.5564 16.5788C11.3733 16.6865 11.3841 16.708 11.8579 16.9449C12.1379 17.0849 12.2025 17.0957 12.2025 16.9772C12.2025 16.8372 11.8794 16.4711 11.761 16.4711C11.7395 16.4711 11.6425 16.5142 11.5564 16.5788Z" fill="#535F6A"/>
<path d="M16.0361 17.8926C15.9392 18.2695 15.9607 18.8187 16.0684 18.8941C16.2192 18.9802 16.5099 18.5064 16.4992 18.1941C16.4776 17.9464 16.4776 17.9464 16.4346 18.1618C16.413 18.3018 16.3484 18.4095 16.2946 18.4095C16.2407 18.4095 16.2407 18.2695 16.2946 18.0972C16.3807 17.7957 16.3484 17.6557 16.1761 17.6557C16.1438 17.6557 16.0792 17.7634 16.0361 17.8926Z" fill="#535F6A"/>
<path d="M13.1502 19.0125C13.1933 19.2494 13.5379 19.594 13.721 19.594C13.8932 19.594 13.6671 19.174 13.3979 18.9694L13.3112 18.9075C13.2348 18.8529 13.1311 18.9205 13.1502 19.0125Z" fill="#535F6A"/>
<path d="M13.7101 18.8401C13.7101 18.894 13.7641 18.9479 13.8287 18.9479C13.8827 18.9479 13.9042 18.894 13.8719 18.8401C13.8395 18.7754 13.7856 18.7322 13.7533 18.7322C13.7317 18.7322 13.7101 18.7754 13.7101 18.8401Z" fill="#535F6A"/>
<path d="M12.6549 19.8093C12.6872 19.9924 13.4302 20.3909 13.624 20.3262C13.6994 20.2939 13.5594 20.1432 13.3333 19.9816C12.9995 19.7447 12.9672 19.6909 13.1718 19.7555C13.8287 19.9278 13.8717 19.9278 13.5917 19.7663C13.2256 19.5509 12.6118 19.5832 12.6549 19.8093Z" fill="#535F6A"/>
<path d="M12.504 20.2401C12.8594 20.5632 13.064 20.6493 13.064 20.4662C13.064 20.3586 12.3963 19.917 12.2455 19.917C12.1917 19.917 12.3102 20.0678 12.504 20.2401Z" fill="#535F6A"/>
<path d="M12.2348 20.3693C12.3102 20.5955 12.2025 20.6278 12.0087 20.4339C11.9333 20.3585 11.8794 20.3478 11.8794 20.4124C11.8794 20.477 12.0302 20.6601 12.2025 20.8324C12.4394 21.0585 12.5579 21.1123 12.644 21.0262C12.8163 20.8539 12.7194 20.5524 12.4179 20.3585C12.181 20.197 12.1594 20.197 12.2348 20.3693Z" fill="#535F6A"/>
<path d="M13.1717 20.8861C13.1717 20.94 13.2256 20.9939 13.2903 20.9939C13.3442 20.9939 13.3658 20.94 13.3334 20.8861C13.3011 20.8214 13.2472 20.7783 13.2148 20.7783C13.1932 20.7783 13.1717 20.8214 13.1717 20.8861Z" fill="#535F6A"/>
<path d="M15.6162 20.9509C15.3793 21.1985 15.6593 22.3939 15.9608 22.3939C16.09 22.3939 16.1869 21.9739 16.0685 21.8985C16.0146 21.8662 16.0039 21.7262 16.0362 21.5754C16.0792 21.4139 16.0577 21.317 15.9823 21.317C15.9069 21.317 15.8208 21.2201 15.7777 21.1016C15.7346 20.9724 15.6593 20.9078 15.6162 20.9509Z" fill="#535F6A"/>
<path d="M16.413 21.0584C16.413 21.177 16.4453 21.2093 16.4777 21.1231C16.4806 21.1162 16.4832 21.1091 16.4855 21.1019C16.5236 20.9802 16.4014 20.9314 16.413 21.0584Z" fill="#535F6A"/>
<path d="M16.6285 21.1661C16.6285 21.2847 16.6608 21.317 16.6931 21.2307C16.6961 21.2238 16.6987 21.2168 16.701 21.2096C16.7391 21.0879 16.6169 21.0391 16.6285 21.1661Z" fill="#535F6A"/>
<path d="M13.8103 21.4132C13.6942 21.207 13.6176 21.2955 13.6911 21.5203C13.7287 21.6352 13.776 21.7668 13.8286 21.8985C14.0225 22.4369 14.0763 22.4907 14.3563 22.4692C14.5178 22.4584 14.6363 22.4261 14.6147 22.4046C14.5932 22.383 14.6255 22.2969 14.6901 22.2215C14.7763 22.1246 14.7009 21.9738 14.3994 21.64C13.9579 21.1554 13.8609 21.1447 14.0225 21.5754C14.184 21.9846 14.0763 21.92 13.8286 21.4462C13.8224 21.4349 13.8163 21.4239 13.8103 21.4132Z" fill="#535F6A"/>
<path d="M13.3872 21.7367C13.3872 21.8014 13.4411 21.8769 13.495 21.9092C13.5597 21.9416 13.6028 21.8985 13.6028 21.8122C13.6028 21.7152 13.5597 21.6397 13.495 21.6397C13.4411 21.6397 13.3872 21.6828 13.3872 21.7367Z" fill="#535F6A"/>
<path d="M17.2637 24.246C17.2637 24.3214 17.3176 24.4614 17.3714 24.5475C17.4576 24.6767 17.4791 24.6444 17.4791 24.4075C17.4791 24.246 17.436 24.1168 17.3714 24.1168C17.3176 24.1168 17.2637 24.1814 17.2637 24.246Z" fill="#535F6A"/>
<path d="M18.5022 26.4857C18.5345 26.5397 18.5885 26.5936 18.6208 26.5936C18.6424 26.5936 18.6639 26.5397 18.6639 26.4857C18.6639 26.4211 18.61 26.3779 18.5453 26.3779C18.4914 26.3779 18.4699 26.4211 18.5022 26.4857Z" fill="#535F6A"/>
<path d="M19.0945 27.272C19.0945 27.4335 19.4283 27.9935 19.5252 27.9935C19.5898 27.9935 19.6329 27.9504 19.6329 27.8966C19.6329 27.7673 19.1052 27.1535 19.0945 27.272Z" fill="#535F6A"/>
<path d="M45.555 13.2406V30.7594H42V13.2406H45.555ZM52.4279 20.7246V23.5401H44.5833V20.7246H52.4279ZM53.2574 13.2406V16.0682H44.5833V13.2406H53.2574Z" fill="#75818D"/>
<path d="M66.4108 27.9438V30.7594H57.7248V27.9438H66.4108ZM58.8743 13.2406V30.7594H55.3193V13.2406H58.8743Z" fill="#75818D"/>
<path d="M75.7011 16.2366L71.0086 30.7594H67.2284L73.6392 13.2406H76.0448L75.7011 16.2366ZM79.5997 30.7594L74.8953 16.2366L74.5161 13.2406H76.9454L83.3917 30.7594H79.5997ZM79.3864 24.238V27.0655H70.2739V24.238H79.3864Z" fill="#75818D"/>
<path d="M93.9737 26.1751C93.9737 25.8623 93.9263 25.5816 93.8315 25.3329C93.7446 25.0762 93.5787 24.8436 93.3338 24.635C93.0889 24.4184 92.7452 24.2059 92.3028 23.9973C91.8604 23.7888 91.2877 23.5722 90.5846 23.3476C89.8025 23.0909 89.0599 22.8021 88.3568 22.4813C87.6616 22.1604 87.0454 21.7874 86.5082 21.3623C85.9789 20.9291 85.5602 20.4278 85.2521 19.8583C84.9519 19.2888 84.8018 18.627 84.8018 17.873C84.8018 17.143 84.9598 16.4813 85.2758 15.8877C85.5918 15.2861 86.0342 14.7727 86.603 14.3476C87.1718 13.9144 87.8433 13.5816 88.6175 13.3489C89.3996 13.1163 90.2567 13 91.1889 13C92.4608 13 93.5708 13.2326 94.5188 13.6979C95.4668 14.1631 96.2015 14.8008 96.7228 15.611C97.2521 16.4211 97.5168 17.3476 97.5168 18.3904H93.9855C93.9855 17.877 93.8789 17.4278 93.6656 17.0428C93.4602 16.6497 93.1442 16.3409 92.7176 16.1163C92.2989 15.8917 91.7696 15.7794 91.1297 15.7794C90.5135 15.7794 90 15.8757 89.5892 16.0682C89.1784 16.2527 88.8703 16.5053 88.6649 16.8262C88.4595 17.139 88.3568 17.492 88.3568 17.885C88.3568 18.1818 88.4279 18.4505 88.5701 18.6912C88.7202 18.9318 88.9414 19.1564 89.2337 19.365C89.526 19.5735 89.8855 19.7701 90.312 19.9545C90.7386 20.139 91.2324 20.3195 91.7933 20.496C92.7334 20.7848 93.5589 21.1096 94.2699 21.4706C94.9888 21.8316 95.5892 22.2366 96.0711 22.6858C96.553 23.135 96.9164 23.6444 97.1613 24.2139C97.4062 24.7834 97.5286 25.4291 97.5286 26.1511C97.5286 26.9131 97.3825 27.5949 97.0902 28.1965C96.7979 28.7981 96.3752 29.3075 95.8223 29.7246C95.2693 30.1417 94.6096 30.4586 93.8433 30.6751C93.077 30.8917 92.2199 31 91.2719 31C90.4187 31 89.5774 30.8877 88.7479 30.6631C87.9184 30.4305 87.1639 30.0816 86.4845 29.6163C85.813 29.1511 85.2758 28.5575 84.8729 27.8356C84.47 27.1136 84.2686 26.2594 84.2686 25.2727H87.8354C87.8354 25.8182 87.9184 26.2794 88.0843 26.6564C88.2502 27.0334 88.4832 27.3382 88.7834 27.5709C89.0915 27.8035 89.4549 27.9719 89.8736 28.0762C90.3002 28.1805 90.7663 28.2326 91.2719 28.2326C91.8881 28.2326 92.3937 28.1444 92.7887 27.9679C93.1916 27.7914 93.4878 27.5468 93.6774 27.234C93.8749 26.9211 93.9737 26.5682 93.9737 26.1751Z" fill="#75818D"/>
<path d="M103.501 13.2406V30.7594H99.946V13.2406H103.501ZM113.834 13.2406L106.997 21.8917L103.051 26.1992L102.411 22.7821L105.077 19.0762L109.473 13.2406H113.834ZM109.793 30.7594L104.71 22.6618L107.34 20.4238L114 30.7594H109.793Z" fill="#75818D"/>
</svg>
