<svg width="45" height="44" viewBox="0 0 45 44" fill="none" xmlns="http://www.w3.org/2000/svg">
<path fill-rule="evenodd" clip-rule="evenodd" d="M22.5 0C10.0687 0 0 10.0687 0 22.5C0 32.4562 6.44062 40.8656 15.3844 43.8469C16.5094 44.0438 16.9312 43.3688 16.9312 42.7781C16.9312 42.2438 16.9031 40.4719 16.9031 38.5875C11.25 39.6281 9.7875 37.2094 9.3375 35.9437C9.08437 35.2969 7.9875 33.3 7.03125 32.7656C6.24375 32.3437 5.11875 31.3031 7.00313 31.275C8.775 31.2469 10.0406 32.9062 10.4625 33.5812C12.4875 36.9844 15.7219 36.0281 17.0156 35.4375C17.2125 33.975 17.8031 32.9906 18.45 32.4281C13.4437 31.8656 8.2125 29.925 8.2125 21.3187C8.2125 18.8719 9.08438 16.8469 10.5188 15.2719C10.2938 14.7094 9.50625 12.4031 10.7437 9.30937C10.7437 9.30937 12.6281 8.71875 16.9312 11.6156C18.7312 11.1094 20.6438 10.8562 22.5563 10.8562C24.4688 10.8562 26.3813 11.1094 28.1813 11.6156C32.4844 8.69063 34.3688 9.30937 34.3688 9.30937C35.6063 12.4031 34.8188 14.7094 34.5938 15.2719C36.0281 16.8469 36.9 18.8437 36.9 21.3187C36.9 29.9531 31.6406 31.8656 26.6344 32.4281C27.45 33.1312 28.1531 34.4813 28.1531 36.5906C28.1531 39.6 28.125 42.0188 28.125 42.7781C28.125 43.3688 28.5469 44.0719 29.6719 43.8469C34.1385 42.339 38.0199 39.4683 40.7695 35.6389C43.5192 31.8096 44.9988 27.2143 45 22.5C45 10.0687 34.9313 0 22.5 0Z" fill="#FF94A3"/>
</svg>
