<svg width="148" height="148" viewBox="0 0 148 148" fill="none" xmlns="http://www.w3.org/2000/svg">
<path d="M30.4315 44.081C28.1422 41.9548 27 39.3243 27 36.1944C27 33.0645 28.1422 30.3154 30.4315 28.1892C32.7209 26.0631 35.6678 25 39.2822 25C42.8967 25 45.725 26.0631 48.0093 28.1892C50.2987 30.3154 51.4409 32.9854 51.4409 36.1944C51.4409 39.4034 50.2987 41.9548 48.0093 44.081C45.72 46.2071 42.8126 47.2702 39.2822 47.2702C35.7518 47.2702 32.7209 46.2071 30.4315 44.081ZM49.5125 56.2742V121.428H28.9284V56.2742H49.5125Z" fill="#FF94A3"/>
<path d="M118.049 62.707C122.533 67.5774 124.778 74.2674 124.778 82.7819V120.281H105.223V85.4272C105.223 81.1353 104.11 77.7978 101.885 75.4195C99.66 73.0411 96.6686 71.8544 92.9107 71.8544C89.1529 71.8544 86.1614 73.0461 83.9364 75.4195C81.7114 77.7978 80.5988 81.1353 80.5988 85.4272V120.281H60.9294V56.0962H80.5988V64.6107C82.5915 61.7725 85.2764 59.5327 88.6535 57.8812C92.0257 56.2347 95.823 55.4089 100.041 55.4089C107.556 55.4089 113.559 57.8465 118.044 62.712L118.049 62.707Z" fill="#FF94A3"/>
<rect x="4" y="4" width="140" height="140" rx="11" stroke="#FF94A3" stroke-width="8"/>
</svg>
