<svg width="25" height="24" viewBox="0 0 25 24" fill="none" xmlns="http://www.w3.org/2000/svg">
<g clip-path="url(#clip0_2_183466)">
<path d="M12.5 16.5C11.7252 16.5 10.9503 16.2458 10.2894 15.7308L0.5 8.11875V18.75C0.5 19.9922 1.50734 21 2.75 21H22.25C23.4927 21 24.5 19.9927 24.5 18.75V8.11875L14.7125 15.7359C14.0516 16.2469 13.2734 16.5 12.5 16.5ZM1.26359 6.81094L11.2105 14.55C11.9694 15.1406 13.0325 15.1406 13.7914 14.55L23.7383 6.81094C24.1766 6.43594 24.5 5.85938 24.5 5.25C24.5 4.00734 23.4922 3 22.25 3H2.75C1.50734 3 0.5 4.00734 0.5 5.25C0.5 5.85938 0.781719 6.43594 1.26359 6.81094Z" fill="white"/>
</g>
<defs>
<clipPath id="clip0_2_183466">
<rect width="24" height="24" fill="white" transform="translate(0.5)"/>
</clipPath>
</defs>
</svg>
