<svg width="128" height="45" viewBox="0 0 128 45" fill="none" xmlns="http://www.w3.org/2000/svg">
<rect x="0.401306" width="127.594" height="44.8681" rx="5" fill="#D8F0FF"/>
<path fill-rule="evenodd" clip-rule="evenodd" d="M29.3813 28.1247C29.9761 28.5808 29.7718 29.0006 29.0266 29.0816C28.4237 29.1471 27.8984 29.2755 27.4259 29.4796C27.3587 29.5068 27.2801 29.5263 27.2013 29.5473C26.8513 29.6405 26.8431 30.0813 27.0355 30.3883C27.2226 30.7069 27.5505 31.1365 27.8483 31.3601C28.1767 31.6151 28.5053 31.8692 28.85 32.0923C29.4596 32.4764 30.1481 32.6986 30.7417 33.0811C31.0869 33.3039 31.43 33.5904 31.7752 33.8301C31.9369 33.9504 32.0427 34.1419 32.2389 34.2295C32.2563 34.2373 32.2752 34.2241 32.2752 34.205C32.2752 34.199 32.2732 34.1931 32.2695 34.1882C32.1861 34.0757 32.1488 33.9258 32.0844 33.7903C32.0499 33.7177 31.9969 33.6563 31.9397 33.6C31.8816 33.5427 31.8234 33.4866 31.7651 33.4303C31.6245 33.2942 31.4993 33.1434 31.377 32.9907C30.9573 32.4665 30.4602 32.0047 29.9291 31.6151C29.4292 31.2645 28.3376 30.7879 28.1313 30.2017C28.1304 30.199 28.1289 30.1965 28.1269 30.1944C28.1154 30.1825 28.1227 30.1625 28.1391 30.1607C28.4743 30.1228 28.8628 30.0012 29.178 29.9083C29.7093 29.7653 30.1941 29.7977 30.7417 29.655C30.9629 29.598 31.1841 29.5289 31.4058 29.4595C31.4584 29.4431 31.4942 29.3944 31.4942 29.3393C31.4942 29.3061 31.481 29.2744 31.4582 29.2503C31.1935 28.9689 30.9956 28.6067 30.7113 28.3478C29.9142 27.6467 29.0371 26.9619 28.1299 26.3875C27.6443 26.0688 27.0186 25.8626 26.5023 25.591C26.3154 25.4951 26.0028 25.448 25.8929 25.2878C25.6111 24.9373 25.4541 24.4759 25.2512 24.0607C24.798 23.1853 24.3592 22.2134 23.9688 21.2879C23.6872 20.6668 23.5153 20.0458 23.1709 19.4716C21.5588 16.7622 19.8074 15.1216 17.117 13.5118C16.6393 13.2354 16.0873 13.0895 15.4962 12.9484C15.243 12.8879 14.984 12.853 14.7241 12.8378C14.2072 12.8075 13.7286 12.6397 13.3262 12.3138C13.2906 12.2851 13.2558 12.2588 13.2216 12.2365C12.3296 11.6631 10.0312 10.4202 9.37393 12.0613C8.95145 13.0978 9.99962 14.1173 10.3593 14.6433C10.625 15.0094 10.9697 15.4242 11.1566 15.838C11.2662 16.109 11.2975 16.3964 11.4074 16.6826C11.6574 17.3838 11.8919 18.165 12.2211 18.8187C12.3925 19.1532 12.5799 19.5043 12.7989 19.8055C13.0543 20.162 13.0515 20.558 12.96 20.9869C12.92 21.1741 12.8859 21.3666 12.8305 21.5433C12.2676 23.3444 12.4861 25.5752 13.2842 26.8976C13.534 27.2961 14.1292 28.1727 14.9271 27.8374C15.6308 27.5511 15.4744 26.6427 15.6776 25.8462C15.7214 25.6661 15.6968 25.5442 15.77 25.4248C15.775 25.4168 15.7867 25.4205 15.7867 25.4299C15.7867 25.4314 15.787 25.4329 15.7877 25.4342C16.0064 25.8791 16.2255 26.3078 16.4284 26.7546C16.914 27.5347 17.7579 28.3475 18.4625 28.889C18.8297 29.1715 19.1231 29.6513 19.5771 29.8356C19.5899 29.8407 19.6037 29.8312 19.6037 29.8175C19.6037 29.8066 19.5947 29.7977 19.5838 29.7977C19.5771 29.7977 19.5707 29.7943 19.5669 29.7888C19.4726 29.652 19.3355 29.5884 19.213 29.4796C18.9315 29.1925 18.6194 28.8416 18.3994 28.5232C17.7426 27.6312 17.163 26.6427 16.648 25.6229C16.3969 25.1277 16.1784 24.5864 15.9749 24.0926C15.8175 23.7727 15.5543 23.7422 15.3329 24.0217C15.1935 24.1977 15.0616 24.3835 14.9741 24.6017C14.6812 25.2775 14.6465 26.107 14.5402 26.9696C14.5373 26.9934 14.5114 27.006 14.4917 27.0197C14.4747 27.0314 14.4605 27.0376 14.4407 27.0317C13.9655 26.8902 13.797 26.3777 13.6128 25.9429C13.1436 24.8098 13.0647 22.993 13.4722 21.6864C13.5413 21.4744 13.7561 20.9732 13.8556 20.5538C13.9451 20.1767 13.7994 19.7871 13.5199 19.5185C13.4342 19.4362 13.3492 19.355 13.2842 19.2643C13.0813 18.9617 12.8612 18.5798 12.7216 18.2445C12.3459 17.3524 12.1574 16.3639 11.7518 15.4719C11.5638 15.057 11.2347 14.6267 10.9697 14.2448C10.6718 13.8144 10.3437 13.5121 10.1087 13.0027C10.0469 12.8624 9.96463 12.6514 9.99705 12.475C10.0133 12.3864 10.0451 12.2926 10.1048 12.2252C10.1861 12.1335 10.3159 12.0898 10.438 12.0785C10.6968 12.0547 11.0905 12.2091 11.2505 12.2844C11.8296 12.5228 12.3147 12.7472 12.7989 13.0811C12.9729 13.2078 13.1567 13.4246 13.3656 13.5488C13.471 13.6115 13.5962 13.6237 13.7188 13.6237C13.8147 13.6237 13.9102 13.6355 14.005 13.6502C14.468 13.7216 14.971 13.6683 15.3966 13.7989C16.2252 14.0696 16.9758 14.4679 17.6491 14.8982C19.6975 16.2209 21.3872 18.1018 22.5286 20.3484C22.7166 20.7145 22.7955 21.0495 22.9674 21.4311C23.296 22.2134 23.703 23.0101 24.0308 23.7745C24.3592 24.5235 24.6726 25.2878 25.1426 25.91C25.3766 26.2442 26.3154 26.4193 26.7379 26.595C27.0502 26.738 27.5357 26.8655 27.8176 27.0406C28.3491 27.3748 28.8799 27.7578 29.3813 28.1247Z" fill="#5D87A1"/>
<path d="M41.9081 12.4746H44.9356L49.3933 24.7902L53.8511 12.4746H56.8786L50.6091 29.2487H48.1776L41.9081 12.4746ZM40.2752 12.4746H43.2907L43.839 24.4792V29.2487H40.2752V12.4746ZM55.4959 12.4746H58.5234V29.2487H54.9477V24.4792L55.4959 12.4746Z" fill="#529DC8"/>
<path d="M63.7082 12.4746L67.3316 20.1243L70.9551 12.4746H74.8526L69.1433 23.1428V29.2487H65.5199V23.1428L59.7987 12.4746H63.7082Z" fill="#529DC8"/>
<path d="M85.2818 24.8593C85.2818 24.5598 85.2342 24.291 85.1388 24.0529C85.0514 23.8071 84.8845 23.5844 84.6382 23.3847C84.3919 23.1773 84.0462 22.9738 83.6012 22.7741C83.1563 22.5744 82.5802 22.367 81.873 22.152C81.0863 21.9062 80.3394 21.6297 79.6322 21.3225C78.9329 21.0153 78.3131 20.6581 77.7728 20.2511C77.2404 19.8363 76.8193 19.3563 76.5094 18.811C76.2074 18.2656 76.0564 17.632 76.0564 16.91C76.0564 16.2111 76.2154 15.5775 76.5332 15.0091C76.851 14.4331 77.296 13.9415 77.8681 13.5345C78.4403 13.1197 79.1157 12.801 79.8944 12.5782C80.6811 12.3555 81.5432 12.2441 82.4809 12.2441C83.7602 12.2441 84.8766 12.4669 85.8301 12.9123C86.7837 13.3578 87.5226 13.9684 88.0471 14.7441C88.5795 15.5199 88.8457 16.407 88.8457 17.4054H85.2938C85.2938 16.9139 85.1865 16.4838 84.9719 16.1151C84.7654 15.7388 84.4475 15.4431 84.0184 15.228C83.5973 15.013 83.0649 14.9054 82.4213 14.9054C81.8015 14.9054 81.285 14.9976 80.8718 15.1819C80.4586 15.3586 80.1487 15.6005 79.9421 15.9077C79.7355 16.2073 79.6322 16.5452 79.6322 16.9216C79.6322 17.2057 79.7037 17.463 79.8467 17.6934C79.9977 17.9239 80.2202 18.1389 80.5142 18.3386C80.8082 18.5383 81.1697 18.7265 81.5988 18.9031C82.0279 19.0798 82.5246 19.2526 83.0887 19.4216C84.0343 19.6981 84.8647 20.0091 85.5798 20.3547C86.3029 20.7004 86.9068 21.0882 87.3915 21.5183C87.8762 21.9484 88.2418 22.4362 88.4881 22.9815C88.7344 23.5268 88.8576 24.1451 88.8576 24.8363C88.8576 25.566 88.7106 26.2188 88.4166 26.7948C88.1226 27.3709 87.6975 27.8586 87.1412 28.258C86.585 28.6574 85.9215 28.9607 85.1507 29.1681C84.38 29.3755 83.5178 29.4792 82.5643 29.4792C81.7061 29.4792 80.8598 29.3716 80.0255 29.1566C79.1912 28.9338 78.4323 28.5997 77.749 28.1543C77.0735 27.7088 76.5332 27.1405 76.128 26.4492C75.7227 25.758 75.5201 24.94 75.5201 23.9953H79.1077C79.1077 24.5176 79.1912 24.9592 79.358 25.3202C79.5249 25.6812 79.7593 25.973 80.0613 26.1958C80.3712 26.4185 80.7367 26.5798 81.1578 26.6796C81.5869 26.7795 82.0557 26.8294 82.5643 26.8294C83.1841 26.8294 83.6926 26.7449 84.0899 26.5759C84.4952 26.407 84.7932 26.1727 84.9839 25.8732C85.1825 25.5736 85.2818 25.2357 85.2818 24.8593Z" fill="#529DC8"/>
<path d="M100.717 26.7603L105.413 30.3547L103.161 32.2441L98.5359 28.6497L100.717 26.7603ZM105.532 20.4699V21.2649C105.532 22.5398 105.354 23.6842 104.996 24.6981C104.646 25.7119 104.142 26.5759 103.482 27.2902C102.823 27.9968 102.044 28.5383 101.146 28.9146C100.248 29.291 99.2511 29.4792 98.1545 29.4792C97.0659 29.4792 96.0687 29.291 95.1628 28.9146C94.257 28.5383 93.4743 27.9968 92.8147 27.2902C92.1552 26.5759 91.6427 25.7119 91.2772 24.6981C90.9196 23.6842 90.7408 22.5398 90.7408 21.2649V20.4699C90.7408 19.1873 90.9196 18.0429 91.2772 17.0368C91.6427 16.0229 92.1512 15.1589 92.8028 14.4446C93.4544 13.7303 94.2331 13.185 95.139 12.8087C96.0448 12.4323 97.0421 12.2441 98.1307 12.2441C99.2272 12.2441 100.224 12.4323 101.122 12.8087C102.028 13.185 102.811 13.7303 103.47 14.4446C104.13 15.1589 104.639 16.0229 104.996 17.0368C105.354 18.0429 105.532 19.1873 105.532 20.4699ZM101.921 21.2649V20.4469C101.921 19.556 101.834 18.7726 101.659 18.0967C101.492 17.4208 101.246 16.8524 100.92 16.3916C100.602 15.9308 100.209 15.5852 99.7397 15.3547C99.2709 15.1166 98.7346 14.9976 98.1307 14.9976C97.5268 14.9976 96.9904 15.1166 96.5216 15.3547C96.0528 15.5852 95.6594 15.9308 95.3416 16.3916C95.0238 16.8524 94.7814 17.4208 94.6145 18.0967C94.4477 18.7726 94.3642 19.556 94.3642 20.4469V21.2649C94.3642 22.1481 94.4477 22.9315 94.6145 23.6151C94.7814 24.291 95.0238 24.8632 95.3416 25.3317C95.6674 25.7925 96.0647 26.142 96.5335 26.3801C97.0103 26.6182 97.5506 26.7372 98.1545 26.7372C98.7584 26.7372 99.2908 26.6182 99.7517 26.3801C100.22 26.142 100.614 25.7925 100.932 25.3317C101.257 24.8632 101.504 24.291 101.671 23.6151C101.838 22.9315 101.921 22.1481 101.921 21.2649Z" fill="#529DC8"/>
<path d="M119.275 26.5529V29.2487H110.538V26.5529H119.275ZM111.695 12.4746V29.2487H108.119V12.4746H111.695Z" fill="#529DC8"/>
</svg>
