<svg width="19" height="24" viewBox="0 0 19 24" fill="none" xmlns="http://www.w3.org/2000/svg">
<g clip-path="url(#clip0_2_183750)">
<path d="M9.125 9.75C9.125 9.54347 8.95653 9.375 8.75 9.375C8.54347 9.375 8.375 9.54375 8.375 9.75C8.375 9.84666 8.38892 10.8427 8.80348 12.1055C8.89531 11.7 9.125 10.6031 9.125 9.75ZM12.5 0V6H18.5L12.5 0ZM4.25 19.8C4.25 20.2526 4.74078 20.3611 4.92406 20.0988C5.15328 19.7766 5.6 19.125 6.12969 18.2156C5.46312 18.5892 4.85234 19.027 4.3475 19.5427C4.28516 19.6078 4.25 19.7016 4.25 19.8ZM11 6V0H2.75C1.50734 0 0.5 1.00734 0.5 2.25V21.75C0.5 22.9922 1.50734 24 2.75 24H16.25C17.4927 24 18.5 22.9927 18.5 21.75V7.5H12.5422C11.6703 7.5 11 6.82969 11 6ZM14.1875 14.625C15.3247 14.625 16.25 15.5503 16.25 16.6875C16.25 17.8439 15.3622 18.75 14.2283 18.75C13.9473 18.75 13.6747 18.7053 13.4211 18.6185C12.4808 18.3017 11.622 17.8704 10.8641 17.3346C9.74469 17.5741 8.73312 17.8746 7.84953 18.2299C7.17312 19.4632 6.55437 20.3932 6.14469 20.9679C5.75469 21.4594 5.225 21.75 4.62219 21.75C3.59 21.75 2.75 20.9109 2.75 19.8797C2.75 19.3209 2.92531 18.8569 3.27406 18.4964C4.0325 17.722 5.02578 17.0438 6.22812 16.4784C6.77891 15.4083 7.25656 14.3203 7.64984 13.2375C6.88438 11.3625 6.875 9.76875 6.875 9.75C6.875 8.71641 7.71641 7.875 8.75 7.875C9.78406 7.875 10.625 8.71641 10.625 9.75C10.625 10.8797 10.2862 12.3633 10.206 12.6858C10.1589 12.8392 10.1106 12.9912 10.0616 13.1415C10.4286 13.8194 10.8912 14.417 11.4416 14.9251C12.8328 14.6906 13.8266 14.6297 13.9813 14.625H14.1875ZM7.83594 16.6219C8.67875 16.3172 9.52953 16.0856 10.3166 15.9098C9.73438 15.3445 9.27734 14.7323 8.91969 14.1211C8.57656 15.0281 8.20625 15.8672 7.83594 16.6219ZM14.2297 17.25C14.5156 17.25 14.75 17.0156 14.75 16.7297C14.75 16.3781 14.4969 16.125 14.1875 16.125H14C13.9839 16.1265 13.2111 16.1704 12.0805 16.3477C12.6088 16.6758 13.2111 16.9659 13.9011 17.197C14 17.2312 14.1172 17.25 14.2297 17.25Z" fill="black"/>
</g>
<defs>
<clipPath id="clip0_2_183750">
<rect width="18" height="24" fill="white" transform="translate(0.5)"/>
</clipPath>
</defs>
</svg>
