<svg width="158" height="45" viewBox="0 0 158 45" fill="none" xmlns="http://www.w3.org/2000/svg">
<rect x="0.401306" width="157.038" height="44.8681" rx="5" fill="#DFF9FF"/>
<path d="M27.4156 10.5255C27.4155 10.5256 27.4152 10.5257 27.415 10.5257C26.4629 10.5152 25.6309 10.6258 25.0195 10.7476C24.7137 10.8084 24.4599 10.8708 24.2762 10.9219C24.2333 10.9337 24.1902 10.9419 24.1463 10.9349C23.5988 10.8481 23.0175 10.7889 22.3781 10.7792C21.9581 10.7728 21.5571 10.8001 21.1766 10.8569C19.8189 11.0595 18.4112 11.2406 17.057 11.0156C16.3134 10.892 15.4698 10.8147 14.6048 10.8585C13.2926 10.9249 11.8547 11.2949 10.7933 12.34C9.7318 13.3851 9.17264 15.004 9.29078 17.2044C9.32338 17.8116 9.50436 18.7983 9.81271 20.0802C10.1211 21.3622 10.5533 22.8701 11.0938 24.2396C11.6343 25.6092 12.2255 26.8411 13.1498 27.678C13.612 28.0964 14.2496 28.4444 15.0003 28.4148C15.2672 28.4042 15.522 28.3447 15.7619 28.2475C16.1534 28.0888 16.6404 28.1278 17.0168 28.3197C17.2619 28.4447 17.5053 28.5236 17.7522 28.5812C18.1956 28.6845 18.9504 28.8258 19.8398 28.6841C20.3101 28.6092 20.7999 28.9135 20.8204 29.3893C20.865 30.4247 20.8898 31.3859 21.2237 32.2255C21.2778 32.3615 21.4269 33.0676 22.0066 33.6912C22.5862 34.3149 23.7255 34.7022 25.0195 34.4439C25.9311 34.2619 27.088 33.9366 27.8584 32.9148C28.6206 31.9039 28.969 30.4557 29.0367 28.1058C29.0454 28.0409 29.0543 27.9795 29.0636 27.9215C29.078 27.8323 29.1603 27.772 29.2502 27.781H29.2976C30.2714 27.8222 31.3252 27.6954 32.2077 27.3135C32.9895 26.9756 33.5803 26.6348 34.0107 26.03C34.1183 25.8789 34.2396 25.6924 34.2717 25.3804C34.3037 25.0684 34.1165 24.5844 33.7972 24.3584C33.1586 23.9064 32.7575 24.0774 32.3263 24.1603C31.7767 24.266 31.4265 23.6772 31.6996 23.1887C32.5962 21.5847 33.2597 19.9463 33.6706 18.4642C33.9704 17.3831 34.1386 16.3882 34.153 15.5169C34.168 14.6453 34.0891 13.8699 33.5288 13.2031C31.7782 11.1192 29.3209 10.5465 27.4162 10.5253C27.416 10.5253 27.4158 10.5254 27.4156 10.5255ZM27.1861 11.1595C28.9878 11.1439 31.2908 11.6171 32.9431 13.5838C33.3147 14.0263 33.4228 14.6738 33.4097 15.4694C33.3965 16.2651 33.2399 17.2162 32.951 18.2582C32.4041 20.2306 31.3843 22.5202 29.9509 24.5927C29.8917 24.6783 29.9122 24.7966 30.0093 24.834C30.3199 24.9538 31.0287 25.0588 32.4449 24.7865C32.8013 24.7179 33.0674 24.6657 33.3385 24.8578C33.474 24.9539 33.5505 25.1466 33.5362 25.2856C33.5218 25.4246 33.462 25.5304 33.3938 25.6263C33.1209 26.0097 32.5753 26.3728 31.8834 26.6721C31.2697 26.9374 30.3944 27.076 29.6139 27.084C29.2236 27.088 28.8604 27.0538 28.5542 26.9652C28.5502 26.964 28.5459 26.9688 28.5454 26.9729C28.4171 28.0914 28.1372 30.1612 27.969 31.0692C27.8265 31.8394 27.5808 32.4486 27.1071 32.9073C26.6334 33.366 25.9675 33.6464 25.0669 33.8263C23.9529 34.0486 23.1392 33.8094 22.6154 33.3985C22.0917 32.9875 21.8493 32.4408 21.706 32.1071C21.607 31.8763 21.5574 31.578 21.5083 31.1801C21.4592 30.7822 21.4229 30.2954 21.3976 29.7462C21.3878 29.5329 21.3797 29.3103 21.3734 29.0802C21.3535 28.3539 20.4149 27.873 19.6974 27.9874C18.958 28.1052 18.2966 27.9842 17.9024 27.8923C17.7185 27.8495 17.5295 27.7863 17.3488 27.6942C17.1682 27.6021 16.9915 27.5004 16.8743 27.2981C16.8158 27.1969 16.7768 27.0562 16.8111 26.9178C16.8453 26.7794 16.9419 26.6659 17.0483 26.5851C17.2612 26.4234 17.5407 26.3339 17.9656 26.2523C18.7366 26.1044 19.0024 26.0026 19.1676 25.8799C19.3086 25.7753 19.4527 25.5827 19.7437 25.264C19.7494 25.2578 19.7524 25.2493 19.7504 25.241C19.7468 25.226 19.7332 25.2142 19.7178 25.2137C19.445 25.2053 19.1808 25.1636 18.9277 25.0928C18.5524 24.9877 18.1341 25.0395 17.8603 25.3169C17.4902 25.6919 16.9423 26.2618 16.3287 26.9495C15.9082 27.4205 15.4443 27.6906 14.9527 27.7101C14.4611 27.7295 14.0175 27.4973 13.64 27.1555C12.8854 26.4718 12.2747 25.2988 11.7505 23.9705C11.2262 22.6418 10.8041 21.1661 10.501 19.9061C10.198 18.6461 10.0212 17.6304 9.99493 17.1411C9.8831 15.0584 10.4024 13.6534 11.2997 12.7677C12.1971 11.8822 13.4301 11.5483 14.6288 11.4843C14.9285 11.4683 15.2279 11.4635 15.5224 11.4764C15.9949 11.4971 16.4493 11.5489 16.8696 11.6164C18.3951 11.8617 20.0027 11.6064 21.5396 11.447C21.7939 11.4206 22.0603 11.4088 22.3391 11.413C22.9849 11.4229 23.5783 11.5031 24.1327 11.6309C24.1439 11.6334 24.1551 11.6312 24.1658 11.6269C24.1762 11.6228 24.1887 11.6221 24.1974 11.619C24.232 11.6066 24.2798 11.5917 24.3476 11.5715C24.4833 11.531 24.6937 11.472 24.9645 11.413C25.506 11.2951 26.2857 11.1673 27.1866 11.1595L27.1861 11.1595ZM27.194 11.8329C27.194 11.8329 27.194 11.8329 27.194 11.8329C26.9516 11.835 26.7183 11.8461 26.4968 11.8634C26.1594 11.8898 26.0953 12.3522 26.3858 12.5259C27.2331 13.0323 27.9092 13.6557 28.4277 14.2731C29.0136 14.9709 29.4007 15.6681 29.6376 16.1983C29.756 16.4634 29.8375 16.6825 29.8827 16.8559C29.9053 16.9426 29.9177 17.0157 29.9222 17.0935C29.9245 17.1325 29.9316 17.1693 29.9143 17.2361C29.9102 17.2522 29.9067 17.2685 29.9072 17.2851C29.9321 18.1438 29.7054 18.7321 29.6771 19.5575C29.656 20.1637 29.8178 20.8797 29.859 21.6569C29.8968 22.3707 29.8123 23.1518 29.333 23.9224C29.3123 23.9556 29.3158 23.9992 29.3417 24.0285C29.3797 24.0715 29.4477 24.0666 29.4798 24.0189C30.7919 22.0686 31.7468 19.9251 32.2551 18.0919C32.5332 17.0889 32.678 16.1816 32.69 15.4616C32.7019 14.7416 32.5566 14.2137 32.3737 13.9959C30.8858 12.2249 28.8589 11.8184 27.194 11.8329C27.194 11.8329 27.194 11.8329 27.194 11.8329ZM22.3305 12.0864C22.3306 12.0864 22.3306 12.0865 22.3305 12.0865C21.0996 12.0677 20.1991 12.3736 19.5077 12.855C19.4495 12.8955 19.3889 12.9389 19.3337 12.9817C18.6214 13.5342 18.1453 14.2899 17.8312 15.0654C17.4683 15.9613 17.3317 16.8576 17.2792 17.4643C17.2785 17.472 17.2867 17.4774 17.2935 17.4738C17.6771 17.2749 18.1857 17.0747 18.7248 16.9589C18.9943 16.901 19.2689 16.8637 19.5472 16.8638C19.8255 16.8639 20.1063 16.9038 20.3696 16.9985C20.8963 17.1879 21.3271 17.6352 21.4846 18.3136C22.2403 21.5693 21.249 22.7783 20.8836 23.693C20.8834 23.6936 20.8838 23.7004 20.8836 23.7009C20.7543 24.0256 20.6426 24.3193 20.5668 24.5744C20.5479 24.6379 20.604 24.6887 20.6701 24.6833C20.9279 24.6624 21.1273 24.7479 21.2474 24.7943C21.6144 24.936 21.871 25.23 22.0065 25.5707C22.0395 25.6536 22.0608 25.743 22.0765 25.8332C22.0773 25.8377 22.0778 25.8424 22.0778 25.847C22.0778 25.8529 22.0781 25.8589 22.0803 25.8643C22.0808 25.8655 22.0813 25.8667 22.0818 25.8679C22.085 25.8755 22.087 25.8836 22.0893 25.8915C22.0978 25.9212 22.1019 25.9519 22.1014 25.9826C22.0615 27.3108 22.0676 28.6452 22.1172 29.722C22.142 30.2604 22.1819 30.7349 22.228 31.1084C22.274 31.4819 22.337 31.7651 22.3782 31.8611C22.5155 32.1808 22.7189 32.5982 23.082 32.8831C23.4451 33.168 23.9652 33.3582 24.9166 33.1683C25.7415 33.0036 26.2455 32.7762 26.5852 32.4473C26.9248 32.1184 27.1275 31.6597 27.2573 30.9579C27.4462 29.9387 27.822 27.0548 27.8866 26.3611C27.889 26.3348 27.8912 26.3099 27.89 26.2836C27.8898 26.2783 27.8898 26.273 27.89 26.2677C27.8719 25.8454 27.9414 25.5192 28.0877 25.2695C28.2406 25.0083 28.476 24.8483 28.6807 24.7625C28.8096 24.7084 28.8667 24.555 28.7777 24.4473C28.7524 24.4166 28.7253 24.3843 28.6966 24.3505C28.4781 24.0935 28.1951 23.7418 27.9769 23.2492C27.9536 23.1967 27.8431 23.0049 27.7002 22.766C27.5572 22.5271 27.3829 22.2241 27.1941 21.8866C26.8165 21.2116 26.4031 20.3936 26.1898 19.5969C25.9765 18.8003 25.9441 17.9766 26.4903 17.3945C26.9282 16.9277 27.661 16.7081 28.7393 16.7592C28.9045 16.767 29.0408 16.6027 28.9733 16.4517C28.76 15.9741 28.3898 15.3353 27.8504 14.6929C26.7711 13.4081 25.0294 12.1276 22.3306 12.0863C22.3305 12.0863 22.3305 12.0864 22.3305 12.0864ZM15.2372 12.1418C15.2372 12.1419 15.2372 12.1419 15.2371 12.1419C15.0465 12.1381 14.8589 12.1397 14.668 12.1499C13.5833 12.2078 12.5549 12.5034 11.8212 13.2273C11.0875 13.9514 10.6086 15.1364 10.7141 17.1014C10.734 17.4731 10.9065 18.5172 11.2043 19.7554C11.5022 20.9936 11.922 22.4531 12.4301 23.7405C12.9381 25.0278 13.5527 26.1496 14.1382 26.6797C14.4309 26.9448 14.6885 27.0454 14.921 27.0362C15.1535 27.027 15.433 26.9044 15.7751 26.5213C16.7726 25.4034 16.5349 23.5514 16.4328 22.0567C16.4165 21.8182 16.4257 21.5731 16.4631 21.3241C16.5739 20.5856 16.587 19.8899 16.5738 19.3434C16.5618 18.8455 16.5316 18.5116 16.5265 18.2878C16.5264 18.2837 16.5259 18.2798 16.525 18.2759C16.5216 18.2595 16.5195 18.243 16.5187 18.2263C16.5185 18.2219 16.5185 18.2149 16.5184 18.2105C16.5178 18.1879 16.4749 16.516 17.159 14.8275C17.2255 14.6632 17.299 14.4986 17.3805 14.3351C17.7783 13.5369 17.4893 12.4026 16.6079 12.2663C16.1719 12.1989 15.7071 12.151 15.2373 12.1417C15.2373 12.1417 15.2372 12.1417 15.2372 12.1418ZM28.2457 17.4263C27.6053 17.4547 27.2356 17.6254 27.0359 17.8383C26.7314 18.1627 26.7054 18.7361 26.8935 19.4387C27.0816 20.1412 27.469 20.9242 27.8345 21.5778C28.0173 21.9045 28.1893 22.2017 28.3327 22.4413C28.4761 22.6809 28.585 22.8512 28.6491 22.9959C28.7216 23.1598 28.9413 23.1516 28.9979 22.9816C29.1403 22.5542 29.1626 22.1283 29.1393 21.6887C29.1022 20.9861 28.9321 20.2622 28.9575 19.5337C28.9768 18.9674 29.0652 18.5384 29.1265 18.121C29.1802 17.7562 28.907 17.4331 28.5384 17.4263C28.4356 17.4244 28.3373 17.4223 28.2458 17.4263L28.2457 17.4263ZM19.5473 17.5372C19.5473 17.5372 19.5472 17.5372 19.5472 17.5372C19.3383 17.5371 19.1102 17.5676 18.883 17.6165C18.4285 17.7141 17.977 17.8902 17.6494 18.0601C17.4856 18.1451 17.3479 18.2307 17.2698 18.2899C17.2529 18.3027 17.2465 18.3259 17.2477 18.3472C17.2567 18.5096 17.2898 18.8435 17.3014 19.3278C17.3152 19.8981 17.301 20.6322 17.1828 21.4193C16.9907 22.699 17.6886 23.8147 18.7081 24.2961C19.322 24.5859 19.9604 24.094 20.2115 23.4633C20.648 22.3692 21.5041 21.5717 20.7809 18.4563C20.6628 17.9475 20.4305 17.7401 20.1088 17.6244C19.9479 17.5665 19.7563 17.5374 19.5473 17.5373C19.5473 17.5373 19.5473 17.5373 19.5473 17.5372ZM28.1037 17.7432C28.1037 17.7432 28.1037 17.7432 28.1037 17.7432C28.1744 17.7448 28.2361 17.7543 28.2935 17.767C28.3509 17.7797 28.4034 17.7965 28.4437 17.8224C28.484 17.8484 28.5158 17.8866 28.5228 17.9334C28.5231 17.9357 28.5226 17.939 28.5228 17.9413C28.5275 17.9874 28.5093 18.029 28.4833 18.076C28.4559 18.1253 28.4152 18.177 28.3646 18.2265C28.2634 18.3255 28.1234 18.4185 27.9534 18.4404C27.7837 18.4624 27.625 18.4096 27.5106 18.3374C27.4534 18.3013 27.4039 18.2598 27.3682 18.2186C27.3326 18.1773 27.3117 18.1365 27.305 18.0918C27.2982 18.0451 27.3212 18.0003 27.3524 17.9651C27.3836 17.9298 27.4195 17.8968 27.471 17.87C27.5741 17.8163 27.7164 17.7796 27.8743 17.7591C27.9533 17.7488 28.0329 17.7416 28.1036 17.7432C28.1037 17.7432 28.1037 17.7432 28.1037 17.7432ZM19.5948 17.9096C19.669 17.9079 19.75 17.9148 19.8321 17.9254C19.9964 17.9467 20.1391 17.9859 20.2512 18.0443C20.3072 18.0734 20.3554 18.112 20.3935 18.1552C20.4316 18.1983 20.4587 18.2556 20.4489 18.3216C20.4396 18.3836 20.4097 18.4259 20.3698 18.4721C20.3299 18.5183 20.2815 18.5676 20.2195 18.6068C20.0955 18.6851 19.925 18.7421 19.7372 18.7177C19.5491 18.6934 19.3949 18.594 19.2864 18.4879C19.2322 18.4349 19.1905 18.3766 19.1599 18.3216C19.1293 18.2665 19.1018 18.2173 19.1124 18.1473L19.1249 18.0725C19.1268 18.0608 19.137 18.0522 19.1488 18.0522C19.1559 18.0522 19.1625 18.0491 19.1673 18.044C19.1839 18.0265 19.2053 18.0082 19.2232 17.9967C19.2724 17.965 19.3268 17.9471 19.3892 17.9334C19.4517 17.9196 19.5206 17.9113 19.5948 17.9096H19.5948ZM29.377 25.2616C29.377 25.2616 29.377 25.2616 29.377 25.2616C29.2187 25.3136 29.0905 25.3348 28.9816 25.3805C28.8727 25.4262 28.7902 25.4756 28.7206 25.5944C28.6651 25.6892 28.6146 25.8439 28.6078 26.0889C28.6048 26.197 28.6642 26.2932 28.7681 26.3233C28.9525 26.3767 29.2637 26.4139 29.6063 26.4104C30.2915 26.4034 31.135 26.2556 31.5833 26.0618C31.8763 25.935 31.736 25.5855 31.4177 25.6115C30.6213 25.6766 30.0953 25.5995 29.7328 25.4597C29.5835 25.4021 29.4722 25.3339 29.377 25.2616C29.377 25.2616 29.377 25.2616 29.377 25.2616ZM20.7335 25.3487C20.7334 25.3487 20.7333 25.3486 20.7332 25.3487C20.6761 25.3533 20.5917 25.3732 20.4329 25.5388C20.0586 25.9283 19.9269 26.1734 19.6184 26.4024C19.3099 26.6314 18.908 26.756 18.108 26.9094C17.9165 26.9462 17.7895 26.9847 17.6972 27.0196C17.6612 27.0332 17.6546 27.0821 17.6888 27.0995C17.8051 27.1588 17.9554 27.214 18.0763 27.2421C18.4212 27.3225 18.9895 27.4153 19.5788 27.3214C20.1681 27.2275 20.7793 26.9663 21.3027 26.2835C21.3926 26.1662 21.4007 25.987 21.3264 25.8002C21.2521 25.6134 21.0868 25.4569 20.9706 25.412C20.8576 25.3684 20.7907 25.3441 20.7338 25.3487C20.7337 25.3487 20.7336 25.3487 20.7335 25.3487Z" fill="#529DC8"/>
<path d="M49.0759 25.0441H44.6261V22.2304H49.0759C49.7636 22.2304 50.3233 22.1182 50.7551 21.8938C51.1869 21.6613 51.5027 21.3407 51.7026 20.9318C51.9025 20.523 52.0025 20.0621 52.0025 19.5491C52.0025 19.028 51.9025 18.5431 51.7026 18.0942C51.5027 17.6453 51.1869 17.2845 50.7551 17.012C50.3233 16.7395 49.7636 16.6032 49.0759 16.6032H45.8735V31.2845H42.2752V13.7775H49.0759C50.4432 13.7775 51.6147 14.026 52.5902 14.523C53.5737 15.012 54.3254 15.6894 54.8451 16.5551C55.3648 17.4208 55.6247 18.4108 55.6247 19.525C55.6247 20.6553 55.3648 21.6332 54.8451 22.4589C54.3254 23.2845 53.5737 23.9218 52.5902 24.3707C51.6147 24.8196 50.4432 25.0441 49.0759 25.0441Z" fill="#529DC8"/>
<path d="M72.4525 22.1222V22.9519C72.4525 24.2825 72.2726 25.4769 71.9128 26.535C71.553 27.5932 71.0452 28.495 70.3895 29.2405C69.7339 29.9779 68.9502 30.5431 68.0387 30.9358C67.1351 31.3286 66.1316 31.525 65.0281 31.525C63.9327 31.525 62.9292 31.3286 62.0176 30.9358C61.1141 30.5431 60.3304 29.9779 59.6668 29.2405C59.0031 28.495 58.4873 27.5932 58.1195 26.535C57.7597 25.4769 57.5798 24.2825 57.5798 22.9519V22.1222C57.5798 20.7835 57.7597 19.5892 58.1195 18.5391C58.4793 17.4809 58.9871 16.5791 59.6428 15.8336C60.3064 15.0882 61.0901 14.519 61.9936 14.1262C62.9052 13.7334 63.9087 13.537 65.0042 13.537C66.1076 13.537 67.1111 13.7334 68.0147 14.1262C68.9263 14.519 69.7099 15.0882 70.3656 15.8336C71.0292 16.5791 71.541 17.4809 71.9008 18.5391C72.2686 19.5892 72.4525 20.7835 72.4525 22.1222ZM68.8183 22.9519V22.0982C68.8183 21.1683 68.7343 20.3507 68.5664 19.6453C68.3985 18.9399 68.1506 18.3467 67.8228 17.8657C67.495 17.3847 67.0951 17.024 66.6234 16.7835C66.1516 16.535 65.6119 16.4108 65.0042 16.4108C64.3965 16.4108 63.8567 16.535 63.3849 16.7835C62.9212 17.024 62.5254 17.3847 62.1975 17.8657C61.8777 18.3467 61.6338 18.9399 61.4659 19.6453C61.298 20.3507 61.214 21.1683 61.214 22.0982V22.9519C61.214 23.8737 61.298 24.6914 61.4659 25.4048C61.6338 26.1102 61.8817 26.7074 62.2095 27.1964C62.5374 27.6773 62.9372 28.0421 63.4089 28.2906C63.8807 28.5391 64.4204 28.6633 65.0281 28.6633C65.6359 28.6633 66.1756 28.5391 66.6474 28.2906C67.1191 28.0421 67.5149 27.6773 67.8348 27.1964C68.1546 26.7074 68.3985 26.1102 68.5664 25.4048C68.7343 24.6914 68.8183 23.8737 68.8183 22.9519Z" fill="#529DC8"/>
<path d="M84.1349 26.7034C84.1349 26.3908 84.0869 26.1102 83.9909 25.8617C83.903 25.6052 83.7351 25.3727 83.4872 25.1643C83.2393 24.9479 82.8915 24.7354 82.4437 24.527C81.9959 24.3186 81.4162 24.1022 80.7045 23.8777C79.9129 23.6212 79.1613 23.3326 78.4496 23.012C77.746 22.6914 77.1223 22.3186 76.5785 21.8938C76.0428 21.4609 75.619 20.9599 75.3072 20.3908C75.0033 19.8216 74.8514 19.1603 74.8514 18.4068C74.8514 17.6773 75.0113 17.016 75.3311 16.4228C75.651 15.8216 76.0988 15.3086 76.6745 14.8837C77.2502 14.4509 77.9299 14.1182 78.7135 13.8857C79.5051 13.6533 80.3727 13.537 81.3162 13.537C82.6036 13.537 83.7271 13.7695 84.6866 14.2344C85.6461 14.6994 86.3898 15.3366 86.9175 16.1463C87.4533 16.9559 87.7211 17.8817 87.7211 18.9238H84.1469C84.1469 18.4108 84.0389 17.9619 83.823 17.5771C83.6151 17.1843 83.2953 16.8757 82.8635 16.6513C82.4397 16.4268 81.9039 16.3146 81.2563 16.3146C80.6326 16.3146 80.1128 16.4108 79.697 16.6032C79.2812 16.7875 78.9694 17.0401 78.7615 17.3607C78.5536 17.6733 78.4496 18.026 78.4496 18.4188C78.4496 18.7154 78.5216 18.9839 78.6655 19.2244C78.8174 19.4649 79.0413 19.6894 79.3372 19.8978C79.6331 20.1062 79.9969 20.3026 80.4287 20.4869C80.8605 20.6713 81.3602 20.8517 81.9279 21.028C82.8795 21.3166 83.7151 21.6413 84.4347 22.002C85.1624 22.3627 85.7701 22.7675 86.2578 23.2164C86.7456 23.6653 87.1134 24.1743 87.3613 24.7435C87.6092 25.3126 87.7331 25.9579 87.7331 26.6793C87.7331 27.4409 87.5852 28.1222 87.2893 28.7234C86.9935 29.3246 86.5657 29.8336 86.006 30.2505C85.4462 30.6673 84.7785 30.9839 84.0029 31.2004C83.2273 31.4168 82.3597 31.525 81.4002 31.525C80.5366 31.525 79.685 31.4128 78.8454 31.1884C78.0058 30.9559 77.2422 30.6072 76.5545 30.1423C75.8749 29.6773 75.3311 29.0841 74.9233 28.3627C74.5155 27.6413 74.3116 26.7875 74.3116 25.8016H77.9219C77.9219 26.3467 78.0058 26.8076 78.1738 27.1843C78.3417 27.5611 78.5776 27.8657 78.8814 28.0982C79.1933 28.3306 79.5611 28.499 79.9849 28.6032C80.4167 28.7074 80.8884 28.7595 81.4002 28.7595C82.0239 28.7595 82.5356 28.6713 82.9354 28.495C83.3432 28.3186 83.6431 28.0741 83.835 27.7615C84.0349 27.4489 84.1349 27.0962 84.1349 26.7034Z" fill="#529DC8"/>
<path d="M97.9881 13.7775V31.2845H94.4019V13.7775H97.9881ZM103.362 13.7775V16.6032H89.1124V13.7775H103.362Z" fill="#529DC8"/>
<path d="M118.918 22.1342V29.0721C118.646 29.4008 118.226 29.7575 117.659 30.1423C117.091 30.519 116.359 30.8437 115.464 31.1162C114.568 31.3888 113.485 31.525 112.213 31.525C111.086 31.525 110.058 31.3407 109.131 30.9719C108.203 30.5952 107.404 30.0461 106.732 29.3246C106.068 28.6032 105.556 27.7214 105.197 26.6793C104.837 25.6292 104.657 24.4308 104.657 23.0841V21.99C104.657 20.6433 104.829 19.4449 105.173 18.3948C105.524 17.3447 106.024 16.4589 106.672 15.7374C107.32 15.016 108.091 14.4669 108.987 14.0902C109.882 13.7134 110.878 13.525 111.973 13.525C113.493 13.525 114.74 13.7735 115.716 14.2705C116.691 14.7595 117.435 15.4409 117.946 16.3146C118.466 17.1803 118.786 18.1743 118.906 19.2966H115.416C115.328 18.7034 115.16 18.1863 114.912 17.7455C114.664 17.3046 114.308 16.9599 113.844 16.7114C113.389 16.4629 112.797 16.3387 112.069 16.3387C111.47 16.3387 110.934 16.4629 110.462 16.7114C109.998 16.9519 109.606 17.3086 109.287 17.7815C108.967 18.2545 108.723 18.8397 108.555 19.537C108.387 20.2344 108.303 21.0441 108.303 21.9659V23.0841C108.303 23.998 108.391 24.8076 108.567 25.513C108.743 26.2104 109.003 26.7996 109.347 27.2805C109.698 27.7535 110.13 28.1102 110.642 28.3507C111.154 28.5912 111.749 28.7114 112.429 28.7114C112.997 28.7114 113.469 28.6633 113.844 28.5671C114.228 28.4709 114.536 28.3547 114.768 28.2184C115.008 28.0741 115.192 27.9378 115.32 27.8096V24.7074H112.033V22.1342H118.918Z" fill="#529DC8"/>
<path d="M121.821 13.7775H128.333C129.669 13.7775 130.816 13.9779 131.776 14.3787C132.743 14.7795 133.487 15.3727 134.007 16.1583C134.526 16.9439 134.786 17.9098 134.786 19.0561C134.786 19.994 134.626 20.7996 134.306 21.4729C133.995 22.1383 133.551 22.6954 132.975 23.1443C132.407 23.5851 131.74 23.9378 130.972 24.2024L129.833 24.8036H124.171L124.147 21.99H128.357C128.989 21.99 129.513 21.8777 129.929 21.6533C130.344 21.4288 130.656 21.1162 130.864 20.7154C131.08 20.3146 131.188 19.8497 131.188 19.3206C131.188 18.7595 131.084 18.2745 130.876 17.8657C130.668 17.4569 130.352 17.1443 129.929 16.9278C129.505 16.7114 128.973 16.6032 128.333 16.6032H125.419V31.2845H121.821V13.7775ZM131.584 31.2845L127.602 23.4809L131.404 23.4569L135.434 31.1162V31.2845H131.584Z" fill="#529DC8"/>
<path d="M149.275 28.4709V31.2845H139.98V28.4709H149.275ZM141.155 13.7775V31.2845H137.557V13.7775H141.155ZM148.064 20.9078V23.6493H139.98V20.9078H148.064ZM149.263 13.7775V16.6032H139.98V13.7775H149.263Z" fill="#529DC8"/>
</svg>
