<svg width="147" height="45" viewBox="0 0 147 45" fill="none" xmlns="http://www.w3.org/2000/svg">
<rect width="147" height="45" rx="5" fill="#CFE8FF"/>
<path d="M26.0195 22.0852C28.0376 21.1704 28.3384 14.2076 27.1478 12.1568C25.7454 9.74266 19.5964 9.94255 16.6897 11.4083C16.1207 11.6952 15.7909 12.1037 15.7187 12.7368C15.5251 14.4342 17.0144 15.9779 18.7228 15.9779H22.6441C22.8214 15.9779 22.9651 16.1217 22.9651 16.299C22.9651 16.4763 22.8214 16.62 22.6441 16.62H18.8956C17.0972 16.62 14.176 16.6342 12.3776 16.6402C12.374 16.6403 12.3756 16.6402 12.372 16.6402C7.95514 16.6466 7.08421 24.1915 10.5178 27.4185C12.2294 29.0271 14.2615 27.0094 15.0408 24.7936C16.5135 20.6094 22.7002 23.5906 26.0195 22.0852ZM18.3477 14.9868C17.5031 14.9868 16.8189 14.3027 16.8189 13.4565C16.8189 12.6119 17.5031 11.9262 18.3477 11.9262C19.1939 11.9262 19.878 12.6119 19.878 13.4565C19.8796 14.3011 19.1939 14.9868 18.3477 14.9868Z" fill="#529DC8"/>
<path d="M32.6906 18.1877C30.9034 16.7012 28.9594 18.7659 28.1873 20.9585C26.7146 25.1412 20.5295 22.1616 17.2086 23.6669C15.1921 24.5817 14.8882 31.5445 16.0803 33.5953C17.4816 36.0113 23.6322 35.8111 26.5394 34.3436C27.1077 34.0567 27.4371 33.6493 27.5094 33.0168C27.7031 31.3197 26.2139 29.7758 24.5058 29.7758H20.5825C20.4052 29.7758 20.2614 29.632 20.2614 29.4547C20.2614 29.2774 20.4052 29.1337 20.5825 29.1337H23.9819C25.9731 29.1337 29.2068 29.1195 31.198 29.1134C31.2017 29.1134 31.2 29.1134 31.2037 29.1134C35.3369 29.1064 36.4646 21.3267 32.6906 18.1877ZM24.6171 30.5004C25.4617 30.5004 26.1474 31.1845 26.1474 32.0307C26.1474 32.8753 25.4617 33.5595 24.6171 33.5595C23.7724 33.5595 23.0883 32.8753 23.0883 32.0307C23.0883 31.1845 23.7724 30.5004 24.6171 30.5004Z" fill="#529DC8"/>
<path d="M49.802 25.5147H45.3513V22.6992H49.802C50.4898 22.6992 51.0496 22.5869 51.4815 22.3623C51.9134 22.1297 52.2293 21.8088 52.4292 21.3997C52.6292 20.9906 52.7291 20.5294 52.7291 20.016C52.7291 19.4947 52.6292 19.0094 52.4292 18.5602C52.2293 18.111 51.9134 17.75 51.4815 17.4773C51.0496 17.2045 50.4898 17.0682 49.802 17.0682H46.5989V31.7594H43V14.2406H49.802C51.1696 14.2406 52.3412 14.4893 53.317 14.9866C54.3007 15.4759 55.0524 16.1537 55.5723 17.0201C56.0921 17.8864 56.3521 18.877 56.3521 19.992C56.3521 21.123 56.0921 22.1016 55.5723 22.9278C55.0524 23.754 54.3007 24.3917 53.317 24.8409C52.3412 25.2901 51.1696 25.5147 49.802 25.5147Z" fill="#529DC8"/>
<path d="M61.2346 14.2406L64.8816 22.2299L68.5285 14.2406H72.4513L66.705 25.3824V31.7594H63.0581V25.3824L57.2998 14.2406H61.2346Z" fill="#529DC8"/>
<path d="M82.0725 14.2406V31.7594H78.4855V14.2406H82.0725ZM87.4469 14.2406V17.0682H73.1951V14.2406H87.4469Z" fill="#529DC8"/>
<path d="M101.147 21.3757V24.1912H92.0296V21.3757H101.147ZM93.0972 14.2406V31.7594H89.4983V14.2406H93.0972ZM103.714 14.2406V31.7594H100.127V14.2406H103.714Z" fill="#529DC8"/>
<path d="M121.193 22.5909V23.4211C121.193 24.7527 121.013 25.9479 120.653 27.0067C120.293 28.0655 119.785 28.9679 119.13 29.7139C118.474 30.4519 117.69 31.0174 116.778 31.4104C115.875 31.8035 114.871 32 113.767 32C112.671 32 111.668 31.8035 110.756 31.4104C109.852 31.0174 109.069 30.4519 108.405 29.7139C107.741 28.9679 107.225 28.0655 106.857 27.0067C106.497 25.9479 106.317 24.7527 106.317 23.4211V22.5909C106.317 21.2513 106.497 20.0561 106.857 19.0053C107.217 17.9465 107.725 17.0441 108.381 16.2981C109.045 15.5521 109.828 14.9826 110.732 14.5896C111.644 14.1965 112.647 14 113.743 14C114.847 14 115.851 14.1965 116.754 14.5896C117.666 14.9826 118.45 15.5521 119.106 16.2981C119.769 17.0441 120.281 17.9465 120.641 19.0053C121.009 20.0561 121.193 21.2513 121.193 22.5909ZM117.558 23.4211V22.5668C117.558 21.6364 117.474 20.8182 117.306 20.1123C117.138 19.4064 116.89 18.8128 116.562 18.3316C116.234 17.8503 115.835 17.4893 115.363 17.2487C114.891 17 114.351 16.8757 113.743 16.8757C113.135 16.8757 112.595 17 112.124 17.2487C111.66 17.4893 111.264 17.8503 110.936 18.3316C110.616 18.8128 110.372 19.4064 110.204 20.1123C110.036 20.8182 109.952 21.6364 109.952 22.5668V23.4211C109.952 24.3436 110.036 25.1618 110.204 25.8757C110.372 26.5816 110.62 27.1791 110.948 27.6684C111.276 28.1497 111.676 28.5147 112.148 28.7634C112.619 29.012 113.159 29.1364 113.767 29.1364C114.375 29.1364 114.915 29.012 115.387 28.7634C115.859 28.5147 116.254 28.1497 116.574 27.6684C116.894 27.1791 117.138 26.5816 117.306 25.8757C117.474 25.1618 117.558 24.3436 117.558 23.4211Z" fill="#529DC8"/>
<path d="M138 14.2406V31.7594H134.401L127.383 20.016V31.7594H123.784V14.2406H127.383L134.413 25.996V14.2406H138Z" fill="#529DC8"/>
</svg>
