<svg width="119" height="45" viewBox="0 0 119 45" fill="none" xmlns="http://www.w3.org/2000/svg">
<rect width="119" height="45" rx="5" fill="#007493"/>
<path d="M50.1477 19V7.36364H54.5114C55.4053 7.36364 56.1553 7.51894 56.7614 7.82955C57.3712 8.14015 57.8314 8.57576 58.142 9.13636C58.4564 9.69318 58.6136 10.3428 58.6136 11.0852C58.6136 11.8314 58.4545 12.4792 58.1364 13.0284C57.822 13.5739 57.358 13.9962 56.7443 14.2955C56.1307 14.5909 55.3769 14.7386 54.483 14.7386H51.375V12.9886H54.1989C54.7216 12.9886 55.1496 12.9167 55.483 12.7727C55.8163 12.625 56.0625 12.411 56.2216 12.1307C56.3845 11.8466 56.4659 11.4981 56.4659 11.0852C56.4659 10.6723 56.3845 10.3201 56.2216 10.0284C56.0587 9.73295 55.8106 9.50947 55.4773 9.35795C55.1439 9.20265 54.714 9.125 54.1875 9.125H52.2557V19H50.1477ZM56.1591 13.7273L59.0398 19H56.6875L53.858 13.7273H56.1591ZM60.554 19V7.36364H68.1222V9.13068H62.6619V12.2898H67.7301V14.0568H62.6619V17.233H68.1676V19H60.554ZM71.767 19H69.517L73.6136 7.36364H76.2159L80.3182 19H78.0682L74.9602 9.75H74.8693L71.767 19ZM71.8409 14.4375H77.9773V16.1307H71.8409V14.4375ZM91.2642 11.2898H89.1392C89.0786 10.9413 88.9669 10.6326 88.804 10.3636C88.6411 10.0909 88.4384 9.85985 88.196 9.67045C87.9536 9.48106 87.6771 9.33901 87.3665 9.24432C87.0597 9.14583 86.7282 9.09659 86.3722 9.09659C85.7396 9.09659 85.179 9.25568 84.6903 9.57386C84.2017 9.88826 83.8191 10.3504 83.5426 10.9602C83.2661 11.5663 83.1278 12.3068 83.1278 13.1818C83.1278 14.072 83.2661 14.822 83.5426 15.4318C83.8229 16.0379 84.2055 16.4962 84.6903 16.8068C85.179 17.1136 85.7377 17.267 86.3665 17.267C86.715 17.267 87.0407 17.2216 87.3438 17.1307C87.6506 17.036 87.9252 16.8977 88.1676 16.7159C88.4138 16.5341 88.6203 16.3106 88.7869 16.0455C88.9574 15.7803 89.0748 15.4773 89.1392 15.1364L91.2642 15.1477C91.1847 15.7008 91.0123 16.2197 90.7472 16.7045C90.4858 17.1894 90.143 17.6174 89.7188 17.9886C89.2945 18.3561 88.7983 18.6439 88.2301 18.8523C87.6619 19.0568 87.0313 19.1591 86.3381 19.1591C85.3153 19.1591 84.4025 18.9223 83.5994 18.4489C82.7964 17.9754 82.1638 17.2917 81.7017 16.3977C81.2396 15.5038 81.0085 14.4318 81.0085 13.1818C81.0085 11.928 81.2415 10.8561 81.7074 9.96591C82.1733 9.07197 82.8078 8.38826 83.6108 7.91477C84.4138 7.44129 85.3229 7.20455 86.3381 7.20455C86.9858 7.20455 87.5881 7.29545 88.1449 7.47727C88.7017 7.65909 89.1979 7.92614 89.6335 8.27841C90.0691 8.62689 90.4271 9.05492 90.7074 9.5625C90.9915 10.0663 91.1771 10.642 91.2642 11.2898ZM92.6832 9.13068V7.36364H101.967V9.13068H98.3707V19H96.2798V9.13068H92.6832ZM59.7102 26.3636V38H57.8352L52.3523 30.0739H52.2557V38H50.1477V26.3636H52.0341L57.5114 34.2955H57.6136V26.3636H59.7102ZM63.5014 38H61.2514L65.348 26.3636H67.9503L72.0526 38H69.8026L66.6946 28.75H66.6037L63.5014 38ZM63.5753 33.4375H69.7116V35.1307H63.5753V33.4375ZM71.6676 28.1307V26.3636H80.9517V28.1307H77.3551V38H75.2642V28.1307H71.6676ZM84.8494 26.3636V38H82.7415V26.3636H84.8494ZM88.6889 26.3636L91.7173 35.5227H91.8366L94.8594 26.3636H97.1776L93.0753 38H90.473L86.3764 26.3636H88.6889ZM98.7102 38V26.3636H106.278V28.1307H100.818V31.2898H105.886V33.0568H100.818V36.233H106.324V38H98.7102Z" fill="#61DAFB"/>
<path d="M35.0117 25.5628C34.8467 25.6164 34.6773 25.6682 34.5046 25.7184C34.1224 24.5312 33.6066 23.2686 32.9756 21.9644C33.5779 20.691 34.0736 19.4447 34.4451 18.265C34.754 18.3529 35.0538 18.4454 35.3427 18.5431C38.137 19.4869 39.8413 20.8827 39.8413 21.9581C39.8413 23.1036 38.0004 24.5908 35.0117 25.5628Z" fill="#61DAFB"/>
<path d="M33.7716 27.9744C34.0738 29.4723 34.1169 30.8267 33.9168 31.8854C33.7369 32.8367 33.3753 33.471 32.9282 33.725C31.9766 34.2656 29.9415 33.5629 27.747 31.7095C27.4953 31.4971 27.2418 31.2702 26.9877 31.0302C27.8385 30.1169 28.6888 29.0552 29.5187 27.8762C30.9785 27.7491 32.3575 27.5412 33.6082 27.2575C33.6697 27.5015 33.7245 27.7406 33.7716 27.9744Z" fill="#61DAFB"/>
<path d="M21.2303 33.6316C20.3006 33.9538 19.5602 33.963 19.1126 33.7098C18.1601 33.1708 17.7643 31.0895 18.3043 28.298C18.3685 27.9682 18.442 27.6401 18.5248 27.3142C19.7615 27.5827 21.1306 27.7758 22.5939 27.8923C23.4292 29.046 24.3041 30.1064 25.1858 31.0351C24.9984 31.213 24.8066 31.3863 24.6105 31.5549C23.4389 32.56 22.2649 33.2729 21.2303 33.6316Z" fill="#61DAFB"/>
<path d="M16.8748 25.5557C15.4025 25.0618 14.1865 24.42 13.3531 23.7196C12.6042 23.0901 12.226 22.4652 12.226 21.9581C12.226 20.8792 13.8653 19.5028 16.5993 18.5673C16.9424 18.4504 17.289 18.3434 17.6385 18.2464C18.0164 19.4526 18.5121 20.7136 19.1102 21.9889C18.5043 23.2832 18.0016 24.5643 17.6202 25.7847C17.3699 25.7143 17.1213 25.638 16.8748 25.5557Z" fill="#61DAFB"/>
<path d="M18.3349 15.8024C17.7673 12.9561 18.1442 10.8092 19.0926 10.2704C20.1028 9.69651 22.3365 10.5149 24.6908 12.5664C24.8413 12.6975 24.9924 12.8348 25.1438 12.9769C24.2667 13.9013 23.3998 14.9537 22.5717 16.1007C21.1516 16.2299 19.7921 16.4374 18.5424 16.7153C18.4654 16.4127 18.3962 16.1084 18.3349 15.8024Z" fill="#61DAFB"/>
<path d="M31.3596 18.9587C31.0644 18.4583 30.7583 17.9642 30.4414 17.4767C31.4049 17.5961 32.3279 17.7547 33.1946 17.949C32.9344 18.7675 32.6101 19.6233 32.2282 20.5007C31.9491 19.981 31.6595 19.4669 31.3596 18.9587Z" fill="#61DAFB"/>
<path d="M26.0481 13.8815C26.643 14.514 27.2389 15.2204 27.825 15.9866C26.6361 15.9315 25.4452 15.9312 24.2562 15.9859C24.8429 15.2267 25.4438 14.5214 26.0481 13.8815Z" fill="#61DAFB"/>
<path d="M20.7026 18.9673C20.4064 19.4716 20.1222 19.9825 19.8503 20.4998C19.4746 19.6254 19.1532 18.7657 18.8908 17.9356C19.7523 17.7464 20.671 17.5917 21.6282 17.4744C21.3078 17.9648 20.9992 18.4626 20.7026 18.9673Z" fill="#61DAFB"/>
<path d="M21.6558 26.5322C20.6669 26.4239 19.7343 26.2771 18.873 26.0931C19.1396 25.2483 19.4681 24.3701 19.8517 23.477C20.1248 23.9946 20.4102 24.5059 20.7078 25.0104C21.0114 25.525 21.3275 26.0324 21.6558 26.5322Z" fill="#61DAFB"/>
<path d="M26.0838 30.1241C25.4724 29.4767 24.8627 28.7606 24.2671 27.9904C24.8452 28.0127 25.4346 28.024 26.0337 28.024C26.6492 28.024 27.2576 28.0105 27.8564 27.9842C27.2684 28.7685 26.6747 29.4856 26.0838 30.1241Z" fill="#61DAFB"/>
<path d="M32.2405 23.4315C32.644 24.3343 32.9843 25.2077 33.2545 26.0383C32.3789 26.2343 31.4337 26.3922 30.4378 26.5095C30.7569 26.0129 31.066 25.5102 31.3648 25.0016C31.6685 24.4847 31.9605 23.9612 32.2405 23.4315Z" fill="#61DAFB"/>
<path fill-rule="evenodd" clip-rule="evenodd" d="M30.2474 24.3692C29.79 25.149 29.3069 25.914 28.7988 26.6629C27.9029 26.7257 26.9771 26.7581 26.0337 26.7581C25.0941 26.7581 24.1801 26.7294 23.2998 26.6734C22.7786 25.9262 22.2863 25.1599 21.8241 24.3761C21.3641 23.5966 20.9344 22.8001 20.5359 21.9885C20.9334 21.1767 21.3618 20.3798 21.8203 19.5996C22.2786 18.8192 22.767 18.0564 23.2843 17.3124C24.1823 17.2458 25.1031 17.2109 26.0338 17.2109C26.9687 17.2109 27.8906 17.246 28.7884 17.3132C29.3005 18.056 29.7857 18.8164 30.2432 19.5929C30.7033 20.3714 31.1374 21.1643 31.5449 21.9705C31.1416 22.785 30.7087 23.585 30.2474 24.3692ZM28.73 21.9581C28.73 20.4968 27.5229 19.312 26.0337 19.312C24.5447 19.312 23.3374 20.4968 23.3374 21.9581C23.3374 23.4196 24.5447 24.6044 26.0337 24.6044C27.5229 24.6044 28.73 23.4196 28.73 21.9581Z" fill="#61DAFB"/>
<path d="M32.9084 10.2328C33.9194 10.8051 34.3127 13.1129 33.6774 16.1393C33.6358 16.3365 33.5905 16.5329 33.5417 16.7284C32.289 16.4447 30.9286 16.2336 29.5044 16.1024C28.6746 14.943 27.815 13.8887 26.952 12.9762C27.1781 12.7622 27.4097 12.5538 27.6464 12.3512C29.8756 10.4472 31.9591 9.69546 32.9084 10.2328Z" fill="#61DAFB"/>
<path fill-rule="evenodd" clip-rule="evenodd" d="M15.4602 28.1444C11.5073 26.8184 9 24.466 9 21.9461C9 19.4946 11.6407 17.3169 15.4602 16.01C14.6683 12.038 15.2877 8.83741 17.4584 7.60425C19.7097 6.32531 22.8133 7.18628 26.0498 10.0064C29.1608 7.34943 32.2954 6.27771 34.4681 7.50733C36.7218 8.78272 37.4618 11.8498 36.5885 16.0377C40.4881 17.3552 43 19.4846 43 21.9461C43 24.4992 40.697 26.5051 36.5798 27.8409C37.3909 31.8627 36.7152 35.2192 34.4929 36.4817C32.3307 37.71 29.2322 36.691 26.1662 34.1017C23.0209 36.8 19.7071 37.6715 17.4828 36.4125C15.3188 35.1877 14.6708 32.0443 15.4602 28.1444ZM34.7907 17.0454C35.1172 17.1375 35.4413 17.2378 35.7627 17.346C39.0239 18.4477 41.1313 20.1736 41.1313 21.9581C41.1313 23.8192 38.8792 25.6388 35.4175 26.7643C35.2346 26.8238 35.0471 26.881 34.856 26.9364C34.9242 27.2055 34.985 27.4697 35.0371 27.7285C35.7205 31.1161 35.1942 33.9004 33.5746 34.8206C32.0064 35.7114 29.472 34.8363 26.9057 32.6691C26.6268 32.433 26.3546 32.1893 26.0895 31.9382C25.879 32.138 25.6688 32.3285 25.4594 32.5082C22.81 34.781 20.0892 35.7239 18.4681 34.8065C16.8986 33.918 16.4054 31.3262 17.0369 28.062C17.106 27.7072 17.1851 27.3544 17.2741 27.004C16.9999 26.9272 16.7277 26.8437 16.4576 26.7535C13.1278 25.6367 10.9362 23.7946 10.9362 21.9581C10.9362 20.18 12.9779 18.4657 16.1746 17.3719C16.5319 17.2497 16.9055 17.1348 17.2922 17.027C17.2093 16.7018 17.1349 16.3745 17.069 16.0455C16.4066 12.7236 16.8727 10.0688 18.4464 9.17481C20.0875 8.2425 22.8207 9.24367 25.5475 11.6198C25.7171 11.7679 25.8839 11.9191 26.0478 12.0733C26.2925 11.8414 26.5432 11.6156 26.7996 11.3962C29.4014 9.17416 31.9776 8.2446 33.5527 9.13613C35.1956 10.0657 35.6767 12.8895 34.9409 16.3948C34.8949 16.6125 34.8448 16.8294 34.7907 17.0454Z" fill="#61DAFB"/>
</svg>
