<svg width="119" height="46" viewBox="0 0 119 46" fill="none" xmlns="http://www.w3.org/2000/svg">
<rect x="0.439819" width="117.779" height="45.3015" rx="5" fill="#FFCDCD"/>
<path d="M20.3109 11.0075C20.3112 11.0075 20.3115 11.0076 20.3116 11.008C20.3148 11.023 20.4457 11.2761 20.6091 11.5855C20.7707 11.8936 20.8899 12.1583 20.872 12.1714C20.854 12.1845 20.3962 12.3628 19.8562 12.5581C19.3124 12.7573 18.8751 12.9277 18.8828 12.9356C18.8905 12.9434 19.5074 13.009 20.2512 13.0784C21.1477 13.1649 21.6197 13.2265 21.653 13.2606C21.6825 13.2908 21.8864 13.6302 22.1122 14.0077L22.4214 14.5394C22.4602 14.6061 22.5586 14.5994 22.588 14.5281C22.6265 14.4363 22.7496 14.1322 22.8637 13.8596C22.9868 13.5523 23.2695 13.338 23.5986 13.3024L24.1424 13.2436C24.7323 13.178 25.2595 13.1269 25.3146 13.1269C25.3659 13.123 25.4082 13.1099 25.4082 13.0876C25.4082 13.0706 25.0094 12.9015 24.5156 12.714C24.027 12.5279 23.623 12.3667 23.623 12.3628C23.623 12.3589 23.7294 12.0941 23.8564 11.7769C23.9834 11.4597 24.0808 11.191 24.0731 11.1818C24.0642 11.1687 23.6486 11.2985 23.1561 11.4636C22.575 11.6574 21.9439 11.6376 21.3761 11.4078L21.3003 11.3771C20.37 11.0031 20.3112 10.983 20.3103 11.0068C20.3102 11.0072 20.3105 11.0075 20.3109 11.0075ZM26.247 14.3111C26.247 14.3108 26.2467 14.3106 26.2464 14.3107C25.1039 14.7746 24.1655 15.1611 24.1565 15.1703C24.1475 15.1795 24.9978 15.5308 26.0469 15.9567L27.7462 16.6425C27.877 16.6953 28.0233 16.6952 28.1541 16.6422C30.2741 15.7994 32.203 15.0143 32.194 15.0052C32.1645 14.9698 28.4132 13.469 28.3708 13.469C28.3413 13.4729 27.3862 13.8503 26.2476 14.3115C26.2473 14.3117 26.247 14.3115 26.247 14.3111ZM15.2776 13.8596C14.1811 13.9763 13.2603 14.3026 12.8691 14.7155C12.601 14.9973 12.5587 15.2372 12.7242 15.5268C12.9704 15.9607 13.7784 16.3263 14.8955 16.5125C15.3969 16.599 16.8705 16.5859 17.381 16.4954C18.575 16.2831 19.3484 15.8925 19.5305 15.401C19.5984 15.2188 19.5984 15.1926 19.5305 15.0143C19.3522 14.5372 18.5917 14.1414 17.4656 13.9422C16.8962 13.8426 15.8343 13.8032 15.2776 13.8596ZM35.6959 15.2096C35.6955 15.2096 35.6952 15.2098 35.6949 15.2101C35.6392 15.2838 35.4358 15.4485 35.2413 15.5832C34.6629 15.9646 33.9152 16.3119 29.2763 18.3527C26.0136 19.7853 25.1812 20.1628 24.0513 20.7185C22.7983 21.3306 22.2802 21.4997 21.6505 21.4997C21.0849 21.4997 20.7501 21.4001 19.6959 20.9217C19.2752 20.7303 17.5541 19.9924 15.8727 19.2767C8.51879 16.1507 8.38285 16.0852 7.98783 15.6513C7.92999 15.5863 7.82239 15.6272 7.82239 15.7142V18.1609C7.82239 18.3279 7.88992 18.4879 8.00964 18.6043C8.18791 18.7826 8.79582 19.1562 9.01256 19.2204C9.07156 19.2374 9.4717 19.4065 9.90519 19.5979C10.3387 19.7892 12.4497 20.6923 14.5992 21.6085C18.1556 23.1237 18.9662 23.471 20.1769 24.0136C20.8181 24.3046 21.1747 24.378 21.7787 24.357C22.2212 24.34 22.352 24.3138 22.7393 24.1788C22.9894 24.0923 23.4229 23.9048 23.7038 23.762C24.6259 23.2888 25.743 22.7855 30.1907 20.8273C34.3756 18.9818 34.9194 18.7262 35.3734 18.4051C35.8402 18.067 35.8197 18.1495 35.8197 16.5033C35.8197 15.7169 35.8158 15.0746 35.8069 15.0746C35.7979 15.0746 35.7519 15.1346 35.697 15.2091C35.6967 15.2094 35.6963 15.2096 35.6959 15.2096ZM21.0464 17.1377C19.3342 17.4064 17.9158 17.637 17.8901 17.6462C17.8517 17.6593 22.1558 19.5087 22.3379 19.5559C22.3802 19.569 24.3053 16.7379 24.3053 16.6645C24.3053 16.6252 24.3091 16.6213 21.0464 17.1377ZM35.719 20.0638C35.7194 20.0642 35.7195 20.0648 35.7192 20.0652C35.6798 20.1312 35.5023 20.2904 35.3285 20.4157C34.7719 20.8063 33.9357 21.1969 28.8492 23.433C25.9225 24.7227 25.0042 25.1356 24.1334 25.5694C22.7226 26.268 22.3828 26.3807 21.6274 26.3768C21.0413 26.3729 20.6796 26.2772 19.9024 25.9168C19.1547 25.5655 18.3172 25.205 14.957 23.7803C9.11132 21.3018 8.43543 20.9924 8.02374 20.5848C7.94709 20.5114 7.81982 20.5657 7.81982 20.6719V22.979C7.81982 23.1828 7.90269 23.3779 8.04939 23.5195C8.42389 23.876 8.38541 23.8576 14.6595 26.5289C16.9616 27.5053 19.1329 28.4386 19.4817 28.5998C20.4077 29.0257 20.6758 29.1254 21.0413 29.2027C21.8954 29.3809 22.5277 29.2368 23.9128 28.5473C24.8131 28.1004 25.9135 27.601 28.5773 26.4292C33.6407 24.1971 34.8899 23.6243 35.2592 23.3727C35.3913 23.277 35.5696 23.125 35.6581 23.0253C35.7597 22.9105 35.8158 22.7624 35.8158 22.6091V21.3922C35.8158 20.5927 35.812 19.9373 35.803 19.9373C35.7992 19.9373 35.761 19.9933 35.7189 20.0624C35.7186 20.0628 35.7186 20.0634 35.719 20.0638ZM35.6735 24.8263C35.3375 25.2562 34.6667 25.5865 29.4456 27.8828C26.0379 29.3849 25.0017 29.8541 23.8808 30.4007C22.7034 30.9734 22.3174 31.0953 21.6376 31.0953C21.1747 31.0953 20.7027 30.9826 20.1807 30.748C18.961 30.2014 18.1582 29.8541 14.5979 28.3389C10.549 26.6154 9.25368 26.0557 8.82019 25.8342C8.41619 25.6258 8.00451 25.3309 7.91088 25.1788C7.88448 25.138 7.82111 25.1567 7.82111 25.2053V26.521C7.82111 28.2184 7.79161 28.0925 8.23792 28.4005C8.73041 28.7387 9.46144 29.069 14.3222 31.1307C17.7208 32.5725 18.9444 33.0981 19.5471 33.376C20.7796 33.9409 21.1067 34.0313 21.7941 33.992C22.4225 33.9619 22.8355 33.8229 23.9231 33.2934C25.0568 32.7377 25.8943 32.3562 29.5944 30.727C34.7347 28.4648 35.2913 28.1921 35.6825 27.7308C35.7701 27.6302 35.8184 27.5013 35.8184 27.3679V26.1252C35.8184 25.3256 35.8146 24.6703 35.8094 24.6703C35.8005 24.6703 35.7415 24.7397 35.6735 24.8263Z" fill="#E34B3A"/>
<path d="M44.8198 14.2406H51.2912C52.6181 14.2406 53.7582 14.4412 54.7116 14.8422C55.673 15.2433 56.4119 15.8369 56.9284 16.623C57.4448 17.4091 57.703 18.3757 57.703 19.5227C57.703 20.4612 57.5441 21.2674 57.2263 21.9412C56.9165 22.607 56.4755 23.1644 55.9034 23.6136C55.3393 24.0548 54.6759 24.4078 53.9132 24.6725L52.781 25.2741H47.1557L47.1319 22.4586H51.3151C51.9427 22.4586 52.4631 22.3463 52.8763 22.1217C53.2894 21.8971 53.5993 21.5842 53.8059 21.1832C54.0204 20.7821 54.1277 20.3168 54.1277 19.7874C54.1277 19.2259 54.0244 18.7406 53.8178 18.3316C53.6112 17.9225 53.2974 17.6096 52.8763 17.393C52.4552 17.1765 51.9268 17.0682 51.2912 17.0682H48.3952V31.7594H44.8198V14.2406ZM54.521 31.7594L50.5642 23.9505L54.3422 23.9265L58.3466 31.5909V31.7594H54.521Z" fill="#E34B3A"/>
<path d="M72.0998 28.9438V31.7594H62.8635V28.9438H72.0998ZM64.0314 14.2406V31.7594H60.4561V14.2406H64.0314ZM70.8961 21.3757V24.119H62.8635V21.3757H70.8961ZM72.0879 14.2406V17.0682H62.8635V14.2406H72.0879Z" fill="#E34B3A"/>
<path d="M79.5127 31.7594H75.7347L75.7586 28.9438H79.5127C80.4502 28.9438 81.2408 28.7313 81.8844 28.3061C82.5279 27.873 83.0126 27.2433 83.3383 26.4171C83.672 25.5909 83.8389 24.5922 83.8389 23.4211V22.5668C83.8389 21.6684 83.7435 20.8783 83.5529 20.1965C83.3701 19.5147 83.096 18.9412 82.7305 18.4759C82.3651 18.0107 81.9161 17.6618 81.3838 17.4291C80.8515 17.1885 80.2397 17.0682 79.5485 17.0682H75.6632V14.2406H79.5485C80.7085 14.2406 81.7692 14.4412 82.7305 14.8422C83.6999 15.2353 84.5381 15.8008 85.2452 16.5388C85.9523 17.2767 86.4966 18.1591 86.8779 19.1858C87.2673 20.2045 87.4619 21.3396 87.4619 22.5909V23.4211C87.4619 24.6644 87.2673 25.7995 86.8779 26.8262C86.4966 27.8529 85.9523 28.7353 85.2452 29.4733C84.546 30.2032 83.7078 30.7687 82.7305 31.1698C81.7612 31.5628 80.6886 31.7594 79.5127 31.7594ZM77.7608 14.2406V31.7594H74.1854V14.2406H77.7608Z" fill="#E34B3A"/>
<path d="M93.8618 14.2406V31.7594H90.2984V14.2406H93.8618Z" fill="#E34B3A"/>
<path d="M106.244 27.1751C106.244 26.8623 106.197 26.5816 106.101 26.3329C106.014 26.0762 105.847 25.8436 105.601 25.635C105.355 25.4184 105.009 25.2059 104.564 24.9973C104.119 24.7888 103.543 24.5722 102.836 24.3476C102.049 24.0909 101.303 23.8021 100.595 23.4813C99.8962 23.1604 99.2765 22.7874 98.7362 22.3623C98.2039 21.9291 97.7828 21.4278 97.4729 20.8583C97.171 20.2888 97.02 19.627 97.02 18.873C97.02 18.143 97.179 17.4813 97.4968 16.8877C97.8146 16.2861 98.2595 15.7727 98.8316 15.3476C99.4036 14.9144 100.079 14.5816 100.858 14.3489C101.644 14.1163 102.506 14 103.444 14C104.723 14 105.839 14.2326 106.793 14.6979C107.746 15.1631 108.485 15.8008 109.009 16.611C109.542 17.4211 109.808 18.3476 109.808 19.3904H106.256C106.256 18.877 106.149 18.4278 105.935 18.0428C105.728 17.6497 105.41 17.3409 104.981 17.1163C104.56 16.8917 104.028 16.7794 103.384 16.7794C102.764 16.7794 102.248 16.8757 101.835 17.0682C101.422 17.2527 101.112 17.5053 100.905 17.8262C100.699 18.139 100.595 18.492 100.595 18.885C100.595 19.1818 100.667 19.4505 100.81 19.6912C100.961 19.9318 101.183 20.1564 101.477 20.365C101.771 20.5735 102.133 20.7701 102.562 20.9545C102.991 21.139 103.487 21.3195 104.052 21.496C104.997 21.7848 105.827 22.1096 106.542 22.4706C107.265 22.8316 107.869 23.2366 108.354 23.6858C108.839 24.135 109.204 24.6444 109.45 25.2139C109.697 25.7834 109.82 26.4291 109.82 27.1511C109.82 27.9131 109.673 28.5949 109.379 29.1965C109.085 29.7981 108.66 30.3075 108.104 30.7246C107.547 31.1417 106.884 31.4586 106.113 31.6751C105.343 31.8917 104.481 32 103.527 32C102.669 32 101.823 31.8877 100.989 31.6631C100.154 31.4305 99.3957 31.0816 98.7124 30.6163C98.037 30.1511 97.4968 29.5575 97.0916 28.8356C96.6863 28.1136 96.4837 27.2594 96.4837 26.2727H100.071C100.071 26.8182 100.154 27.2794 100.321 27.6564C100.488 28.0334 100.723 28.3382 101.024 28.5709C101.334 28.8035 101.7 28.9719 102.121 29.0762C102.55 29.1805 103.019 29.2326 103.527 29.2326C104.147 29.2326 104.655 29.1444 105.053 28.9679C105.458 28.7914 105.756 28.5468 105.947 28.234C106.145 27.9211 106.244 27.5682 106.244 27.1751Z" fill="#E34B3A"/>
</svg>
