<svg width="25" height="24" viewBox="0 0 25 24" fill="none" xmlns="http://www.w3.org/2000/svg">
<g clip-path="url(#clip0_2_182246)">
<path d="M18.5 15C17.6717 15 17 15.6717 17 16.5V21H3.5V7.5H8C8.82828 7.5 9.5 6.82875 9.5 6C9.5 5.17125 8.82828 4.5 8 4.5H3.5C1.84297 4.5 0.5 5.84297 0.5 7.5V21C0.5 22.6566 1.84297 24 3.5 24H17C18.657 24 20 22.6566 20 21V16.5C20 15.6703 19.3297 15 18.5 15ZM24.0594 0.439078C23.7875 0.167719 23.4125 0 23 0H15.5C14.6717 0 14.0422 0.67125 14.0422 1.45781C14.0422 2.28609 14.7134 2.91563 15.5417 2.91563H19.4206L8.87656 13.6266C8.29062 14.2125 8.29062 15.1622 8.87656 15.7481C9.4625 16.3359 10.4141 16.3359 11 15.75L21.5 5.11875V9C21.5 9.82828 22.1717 10.4578 22.9578 10.4578C23.7439 10.4578 24.5 9.82969 24.5 9V1.45781C24.5 1.08563 24.3313 0.710625 24.0594 0.439078Z" fill="black"/>
</g>
<defs>
<clipPath id="clip0_2_182246">
<rect width="24" height="24" fill="white" transform="translate(0.5)"/>
</clipPath>
</defs>
</svg>
