<svg width="31" height="24" viewBox="0 0 31 24" fill="none" xmlns="http://www.w3.org/2000/svg">
<g clip-path="url(#clip0_2_182786)">
<path d="M28.25 0H10.25C9.00781 0 8 1.04297 8 2.32641V4.5C9.09781 4.5 10.1141 4.81786 10.9578 5.33484V3H27.4578V16.5H24.4578V14.25C24.4578 13.8357 24.122 13.5 23.7078 13.5H19.2078C18.7936 13.5 18.4578 13.8357 18.4578 14.25V16.5H13.9672C15.0017 17.2725 15.8206 18.3047 16.3466 19.5H28.2481C29.4922 19.5 30.5 18.4594 30.5 17.175V2.32641C30.5 1.04297 29.4922 0 28.25 0ZM8 15C10.4853 15 12.5 12.9853 12.5 10.5C12.5 8.01469 10.4853 6 8 6C5.47344 6 3.5 7.97344 3.5 10.5C3.5 12.9844 5.47344 15 8 15ZM9.5 16.5H6.5C3.18641 16.5 0.5 19.1864 0.5 22.5C0.5 23.3283 1.17172 24 2 24H14C14.8283 24 15.5 23.3283 15.5 22.5C15.5 19.1859 12.8141 16.5 9.5 16.5Z" fill="#FF94A3"/>
</g>
<defs>
<clipPath id="clip0_2_182786">
<rect width="30" height="24" fill="white" transform="translate(0.5)"/>
</clipPath>
</defs>
</svg>
