<svg width="139" height="45" viewBox="0 0 139 45" fill="none" xmlns="http://www.w3.org/2000/svg">
<rect x="0.401306" width="138.11" height="44.8681" rx="5" fill="#D8FCC7"/>
<path fill-rule="evenodd" clip-rule="evenodd" d="M16.617 10.4588C15.6208 10.8108 15.3007 11.1404 14.2736 12.871C12.2275 16.3188 9.60322 20.8721 9.44246 21.2533C9.1817 21.8716 9.231 22.8939 9.5544 23.571C9.93236 24.3624 14.8419 32.7578 15.1946 33.2158C15.3502 33.418 15.8029 33.7443 16.2005 33.9412C16.676 34.1765 17.1993 34.299 17.7298 34.299H22.7946H28.0151C28.4433 34.299 28.8657 34.2004 29.2497 34.0109C29.5706 33.8524 29.996 33.5523 30.1948 33.344C30.5142 33.0093 31.7281 30.9836 35.1112 25.1397C36.1993 23.2601 36.4079 22.6091 36.2071 21.7214C36.1384 21.418 36.0034 21.0186 35.9069 20.8338C35.8104 20.649 35.6794 19.9367 35.6157 19.251C35.4903 17.8999 35.1614 16.0787 34.7937 14.6987C34.4394 13.369 33.4806 10.4074 33.4045 10.4081C33.3674 10.4084 33.1136 10.839 32.8407 11.3649C32.5676 11.8909 32.1639 12.5447 31.9433 12.8178C31.748 13.0597 31.372 13.0349 31.2101 12.7695L30.9389 12.3248C30.3044 11.2845 29.9215 10.919 29.06 10.5319C28.5565 10.3057 28.3159 10.2968 22.799 10.2992C18.275 10.3012 16.9676 10.3349 16.617 10.4588ZM33.7226 13.104C34.7012 16.299 35.0586 18.3855 35.0531 20.8733C35.0492 22.6208 34.8578 23.7759 34.3626 25.0392C33.2354 27.9144 31.0626 29.3538 27.2164 29.7729C26.544 29.8462 24.4498 29.8855 22.2298 29.8665L21.2665 29.8583C20.7399 29.8538 20.6265 29.1146 21.1276 28.9525C22.6265 28.4677 24.2216 27.8854 24.6724 27.6583C27.739 26.1138 30.6543 22.9399 31.7473 19.9558C32.3246 18.3795 32.2973 18.1346 31.6788 19.342C30.1837 22.261 27.3459 24.793 23.9428 26.2442C22.83 26.7186 21.0909 27.2207 18.4764 27.8221L17.0978 28.1391C16.7119 28.2279 16.3067 28.1614 15.9695 27.9539C14.6377 27.1345 13.9399 25.03 14.3532 23.0793C14.7207 21.3445 15.8741 19.7021 17.3378 18.8295C18.7596 17.9818 20.0048 17.6955 23.1843 17.4852C26.3453 17.2762 27.9969 16.7236 30.2932 15.1067C31.1459 14.5063 32.5563 13.0578 32.931 12.3975C33.0814 12.1323 33.2391 11.9153 33.2814 11.9153C33.3238 11.9153 33.5223 12.4501 33.7226 13.104ZM16.1541 29.3763C16.9693 30.2938 15.7165 31.5754 14.7446 30.8182C13.9159 30.1726 14.5047 28.8395 15.5394 29.0188C15.7326 29.0524 16.0093 29.2131 16.1541 29.3763Z" fill="#48A73D"/>
<path d="M54.1192 26.4773C54.1192 26.1647 54.0712 25.8841 53.975 25.6356C53.8869 25.3791 53.7186 25.1466 53.4702 24.9382C53.2218 24.7218 52.8732 24.5094 52.4245 24.301C51.9757 24.0925 51.3948 23.8761 50.6816 23.6517C49.8883 23.3951 49.1351 23.1066 48.422 22.7859C47.7168 22.4653 47.0918 22.0925 46.5469 21.6677C46.01 21.2348 45.5853 20.7338 45.2728 20.1647C44.9683 19.5955 44.8161 18.9342 44.8161 18.1807C44.8161 17.4513 44.9763 16.7899 45.2969 16.1967C45.6174 15.5955 46.0661 15.0825 46.6431 14.6577C47.22 14.2248 47.9011 13.8921 48.6864 13.6597C49.4797 13.4272 50.3491 13.311 51.2946 13.311C52.5847 13.311 53.7106 13.5434 54.6721 14.0084C55.6337 14.4733 56.3789 15.1106 56.9078 15.9202C57.4446 16.7298 57.7131 17.6557 57.7131 18.6977H54.1313C54.1313 18.1847 54.0231 17.7358 53.8067 17.3511C53.5984 16.9583 53.2779 16.6497 52.8452 16.4252C52.4205 16.2008 51.8836 16.0885 51.2345 16.0885C50.6095 16.0885 50.0887 16.1847 49.672 16.3771C49.2553 16.5615 48.9428 16.814 48.7345 17.1346C48.5261 17.4472 48.422 17.8 48.422 18.1927C48.422 18.4893 48.4941 18.7579 48.6383 18.9983C48.7906 19.2388 49.0149 19.4633 49.3114 19.6717C49.6079 19.8801 49.9725 20.0765 50.4052 20.2609C50.8379 20.4452 51.3387 20.6256 51.9076 20.802C52.8612 21.0905 53.6985 21.4152 54.4197 21.7759C55.1489 22.1366 55.7579 22.5414 56.2467 22.9903C56.7355 23.4392 57.1041 23.9482 57.3525 24.5174C57.6009 25.0865 57.7251 25.7318 57.7251 26.4533C57.7251 27.2148 57.5769 27.8961 57.2804 28.4973C56.9839 29.0985 56.5552 29.6076 55.9943 30.0244C55.4334 30.4412 54.7643 30.7579 53.987 30.9743C53.2098 31.1907 52.3403 31.299 51.3788 31.299C50.5134 31.299 49.66 31.1867 48.8186 30.9623C47.9772 30.7298 47.212 30.3811 46.5229 29.9162C45.8418 29.4513 45.2969 28.8581 44.8882 28.1366C44.4795 27.4152 44.2752 26.5615 44.2752 25.5755H47.8931C47.8931 26.1206 47.9772 26.5815 48.1455 26.9583C48.3138 27.335 48.5502 27.6396 48.8547 27.8721C49.1672 28.1046 49.5358 28.2729 49.9605 28.3771C50.3932 28.4813 50.8659 28.5334 51.3788 28.5334C52.0038 28.5334 52.5166 28.4452 52.9173 28.2689C53.3259 28.0925 53.6264 27.848 53.8187 27.5354C54.0191 27.2228 54.1192 26.8701 54.1192 26.4773Z" fill="#48A73D"/>
<path d="M66.9922 24.818H62.5329V22.0044H66.9922C67.6813 22.0044 68.2422 21.8921 68.6749 21.6677C69.1076 21.4352 69.4241 21.1146 69.6245 20.7058C69.8248 20.2969 69.925 19.836 69.925 19.323C69.925 18.802 69.8248 18.317 69.6245 17.8681C69.4241 17.4192 69.1076 17.0585 68.6749 16.7859C68.2422 16.5134 67.6813 16.3771 66.9922 16.3771H63.783V31.0585H60.1771V13.5515H66.9922C68.3624 13.5515 69.5363 13.8 70.5139 14.2969C71.4995 14.7859 72.2528 15.4633 72.7736 16.329C73.2944 17.1947 73.5549 18.1847 73.5549 19.299C73.5549 20.4292 73.2944 21.4072 72.7736 22.2328C72.2528 23.0585 71.4995 23.6957 70.5139 24.1446C69.5363 24.5935 68.3624 24.818 66.9922 24.818Z" fill="#48A73D"/>
<path d="M76.0429 13.5515H82.5695C83.9077 13.5515 85.0576 13.7519 86.0192 14.1527C86.9887 14.5535 87.734 15.1466 88.2548 15.9322C88.7757 16.7178 89.0361 17.6837 89.0361 18.83C89.0361 19.7679 88.8758 20.5735 88.5553 21.2468C88.2428 21.9122 87.7981 22.4693 87.2211 22.9182C86.6522 23.3591 85.9831 23.7118 85.2139 23.9763L84.072 24.5775H78.3988L78.3747 21.7639H82.5936C83.2266 21.7639 83.7515 21.6517 84.1682 21.4272C84.5848 21.2028 84.8973 20.8901 85.1057 20.4893C85.322 20.0885 85.4302 19.6236 85.4302 19.0945C85.4302 18.5334 85.326 18.0484 85.1177 17.6396C84.9094 17.2308 84.5928 16.9182 84.1682 16.7018C83.7435 16.4853 83.2106 16.3771 82.5695 16.3771H79.6488V31.0585H76.0429V13.5515ZM85.8269 31.0585L81.8364 23.2549L85.6466 23.2308L89.6851 30.8901V31.0585H85.8269Z" fill="#48A73D"/>
<path d="M95.6468 13.5515V31.0585H92.053V13.5515H95.6468Z" fill="#48A73D"/>
<path d="M113.268 13.5515V31.0585H109.662L102.63 19.323V31.0585H99.0243V13.5515H102.63L109.674 25.299V13.5515H113.268Z" fill="#48A73D"/>
<path d="M130.275 21.9082V28.846C130.003 29.1747 129.582 29.5314 129.013 29.9162C128.444 30.2929 127.711 30.6176 126.814 30.8901C125.916 31.1627 124.83 31.299 123.556 31.299C122.426 31.299 121.397 31.1146 120.467 30.7458C119.538 30.3691 118.736 29.82 118.063 29.0985C117.398 28.3771 116.885 27.4953 116.525 26.4533C116.164 25.4032 115.984 24.2048 115.984 22.8581V21.7639C115.984 20.4172 116.156 19.2188 116.501 18.1687C116.853 17.1186 117.354 16.2328 118.003 15.5114C118.652 14.7899 119.426 14.2408 120.323 13.8641C121.22 13.4873 122.218 13.299 123.316 13.299C124.838 13.299 126.088 13.5474 127.066 14.0444C128.044 14.5334 128.789 15.2148 129.302 16.0885C129.822 16.9543 130.143 17.9482 130.263 19.0705H126.765C126.677 18.4773 126.509 17.9603 126.261 17.5194C126.012 17.0785 125.656 16.7338 125.191 16.4853C124.734 16.2368 124.141 16.1126 123.412 16.1126C122.811 16.1126 122.274 16.2368 121.801 16.4853C121.337 16.7258 120.944 17.0825 120.623 17.5555C120.303 18.0284 120.059 18.6136 119.89 19.311C119.722 20.0084 119.638 20.818 119.638 21.7398V22.8581C119.638 23.7719 119.726 24.5815 119.902 25.2869C120.079 25.9843 120.339 26.5735 120.684 27.0545C121.036 27.5274 121.469 27.8841 121.982 28.1246C122.495 28.3651 123.092 28.4853 123.773 28.4853C124.342 28.4853 124.814 28.4372 125.191 28.341C125.576 28.2448 125.884 28.1286 126.116 27.9923C126.357 27.848 126.541 27.7118 126.669 27.5835V24.4813H123.376V21.9082H130.275Z" fill="#48A73D"/>
</svg>
