<svg width="64" height="45" viewBox="0 0 64 45" fill="none" xmlns="http://www.w3.org/2000/svg">
<rect width="63.9683" height="45" rx="5" fill="#FFD3DD"/>
<path d="M19.3303 18.3438C19.2508 17.5994 18.9156 17.0199 18.3247 16.6051C17.7394 16.1903 16.9781 15.983 16.0406 15.983C15.3815 15.983 14.8161 16.0824 14.3445 16.2812C13.873 16.4801 13.5122 16.75 13.2622 17.0909C13.0122 17.4318 12.8843 17.821 12.8786 18.2585C12.8786 18.6222 12.961 18.9375 13.1258 19.2045C13.2963 19.4716 13.5264 19.6989 13.8161 19.8864C14.1059 20.0682 14.4269 20.2216 14.7792 20.3466C15.1315 20.4716 15.4866 20.5767 15.8445 20.6619L17.4809 21.071C18.14 21.2244 18.7735 21.4318 19.3815 21.6932C19.9951 21.9545 20.5434 22.2841 21.0264 22.6818C21.515 23.0795 21.9014 23.5597 22.1855 24.1222C22.4695 24.6847 22.6116 25.3437 22.6116 26.0994C22.6116 27.1222 22.3502 28.0227 21.8275 28.8011C21.3048 29.5739 20.5491 30.179 19.5605 30.6165C18.5775 31.0483 17.3872 31.2642 15.9894 31.2642C14.6315 31.2642 13.4525 31.054 12.4525 30.6335C11.4582 30.2131 10.6798 29.5994 10.1173 28.7926C9.56046 27.9858 9.25932 27.0028 9.21386 25.8438H12.3247C12.3701 26.4517 12.5576 26.9574 12.8872 27.3608C13.2167 27.7642 13.6457 28.0653 14.1741 28.2642C14.7082 28.4631 15.3048 28.5625 15.9639 28.5625C16.6514 28.5625 17.2536 28.4602 17.7707 28.2557C18.2934 28.0455 18.7025 27.7557 18.998 27.3864C19.2934 27.0114 19.444 26.5739 19.4497 26.0739C19.444 25.6193 19.3105 25.2443 19.0491 24.9489C18.7877 24.6477 18.4213 24.3977 17.9497 24.1989C17.4838 23.9943 16.9383 23.8125 16.3133 23.6534L14.3275 23.142C12.89 22.7727 11.7536 22.2131 10.9184 21.4631C10.0889 20.7074 9.67409 19.7045 9.67409 18.4545C9.67409 17.4261 9.9525 16.5256 10.5093 15.7528C11.0718 14.9801 11.836 14.3807 12.8019 13.9545C13.7678 13.5227 14.8616 13.3068 16.0832 13.3068C17.3218 13.3068 18.407 13.5227 19.3389 13.9545C20.2764 14.3807 21.0122 14.9744 21.5463 15.7358C22.0803 16.4915 22.3559 17.3608 22.373 18.3438H19.3303ZM31.9333 25.1364H34.797L36.493 27.3352L37.7032 28.767L40.6095 32.5H37.5413L35.564 29.9943L34.7203 28.8011L31.9333 25.1364ZM41.0271 22.2727C41.0271 24.1534 40.6748 25.7642 39.9703 27.1051C39.2714 28.4403 38.3168 29.4631 37.1066 30.1733C35.9021 30.8835 34.5356 31.2386 33.0072 31.2386C31.4788 31.2386 30.1095 30.8835 28.8992 30.1733C27.6947 29.4574 26.7401 28.4318 26.0356 27.0966C25.3367 25.7557 24.9873 24.1477 24.9873 22.2727C24.9873 20.392 25.3367 18.7841 26.0356 17.4489C26.7401 16.108 27.6947 15.0824 28.8992 14.3722C30.1095 13.6619 31.4788 13.3068 33.0072 13.3068C34.5356 13.3068 35.9021 13.6619 37.1066 14.3722C38.3168 15.0824 39.2714 16.108 39.9703 17.4489C40.6748 18.7841 41.0271 20.392 41.0271 22.2727ZM37.8481 22.2727C37.8481 20.9489 37.6407 19.8324 37.2259 18.9233C36.8168 18.0085 36.2487 17.3182 35.5214 16.8523C34.7941 16.3807 33.9561 16.1449 33.0072 16.1449C32.0583 16.1449 31.2203 16.3807 30.493 16.8523C29.7657 17.3182 29.1947 18.0085 28.7799 18.9233C28.3708 19.8324 28.1663 20.9489 28.1663 22.2727C28.1663 23.5966 28.3708 24.7159 28.7799 25.6307C29.1947 26.5398 29.7657 27.2301 30.493 27.7017C31.2203 28.1676 32.0583 28.4006 33.0072 28.4006C33.9561 28.4006 34.7941 28.1676 35.5214 27.7017C36.2487 27.2301 36.8168 26.5398 37.2259 25.6307C37.6407 24.7159 37.8481 23.5966 37.8481 22.2727ZM44.0399 31V13.5455H47.2018V28.3494H54.8893V31H44.0399Z" fill="#F95C81"/>
</svg>
