<svg width="114" height="45" viewBox="0 0 114 45" fill="none" xmlns="http://www.w3.org/2000/svg">
<rect width="114" height="45" rx="5" fill="#ADC9E8"/>
<path d="M49.6364 9.13068V7.36364H58.9205V9.13068H55.3239V19H53.233V9.13068H49.6364ZM59.9148 7.36364H62.2955L65.142 12.5114H65.2557L68.1023 7.36364H70.483L66.25 14.6591V19H64.1477V14.6591L59.9148 7.36364ZM71.9759 19V7.36364H76.3395C77.2334 7.36364 77.9834 7.5303 78.5895 7.86364C79.1993 8.19697 79.6596 8.6553 79.9702 9.23864C80.2846 9.81818 80.4418 10.4773 80.4418 11.2159C80.4418 11.9621 80.2846 12.625 79.9702 13.2045C79.6558 13.7841 79.1918 14.2405 78.5781 14.5739C77.9645 14.9034 77.2088 15.0682 76.3111 15.0682H73.419V13.3352H76.027C76.5497 13.3352 76.9777 13.2443 77.3111 13.0625C77.6444 12.8807 77.8906 12.6307 78.0497 12.3125C78.2126 11.9943 78.294 11.6288 78.294 11.2159C78.294 10.803 78.2126 10.4394 78.0497 10.125C77.8906 9.81061 77.6425 9.56629 77.3054 9.39205C76.9721 9.21402 76.5421 9.125 76.0156 9.125H74.0838V19H71.9759ZM82.2727 19V7.36364H89.8409V9.13068H84.3807V12.2898H89.4489V14.0568H84.3807V17.233H89.8864V19H82.2727ZM56.4716 29.5625C56.4186 29.0663 56.1951 28.6799 55.8011 28.4034C55.411 28.1269 54.9034 27.9886 54.2784 27.9886C53.839 27.9886 53.4621 28.0549 53.1477 28.1875C52.8333 28.3201 52.5928 28.5 52.4261 28.7273C52.2595 28.9545 52.1742 29.214 52.1705 29.5057C52.1705 29.7481 52.2254 29.9583 52.3352 30.1364C52.4489 30.3144 52.6023 30.4659 52.7955 30.5909C52.9886 30.7121 53.2027 30.8144 53.4375 30.8977C53.6723 30.9811 53.9091 31.0511 54.1477 31.108L55.2386 31.3807C55.678 31.483 56.1004 31.6212 56.5057 31.7955C56.9148 31.9697 57.2803 32.1894 57.6023 32.4545C57.928 32.7197 58.1856 33.0398 58.375 33.4148C58.5644 33.7898 58.6591 34.2292 58.6591 34.733C58.6591 35.4148 58.4848 36.0152 58.1364 36.5341C57.7879 37.0492 57.2841 37.4527 56.625 37.7443C55.9697 38.0322 55.1761 38.1761 54.2443 38.1761C53.339 38.1761 52.553 38.036 51.8864 37.7557C51.2235 37.4754 50.7045 37.0663 50.3295 36.5284C49.9583 35.9905 49.7576 35.3352 49.7273 34.5625H51.8011C51.8314 34.9678 51.9564 35.3049 52.1761 35.5739C52.3958 35.8428 52.6818 36.0436 53.0341 36.1761C53.3902 36.3087 53.7879 36.375 54.2273 36.375C54.6856 36.375 55.0871 36.3068 55.4318 36.1705C55.7803 36.0303 56.053 35.8371 56.25 35.5909C56.447 35.3409 56.5473 35.0492 56.5511 34.7159C56.5473 34.4129 56.4583 34.1629 56.2841 33.9659C56.1098 33.7652 55.8655 33.5985 55.5511 33.4659C55.2405 33.3295 54.8769 33.2083 54.4602 33.1023L53.1364 32.7614C52.178 32.5152 51.4205 32.142 50.8636 31.642C50.3106 31.1383 50.0341 30.4697 50.0341 29.6364C50.0341 28.9508 50.2197 28.3504 50.5909 27.8352C50.9659 27.3201 51.4754 26.9205 52.1193 26.6364C52.7633 26.3485 53.4924 26.2045 54.3068 26.2045C55.1326 26.2045 55.8561 26.3485 56.4773 26.6364C57.1023 26.9205 57.5928 27.3163 57.9489 27.8239C58.3049 28.3277 58.4886 28.9072 58.5 29.5625H56.4716ZM70.4986 30.2898H68.3736C68.313 29.9413 68.2012 29.6326 68.0384 29.3636C67.8755 29.0909 67.6728 28.8598 67.4304 28.6705C67.188 28.4811 66.9115 28.339 66.6009 28.2443C66.294 28.1458 65.9626 28.0966 65.6065 28.0966C64.974 28.0966 64.4134 28.2557 63.9247 28.5739C63.4361 28.8883 63.0535 29.3504 62.777 29.9602C62.5005 30.5663 62.3622 31.3068 62.3622 32.1818C62.3622 33.072 62.5005 33.822 62.777 34.4318C63.0573 35.0379 63.4399 35.4962 63.9247 35.8068C64.4134 36.1136 64.9721 36.267 65.6009 36.267C65.9493 36.267 66.2751 36.2216 66.5781 36.1307C66.8849 36.036 67.1596 35.8977 67.402 35.7159C67.6482 35.5341 67.8546 35.3106 68.0213 35.0455C68.1918 34.7803 68.3092 34.4773 68.3736 34.1364L70.4986 34.1477C70.419 34.7008 70.2467 35.2197 69.9815 35.7045C69.7202 36.1894 69.3774 36.6174 68.9531 36.9886C68.5289 37.3561 68.0327 37.6439 67.4645 37.8523C66.8963 38.0568 66.2656 38.1591 65.5724 38.1591C64.5497 38.1591 63.6368 37.9223 62.8338 37.4489C62.0308 36.9754 61.3982 36.2917 60.9361 35.3977C60.474 34.5038 60.2429 33.4318 60.2429 32.1818C60.2429 30.928 60.4759 29.8561 60.9418 28.9659C61.4077 28.072 62.0421 27.3883 62.8452 26.9148C63.6482 26.4413 64.5573 26.2045 65.5724 26.2045C66.2202 26.2045 66.8224 26.2955 67.3793 26.4773C67.9361 26.6591 68.4323 26.9261 68.8679 27.2784C69.3035 27.6269 69.6615 28.0549 69.9418 28.5625C70.2259 29.0663 70.4115 29.642 70.4986 30.2898ZM72.429 38V26.3636H76.7926C77.6866 26.3636 78.4366 26.5189 79.0426 26.8295C79.6525 27.1402 80.1127 27.5758 80.4233 28.1364C80.7377 28.6932 80.8949 29.3428 80.8949 30.0852C80.8949 30.8314 80.7358 31.4792 80.4176 32.0284C80.1032 32.5739 79.6392 32.9962 79.0256 33.2955C78.4119 33.5909 77.6581 33.7386 76.7642 33.7386H73.6562V31.9886H76.4801C77.0028 31.9886 77.4309 31.9167 77.7642 31.7727C78.0975 31.625 78.3438 31.411 78.5028 31.1307C78.6657 30.8466 78.7472 30.4981 78.7472 30.0852C78.7472 29.6723 78.6657 29.3201 78.5028 29.0284C78.34 28.733 78.0919 28.5095 77.7585 28.358C77.4252 28.2027 76.9953 28.125 76.4688 28.125H74.5369V38H72.429ZM78.4403 32.7273L81.321 38H78.9688L76.1392 32.7273H78.4403ZM84.9432 26.3636V38H82.8352V26.3636H84.9432ZM87.2259 38V26.3636H91.5895C92.4834 26.3636 93.2334 26.5303 93.8395 26.8636C94.4493 27.197 94.9096 27.6553 95.2202 28.2386C95.5346 28.8182 95.6918 29.4773 95.6918 30.2159C95.6918 30.9621 95.5346 31.625 95.2202 32.2045C94.9058 32.7841 94.4418 33.2405 93.8281 33.5739C93.2145 33.9034 92.4588 34.0682 91.5611 34.0682H88.669V32.3352H91.277C91.7997 32.3352 92.2277 32.2443 92.5611 32.0625C92.8944 31.8807 93.1406 31.6307 93.2997 31.3125C93.4626 30.9943 93.544 30.6288 93.544 30.2159C93.544 29.803 93.4626 29.4394 93.2997 29.125C93.1406 28.8106 92.8925 28.5663 92.5554 28.392C92.2221 28.214 91.7921 28.125 91.2656 28.125H89.3338V38H87.2259ZM97.0114 28.1307V26.3636H106.295V28.1307H102.699V38H100.608V28.1307H97.0114Z" fill="#3178C6"/>
<path fill-rule="evenodd" clip-rule="evenodd" d="M9 6V39H42V6H9ZM16.2352 23.9025V22.5578L16.26 22.566V21.213L22.035 21.1883C25.2113 21.1883 27.8265 21.1965 27.8265 21.2213C27.8595 21.2378 27.8595 21.84 27.8595 22.5825V23.9025H23.5695V36.1126H20.5252V23.9025H16.2352ZM37.578 22.3598C37.0005 21.7575 36.357 21.378 35.5155 21.18L35.532 21.1635C34.9628 21.015 33.6015 20.9655 33.024 21.081C31.242 21.411 29.9963 22.566 29.6415 24.216C29.526 24.6863 29.5673 25.8578 29.691 26.3363C29.856 26.889 30.2108 27.5573 30.5985 27.9863C31.275 28.6958 32.001 29.1578 33.7088 29.8838C35.1938 30.5438 35.7218 30.8408 35.9858 31.2038C36.1755 31.4926 36.2333 31.6658 36.2333 32.0453C36.2333 32.4578 36.1013 32.7548 35.796 33.0353C35.0865 33.6788 33.651 33.7531 32.5785 33.2003C32.2238 33.0023 31.6133 32.4248 31.341 31.9958L31.1265 31.707L30.1943 32.2516L28.9568 32.9693L28.6433 33.1673C28.6103 33.2251 29.196 34.1078 29.5013 34.4378C30.2768 35.2876 31.539 35.9476 32.859 36.1951C33.4778 36.3023 34.7978 36.3188 35.3753 36.2198C37.215 35.9146 38.502 34.9823 39.03 33.6046C39.5003 32.3423 39.3435 30.6593 38.6423 29.5868C38.0235 28.6298 37.0005 27.9615 34.641 26.9468C33.3623 26.3858 32.9498 26.1135 32.727 25.6598C32.628 25.4453 32.5785 25.2968 32.5785 25.0328C32.5785 24.1665 33.2385 23.6468 34.2285 23.7128C34.9133 23.7623 35.3505 24.0263 35.7795 24.6368C35.9115 24.8513 36.0435 24.9915 36.0765 24.9668C36.9428 24.4305 38.37 23.4653 38.37 23.4158C38.337 23.2673 37.8833 22.6898 37.578 22.3598Z" fill="#3178C6"/>
</svg>
