<svg width="99" height="45" viewBox="0 0 99 45" fill="none" xmlns="http://www.w3.org/2000/svg">
<rect width="99" height="45" rx="5" fill="#D6F8D7"/>
<path fill-rule="evenodd" clip-rule="evenodd" d="M14.056 10.307C14.1265 10.4454 22.4254 24.9493 22.434 24.949C22.4445 24.9489 30.6708 10.5744 30.7775 10.3697L30.8196 10.2891H28.2389C25.673 10.2891 25.6583 10.2894 25.6432 10.3373C25.6349 10.3638 25.6165 10.3782 25.6024 10.3695C25.5884 10.3607 25.5832 10.3641 25.5912 10.377C25.6069 10.4027 25.2678 11.014 25.2486 10.9945C25.242 10.988 25.2367 10.997 25.2367 11.0146C25.2367 11.057 24.6526 12.0807 24.6348 12.0696C24.6271 12.0648 24.621 12.0748 24.621 12.0916C24.621 12.134 24.2978 12.7028 24.28 12.6917C24.2721 12.6868 24.2657 12.6965 24.2657 12.7135C24.2657 12.7669 23.9401 13.3231 23.9172 13.3087C23.905 13.3012 23.9017 13.3057 23.9096 13.3186C23.9253 13.3443 23.5861 13.9556 23.5669 13.9362C23.5605 13.9296 23.5551 13.9386 23.5551 13.9562C23.5551 13.9986 22.971 15.0223 22.9531 15.0112C22.9456 15.0064 22.9393 15.0164 22.9393 15.0332C22.9393 15.0892 22.6132 15.6425 22.5885 15.6284C22.5752 15.6208 22.5722 15.6233 22.5817 15.634C22.6 15.6544 22.4588 15.9332 22.4302 15.9332C22.4111 15.9332 22.3746 15.8355 22.3826 15.8058C22.3855 15.795 22.3793 15.7915 22.3689 15.798C22.3477 15.8111 22.1182 15.4166 22.1182 15.3669C22.1182 15.3495 22.113 15.3406 22.1064 15.3472C22.0867 15.3672 21.7483 14.755 21.7639 14.7274C21.772 14.7131 21.7697 14.7096 21.7589 14.7194C21.7342 14.7421 21.389 14.1396 21.4085 14.1078C21.4165 14.0949 21.4131 14.0905 21.401 14.098C21.378 14.1123 21.0525 13.5561 21.0525 13.5027C21.0525 13.4858 21.0462 13.4759 21.0387 13.4806C21.0208 13.4917 20.4367 12.468 20.4367 12.4256C20.4367 12.4081 20.4313 12.399 20.4249 12.4056C20.4057 12.425 20.0665 11.8137 20.0822 11.788C20.0901 11.7751 20.0867 11.7706 20.0746 11.7782C20.0517 11.7925 19.7261 11.2364 19.7261 11.1828C19.7261 11.166 19.7197 11.1562 19.7118 11.1611C19.694 11.1722 19.3708 10.6034 19.3708 10.561C19.3708 10.5442 19.364 10.5347 19.3555 10.5399C19.3471 10.5452 19.3088 10.4909 19.2706 10.4194L19.2011 10.2893L16.624 10.2892C15.2066 10.2891 14.051 10.2972 14.056 10.307Z" fill="#34445C"/>
<path fill-rule="evenodd" clip-rule="evenodd" d="M8.41278 10.2831C8.41278 10.293 8.45008 10.3635 8.49565 10.4398C8.54122 10.5161 8.57851 10.5825 8.57851 10.5873C8.57851 10.5922 8.64357 10.7073 8.72307 10.8432C8.80257 10.9791 8.89182 11.1334 8.92147 11.186C8.95106 11.2386 9.01247 11.3462 9.0579 11.4251C9.10333 11.504 9.36125 11.956 9.63102 12.4295C9.90086 12.9031 10.1528 13.3418 10.1908 13.4045C10.229 13.4672 10.2601 13.5239 10.2601 13.5305C10.2601 13.5372 10.285 13.5828 10.3153 13.6318C10.3867 13.747 10.5218 13.9786 10.5974 14.1156C10.6302 14.1748 10.694 14.2878 10.7395 14.3667C10.785 14.4456 11.0428 14.8976 11.3127 15.3711C11.5824 15.8447 11.8343 16.2834 11.8725 16.3461C11.9105 16.4088 11.9417 16.4655 11.9417 16.4721C11.9417 16.4788 11.9668 16.5244 11.9975 16.5734C12.0803 16.7061 12.297 17.0804 12.297 17.091C12.297 17.096 12.338 17.1685 12.3881 17.2521C12.4382 17.3356 12.7115 17.8129 12.9955 18.3127C13.2794 18.8125 13.5369 19.2616 13.5675 19.3107C13.5982 19.3598 13.6233 19.4058 13.6233 19.413C13.6233 19.42 13.6482 19.466 13.6785 19.515C13.7473 19.6258 13.8819 19.8564 13.9611 19.9988C14.0191 20.1031 14.3585 20.6993 14.9209 21.6849C15.0711 21.9479 15.2189 22.2033 15.2494 22.2524C15.2799 22.3015 15.3049 22.3474 15.3049 22.3546C15.3049 22.3616 15.3298 22.4076 15.3602 22.4566C15.4288 22.5675 15.5634 22.798 15.6427 22.9404C15.783 23.1926 16.4985 24.4448 16.562 24.5491C16.6001 24.6118 16.6313 24.6679 16.6313 24.6738C16.6313 24.6797 16.6936 24.7899 16.7699 24.9186C16.8461 25.0473 16.9354 25.201 16.9683 25.2602C17.0012 25.3194 17.0653 25.4324 17.1107 25.5114C17.1561 25.5902 17.414 26.0423 17.6838 26.5158C17.9536 26.9893 18.2055 27.428 18.2436 27.4907C18.2817 27.5534 18.3129 27.6101 18.3129 27.6168C18.3129 27.6234 18.3378 27.669 18.3681 27.718C18.4395 27.8332 18.5746 28.0649 18.6502 28.2018C18.683 28.261 18.7468 28.374 18.7923 28.453C18.8377 28.5319 19.0956 28.9839 19.3654 29.4574C19.6352 29.9309 19.8871 30.3696 19.9252 30.4323C19.9633 30.495 19.9945 30.5517 19.9945 30.5584C19.9945 30.565 20.0195 30.6106 20.0502 30.6596C20.1331 30.7923 20.3497 31.1666 20.3497 31.1772C20.3497 31.1823 20.3908 31.2547 20.4409 31.3383C20.491 31.4218 20.7643 31.8991 21.0482 32.3989C21.3321 32.8988 21.5896 33.3479 21.6203 33.3969C21.651 33.446 21.6761 33.492 21.6761 33.4991C21.6761 33.5063 21.7011 33.5522 21.7317 33.6013C21.7876 33.6909 21.9326 33.9404 22.0354 34.1238C22.4475 34.8594 22.43 34.8371 22.4977 34.7128C22.5246 34.6635 22.5994 34.5317 22.6639 34.4198C22.7284 34.308 22.8084 34.1681 22.8417 34.1089C22.875 34.0497 22.9737 33.8776 23.061 33.7263C23.1484 33.575 23.2498 33.3975 23.2863 33.3317C23.3229 33.266 23.4178 33.1009 23.4973 32.965C23.5769 32.8291 23.6419 32.7132 23.6419 32.7075C23.6419 32.7017 23.6669 32.6568 23.6975 32.6077C23.7465 32.5291 23.9963 32.0948 24.1682 31.7891C24.2015 31.73 24.2815 31.5901 24.3458 31.4782C24.4102 31.3664 24.4902 31.2265 24.5236 31.1673C24.557 31.1081 24.6614 30.9252 24.7556 30.7608C24.8497 30.5963 24.951 30.4188 24.9806 30.3662C25.0102 30.3135 25.0995 30.1593 25.179 30.0234C25.2585 29.8875 25.3235 29.7716 25.3235 29.7659C25.3235 29.7601 25.3485 29.7152 25.3791 29.6662C25.4281 29.5875 25.6778 29.1532 25.8499 28.8475C25.8832 28.7884 25.963 28.6485 26.0274 28.5366C26.0917 28.4249 26.1717 28.2849 26.2052 28.2257C26.2386 28.1665 26.343 27.9836 26.4372 27.8192C26.5313 27.6547 26.6326 27.4772 26.6622 27.4246C26.6918 27.3719 26.7811 27.2177 26.8606 27.0818C26.9401 26.9459 27.0052 26.83 27.0052 26.8242C27.0052 26.8185 27.0301 26.7736 27.0607 26.7246C27.1097 26.6459 27.3595 26.2116 27.5314 25.9059C27.5647 25.8468 27.6447 25.7068 27.709 25.595C27.7734 25.4833 27.8532 25.3433 27.8865 25.2841C27.9197 25.2249 28.0334 25.0272 28.1392 24.8449C28.2449 24.6624 28.3315 24.5102 28.3315 24.5065C28.3315 24.5028 28.4114 24.3634 28.5091 24.1968C28.6068 24.0301 28.6867 23.8889 28.6867 23.883C28.6867 23.877 28.7118 23.832 28.7423 23.783C28.792 23.7033 29.0518 23.2513 29.2129 22.9643C29.3136 22.7852 29.702 22.1081 29.8624 21.8323C29.9453 21.6898 30.0131 21.5686 30.0131 21.5628C30.0131 21.557 30.0381 21.5122 30.0687 21.4632C30.1182 21.3835 30.3778 20.9321 30.5393 20.6446C30.5725 20.5853 30.6703 20.4145 30.7564 20.2648C30.8426 20.1152 30.9131 19.9894 30.9131 19.9852C30.9131 19.981 30.9543 19.9098 31.0046 19.8268C31.0884 19.6885 31.5699 18.8492 31.6946 18.6237C31.7237 18.5711 31.8191 18.4043 31.9064 18.253C31.9939 18.1017 32.0926 17.9296 32.126 17.8703C32.2317 17.6827 32.2786 17.6005 32.3986 17.3921C32.4629 17.2802 32.5428 17.1403 32.5761 17.0811C32.6093 17.022 32.708 16.8497 32.7954 16.6985C32.8828 16.5472 32.9842 16.3696 33.0207 16.3039C33.0572 16.2381 33.1522 16.0731 33.2317 15.9372C33.3112 15.8013 33.3763 15.6854 33.3763 15.6796C33.3763 15.6739 33.4013 15.629 33.4319 15.58C33.4809 15.5013 33.7306 15.067 33.9026 14.7614C33.936 14.7021 34.0158 14.5622 34.0802 14.4505C34.1445 14.3386 34.2245 14.1987 34.258 14.1395C34.2914 14.0804 34.3958 13.8974 34.4899 13.7329C34.5841 13.5686 34.6854 13.3909 34.715 13.3383C34.7446 13.2858 34.8338 13.1315 34.9134 12.9956C34.9929 12.8597 35.0579 12.7438 35.0579 12.7381C35.0579 12.7323 35.0829 12.6874 35.1135 12.6384C35.1625 12.5597 35.4122 12.1254 35.5842 11.8197C35.6175 11.7605 35.6974 11.6206 35.7618 11.5089C35.8261 11.397 35.9062 11.2571 35.9396 11.1979C35.973 11.1388 36.0774 10.9558 36.1716 10.7913C36.4167 10.3633 36.4553 10.2935 36.4553 10.2785C36.4553 10.2712 35.195 10.2656 33.6546 10.2662L30.8539 10.2672L26.6854 17.5634C24.3927 21.5763 22.4977 24.8917 22.4743 24.9309L22.4317 25.0022L21.2427 22.9219C20.5887 21.7777 18.6948 18.4624 17.0339 15.5545L14.0141 10.2675L11.2134 10.2664C9.67301 10.2657 8.41271 10.2733 8.41278 10.2831Z" fill="#3CBB84"/>
<path fill-rule="evenodd" clip-rule="evenodd" d="M15.309 10.2833C16.0212 10.2869 17.1936 10.2869 17.9143 10.2833C18.6351 10.2797 18.0523 10.2767 16.6194 10.2767C15.1865 10.2767 14.5968 10.2797 15.309 10.2833ZM26.9382 10.2833C27.6504 10.2869 28.8228 10.2869 29.5435 10.2833C30.2642 10.2797 29.6815 10.2767 28.2485 10.2767C26.8156 10.2767 26.226 10.2797 26.9382 10.2833Z" fill="#E935B6"/>
<path d="M52.698 27.2683L56.7727 14H60.7405L54.7175 30.7696H52.104L52.698 27.2683ZM48.944 14L53.0069 27.2683L53.6246 30.7696H50.9873L45 14H48.944Z" fill="#3CBB84"/>
<path d="M71.9073 14H75.4593V25.0799C75.4593 26.3699 75.1742 27.4564 74.604 28.3394C74.0417 29.2224 73.2616 29.8866 72.2637 30.332C71.2738 30.7773 70.1333 31 68.8424 31C67.5515 31 66.4031 30.7773 65.3973 30.332C64.3994 29.8866 63.6154 29.2224 63.0451 28.3394C62.4828 27.4564 62.2017 26.3699 62.2017 25.0799V14H65.7656V25.0799C65.7656 25.8324 65.8883 26.4467 66.1338 26.9228C66.3794 27.3988 66.7318 27.7482 67.1911 27.9709C67.6584 28.1935 68.2088 28.3049 68.8424 28.3049C69.4918 28.3049 70.0422 28.1935 70.4937 27.9709C70.953 27.7482 71.3015 27.3988 71.5391 26.9228C71.7846 26.4467 71.9073 25.8324 71.9073 25.0799V14Z" fill="#3CBB84"/>
<path d="M90 28.0745V30.7696H80.7933V28.0745H90ZM81.9575 14V30.7696H78.3936V14H81.9575ZM88.8002 20.8299V23.456H80.7933V20.8299H88.8002ZM89.9881 14V16.7066H80.7933V14H89.9881Z" fill="#3CBB84"/>
</svg>
