<svg width="44" height="40" viewBox="0 0 44 40" fill="none" xmlns="http://www.w3.org/2000/svg">
<path d="M10.8725 12C10.31 13.6844 10.0002 15.5256 10.0002 17.4545C10.0002 25.4878 15.3728 32 22.0002 32C28.6277 32 34.0002 25.4878 34.0002 17.4545C34.0002 15.5256 33.6905 13.6844 33.128 12" stroke="#FF94A3" stroke-width="3" stroke-linecap="round" stroke-linejoin="round"/>
<path d="M27.0002 38C27.0002 38 25.6363 32 22.0002 32C18.3642 32 17.0002 38 17.0002 38" stroke="#FF94A3" stroke-width="3" stroke-linecap="round" stroke-linejoin="round"/>
<path d="M35.0407 6.45934C35.6245 9.79268 33.0011 12 33.0011 12C33.0011 12 29.794 10.874 29.2102 7.54066C28.6265 4.20732 31.2498 2 31.2498 2C31.2498 2 34.457 3.12601 35.0407 6.45934Z" stroke="#FF94A3" stroke-width="3" stroke-linecap="round" stroke-linejoin="round"/>
<path d="M20.0002 14L22.0002 13V23M24.0002 23H20.0002" stroke="#FF94A3" stroke-width="3" stroke-linecap="round" stroke-linejoin="round"/>
<path d="M40.1886 20.2785C37.6259 22.8122 34.1559 21.8006 34.1559 21.8006C34.1559 21.8006 33.2485 18.2552 35.8112 15.7215C38.3739 13.1878 41.844 14.1994 41.844 14.1994C41.844 14.1994 42.7513 17.7448 40.1886 20.2785Z" stroke="#FF94A3" stroke-width="3" stroke-linecap="round" stroke-linejoin="round"/>
<path d="M34.4672 32.3791C31.4672 31.228 31.0002 28 31.0002 28C31.0002 28 33.5333 25.9232 36.5333 27.0744C39.5333 28.2256 40.0002 31.4535 40.0002 31.4535C40.0002 31.4535 37.4672 33.5303 34.4672 32.3791Z" stroke="#FF94A3" stroke-width="3" stroke-linecap="round" stroke-linejoin="round"/>
<path d="M9.53326 32.3792C12.5333 31.228 13.0002 28 13.0002 28C13.0002 28 10.4672 25.9232 7.46723 27.0744C4.46723 28.2256 4.00024 31.4536 4.00024 31.4536C4.00024 31.4536 6.53326 33.5304 9.53326 32.3792Z" stroke="#FF94A3" stroke-width="3" stroke-linecap="round" stroke-linejoin="round"/>
<path d="M3.81129 20.2785C6.374 22.8122 9.84406 21.8006 9.84406 21.8006C9.84406 21.8006 10.7514 18.2552 8.18871 15.7215C5.626 13.1878 2.15594 14.1994 2.15594 14.1994C2.15594 14.1994 1.24858 17.7448 3.81129 20.2785Z" stroke="#FF94A3" stroke-width="3" stroke-linecap="round" stroke-linejoin="round"/>
<path d="M8.95999 6.45934C8.37623 9.79268 10.9996 12 10.9996 12C10.9996 12 14.2067 10.874 14.7905 7.54066C15.3743 4.20732 12.7509 2 12.7509 2C12.7509 2 9.54375 3.12601 8.95999 6.45934Z" stroke="#FF94A3" stroke-width="3" stroke-linecap="round" stroke-linejoin="round"/>
</svg>
