<svg width="1040" height="235" viewBox="0 0 1040 235" fill="none" xmlns="http://www.w3.org/2000/svg">
<g filter="url(#filter0_d_220_2)">
<rect x="6" y="6" width="996" height="191" rx="8" fill="white"/>
</g>
<rect x="26" y="23" width="18.7717" height="18.7717" rx="5" fill="#E8EAEE"/>
<rect x="701.472" y="23" width="18.7717" height="18.7717" rx="5" fill="#E8EAEE"/>
<rect x="363.736" y="23" width="18.7717" height="18.7717" rx="5" fill="#E8EAEE"/>
<rect x="194.868" y="23" width="18.7717" height="18.7717" rx="5" fill="#93E7A2"/>
<rect x="870.34" y="23" width="18.7717" height="18.7717" rx="5" fill="#93E7A2"/>
<rect x="532.604" y="23" width="18.7717" height="18.7717" rx="5" fill="#93E7A2"/>
<rect x="50.1239" y="23" width="18.7717" height="18.7717" rx="5" fill="#93E7A2"/>
<rect x="725.596" y="23" width="18.7717" height="18.7717" rx="5" fill="#E8EAEE"/>
<rect x="387.86" y="23" width="18.7717" height="18.7717" rx="5" fill="#E8EAEE"/>
<rect x="218.992" y="23" width="18.7717" height="18.7717" rx="5" fill="#93E7A2"/>
<rect x="894.464" y="23" width="18.7717" height="18.7717" rx="5" fill="#3EBE5E"/>
<rect x="556.728" y="23" width="18.7717" height="18.7717" rx="5" fill="#3EBE5E"/>
<rect x="74.2478" y="23" width="18.7717" height="18.7717" rx="5" fill="#3EBE5E"/>
<rect x="749.72" y="23" width="18.7717" height="18.7717" rx="5" fill="#3EBE5E"/>
<rect x="411.984" y="23" width="18.7717" height="18.7717" rx="5" fill="#93E7A2"/>
<rect x="243.116" y="23" width="18.7717" height="18.7717" rx="5" fill="#93E7A2"/>
<rect x="918.588" y="23" width="18.7717" height="18.7717" rx="5" fill="#3EBE5E"/>
<rect x="580.852" y="23" width="18.7717" height="18.7717" rx="5" fill="#E8EAEE"/>
<rect x="98.3719" y="23" width="18.7717" height="18.7717" rx="5" fill="#93E7A2"/>
<rect x="773.844" y="23" width="18.7717" height="18.7717" rx="5" fill="#3EBE5E"/>
<rect x="436.108" y="23" width="18.7717" height="18.7717" rx="5" fill="#E8EAEE"/>
<rect x="267.24" y="23" width="18.7717" height="18.7717" rx="5" fill="#E8EAEE"/>
<rect x="942.712" y="23" width="18.7717" height="18.7717" rx="5" fill="#216435"/>
<rect x="604.976" y="23" width="18.7717" height="18.7717" rx="5" fill="#E8EAEE"/>
<rect x="122.496" y="23" width="18.7717" height="18.7717" rx="5" fill="#E8EAEE"/>
<rect x="797.968" y="23" width="18.7717" height="18.7717" rx="5" fill="#93E7A2"/>
<rect x="460.232" y="23" width="18.7717" height="18.7717" rx="5" fill="#3EBE5E"/>
<rect x="291.364" y="23" width="18.7717" height="18.7717" rx="5" fill="#E8EAEE"/>
<rect x="966.836" y="23" width="18.7717" height="18.7717" rx="5" fill="#93E7A2"/>
<rect x="629.1" y="23" width="18.7717" height="18.7717" rx="5" fill="#93E7A2"/>
<rect x="146.62" y="23" width="18.7717" height="18.7717" rx="5" fill="#E8EAEE"/>
<rect x="822.092" y="23" width="18.7717" height="18.7717" rx="5" fill="#E8EAEE"/>
<rect x="484.356" y="23" width="18.7717" height="18.7717" rx="5" fill="#3EBE5E"/>
<rect x="315.488" y="23" width="18.7717" height="18.7717" rx="5" fill="#93E7A2"/>
<rect x="653.224" y="23" width="18.7717" height="18.7717" rx="5" fill="#93E7A2"/>
<rect x="170.744" y="23" width="18.7717" height="18.7717" rx="5" fill="#E8EAEE"/>
<rect x="846.216" y="23" width="18.7717" height="18.7717" rx="5" fill="#E8EAEE"/>
<rect x="508.48" y="23" width="18.7717" height="18.7717" rx="5" fill="#3EBE5E"/>
<rect x="339.612" y="23" width="18.7717" height="18.7717" rx="5" fill="#E8EAEE"/>
<rect x="677.348" y="23" width="18.7717" height="18.7717" rx="5" fill="#E8EAEE"/>
<rect x="26" y="46.3102" width="18.7717" height="18.7717" rx="5" fill="#3EBE5E"/>
<rect x="701.472" y="46.3102" width="18.7717" height="18.7717" rx="5" fill="#E8EAEE"/>
<rect x="363.736" y="46.3102" width="18.7717" height="18.7717" rx="5" fill="#E8EAEE"/>
<rect x="194.868" y="46.3102" width="18.7717" height="18.7717" rx="5" fill="#3EBE5E"/>
<rect x="870.34" y="46.3102" width="18.7717" height="18.7717" rx="5" fill="#E8EAEE"/>
<rect x="532.604" y="46.3102" width="18.7717" height="18.7717" rx="5" fill="#E8EAEE"/>
<rect x="50.1239" y="46.3102" width="18.7717" height="18.7717" rx="5" fill="#3EBE5E"/>
<rect x="725.596" y="46.3102" width="18.7717" height="18.7717" rx="5" fill="#3EBE5E"/>
<rect x="387.86" y="46.3102" width="18.7717" height="18.7717" rx="5" fill="#E8EAEE"/>
<rect x="218.992" y="46.3102" width="18.7717" height="18.7717" rx="5" fill="#E8EAEE"/>
<rect x="894.464" y="46.3102" width="18.7717" height="18.7717" rx="5" fill="#E8EAEE"/>
<rect x="556.728" y="46.3102" width="18.7717" height="18.7717" rx="5" fill="#E8EAEE"/>
<rect x="74.2478" y="46.3102" width="18.7717" height="18.7717" rx="5" fill="#E8EAEE"/>
<rect x="749.72" y="46.3102" width="18.7717" height="18.7717" rx="5" fill="#216435"/>
<rect x="411.984" y="46.3102" width="18.7717" height="18.7717" rx="5" fill="#3EBE5E"/>
<rect x="243.116" y="46.3102" width="18.7717" height="18.7717" rx="5" fill="#93E7A2"/>
<rect x="918.588" y="46.3102" width="18.7717" height="18.7717" rx="5" fill="#2F984A"/>
<rect x="580.852" y="46.3102" width="18.7717" height="18.7717" rx="5" fill="#E8EAEE"/>
<rect x="98.3719" y="46.3102" width="18.7717" height="18.7717" rx="5" fill="#E8EAEE"/>
<rect x="773.844" y="46.3102" width="18.7717" height="18.7717" rx="5" fill="#E8EAEE"/>
<rect x="436.108" y="46.3102" width="18.7717" height="18.7717" rx="5" fill="#E8EAEE"/>
<rect x="267.24" y="46.3102" width="18.7717" height="18.7717" rx="5" fill="#93E7A2"/>
<rect x="942.712" y="46.3102" width="18.7717" height="18.7717" rx="5" fill="#E8EAEE"/>
<rect x="604.976" y="46.3102" width="18.7717" height="18.7717" rx="5" fill="#93E7A2"/>
<rect x="122.496" y="46.3102" width="18.7717" height="18.7717" rx="5" fill="#2F984A"/>
<rect x="797.968" y="46.3102" width="18.7717" height="18.7717" rx="5" fill="#E8EAEE"/>
<rect x="460.232" y="46.3102" width="18.7717" height="18.7717" rx="5" fill="#E8EAEE"/>
<rect x="291.364" y="46.3102" width="18.7717" height="18.7717" rx="5" fill="#E8EAEE"/>
<rect x="966.836" y="46.3102" width="18.7717" height="18.7717" rx="5" fill="#E8EAEE"/>
<rect x="629.1" y="46.3102" width="18.7717" height="18.7717" rx="5" fill="#E8EAEE"/>
<rect x="146.62" y="46.3102" width="18.7717" height="18.7717" rx="5" fill="#E8EAEE"/>
<rect x="822.092" y="46.3102" width="18.7717" height="18.7717" rx="5" fill="#3EBE5E"/>
<rect x="484.356" y="46.3102" width="18.7717" height="18.7717" rx="5" fill="#E8EAEE"/>
<rect x="315.488" y="46.3102" width="18.7717" height="18.7717" rx="5" fill="#2F984A"/>
<rect x="653.224" y="46.3102" width="18.7717" height="18.7717" rx="5" fill="#E8EAEE"/>
<rect x="170.744" y="46.3102" width="18.7717" height="18.7717" rx="5" fill="#93E7A2"/>
<rect x="846.216" y="46.3102" width="18.7717" height="18.7717" rx="5" fill="#E8EAEE"/>
<rect x="508.48" y="46.3102" width="18.7717" height="18.7717" rx="5" fill="#93E7A2"/>
<rect x="339.612" y="46.3102" width="18.7717" height="18.7717" rx="5" fill="#93E7A2"/>
<rect x="677.348" y="46.3102" width="18.7717" height="18.7717" rx="5" fill="#93E7A2"/>
<rect x="26" y="69.076" width="18.7717" height="18.7717" rx="5" fill="#93E7A2"/>
<rect x="701.472" y="69.076" width="18.7717" height="18.7717" rx="5" fill="#E8EAEE"/>
<rect x="363.736" y="69.076" width="18.7717" height="18.7717" rx="5" fill="#3EBE5E"/>
<rect x="194.868" y="69.076" width="18.7717" height="18.7717" rx="5" fill="#E8EAEE"/>
<rect x="870.34" y="69.076" width="18.7717" height="18.7717" rx="5" fill="#E8EAEE"/>
<rect x="532.604" y="69.076" width="18.7717" height="18.7717" rx="5" fill="#E8EAEE"/>
<rect x="50.1239" y="69.076" width="18.7717" height="18.7717" rx="5" fill="#E8EAEE"/>
<rect x="725.596" y="69.076" width="18.7717" height="18.7717" rx="5" fill="#3EBE5E"/>
<rect x="387.86" y="69.076" width="18.7717" height="18.7717" rx="5" fill="#E8EAEE"/>
<rect x="218.992" y="69.076" width="18.7717" height="18.7717" rx="5" fill="#E8EAEE"/>
<rect x="894.464" y="69.076" width="18.7717" height="18.7717" rx="5" fill="#E8EAEE"/>
<rect x="556.728" y="69.076" width="18.7717" height="18.7717" rx="5" fill="#E8EAEE"/>
<rect x="74.2478" y="69.076" width="18.7717" height="18.7717" rx="5" fill="#E8EAEE"/>
<rect x="749.72" y="69.076" width="18.7717" height="18.7717" rx="5" fill="#E8EAEE"/>
<rect x="411.984" y="69.076" width="18.7717" height="18.7717" rx="5" fill="#3EBE5E"/>
<rect x="243.116" y="69.076" width="18.7717" height="18.7717" rx="5" fill="#E8EAEE"/>
<rect x="918.588" y="69.076" width="18.7717" height="18.7717" rx="5" fill="#93E7A2"/>
<rect x="580.852" y="69.076" width="18.7717" height="18.7717" rx="5" fill="#E8EAEE"/>
<rect x="98.3719" y="69.076" width="18.7717" height="18.7717" rx="5" fill="#E8EAEE"/>
<rect x="773.844" y="69.076" width="18.7717" height="18.7717" rx="5" fill="#E8EAEE"/>
<rect x="436.108" y="69.076" width="18.7717" height="18.7717" rx="5" fill="#E8EAEE"/>
<rect x="267.24" y="69.076" width="18.7717" height="18.7717" rx="5" fill="#93E7A2"/>
<rect x="942.712" y="69.076" width="18.7717" height="18.7717" rx="5" fill="#E8EAEE"/>
<rect x="604.976" y="69.076" width="18.7717" height="18.7717" rx="5" fill="#93E7A2"/>
<rect x="122.496" y="69.076" width="18.7717" height="18.7717" rx="5" fill="#E8EAEE"/>
<rect x="797.968" y="69.076" width="18.7717" height="18.7717" rx="5" fill="#E8EAEE"/>
<rect x="460.232" y="69.076" width="18.7717" height="18.7717" rx="5" fill="#E8EAEE"/>
<rect x="291.364" y="69.076" width="18.7717" height="18.7717" rx="5" fill="#E8EAEE"/>
<rect x="966.836" y="69.076" width="18.7717" height="18.7717" rx="5" fill="#E8EAEE"/>
<rect x="629.1" y="69.076" width="18.7717" height="18.7717" rx="5" fill="#E8EAEE"/>
<rect x="146.62" y="69.076" width="18.7717" height="18.7717" rx="5" fill="#E8EAEE"/>
<rect x="822.092" y="69.076" width="18.7717" height="18.7717" rx="5" fill="#E8EAEE"/>
<rect x="484.356" y="69.076" width="18.7717" height="18.7717" rx="5" fill="#E8EAEE"/>
<rect x="315.488" y="69.076" width="18.7717" height="18.7717" rx="5" fill="#216435"/>
<rect x="653.224" y="69.076" width="18.7717" height="18.7717" rx="5" fill="#E8EAEE"/>
<rect x="170.744" y="69.076" width="18.7717" height="18.7717" rx="5" fill="#93E7A2"/>
<rect x="846.216" y="69.076" width="18.7717" height="18.7717" rx="5" fill="#E8EAEE"/>
<rect x="508.48" y="69.076" width="18.7717" height="18.7717" rx="5" fill="#93E7A2"/>
<rect x="339.612" y="69.076" width="18.7717" height="18.7717" rx="5" fill="#E8EAEE"/>
<rect x="677.348" y="69.076" width="18.7717" height="18.7717" rx="5" fill="#93E7A2"/>
<rect x="26" y="92.1141" width="18.7717" height="18.7717" rx="5" fill="#3EBE5E"/>
<rect x="701.472" y="92.1141" width="18.7717" height="18.7717" rx="5" fill="#E8EAEE"/>
<rect x="363.736" y="92.1141" width="18.7717" height="18.7717" rx="5" fill="#93E7A2"/>
<rect x="194.868" y="92.1141" width="18.7717" height="18.7717" rx="5" fill="#E8EAEE"/>
<rect x="870.34" y="92.1141" width="18.7717" height="18.7717" rx="5" fill="#E8EAEE"/>
<rect x="532.604" y="92.1141" width="18.7717" height="18.7717" rx="5" fill="#E8EAEE"/>
<rect x="50.1239" y="92.1141" width="18.7717" height="18.7717" rx="5" fill="#E8EAEE"/>
<rect x="725.596" y="92.1141" width="18.7717" height="18.7717" rx="5" fill="#93E7A2"/>
<rect x="387.86" y="92.1141" width="18.7717" height="18.7717" rx="5" fill="#93E7A2"/>
<rect x="218.992" y="92.1141" width="18.7717" height="18.7717" rx="5" fill="#E8EAEE"/>
<rect x="894.464" y="92.1141" width="18.7717" height="18.7717" rx="5" fill="#E8EAEE"/>
<rect x="556.728" y="92.1141" width="18.7717" height="18.7717" rx="5" fill="#E8EAEE"/>
<rect x="74.2478" y="92.1141" width="18.7717" height="18.7717" rx="5" fill="#E8EAEE"/>
<rect x="749.72" y="92.1141" width="18.7717" height="18.7717" rx="5" fill="#E8EAEE"/>
<rect x="411.984" y="92.1141" width="18.7717" height="18.7717" rx="5" fill="#216435"/>
<rect x="243.116" y="92.1141" width="18.7717" height="18.7717" rx="5" fill="#E8EAEE"/>
<rect x="918.588" y="92.1141" width="18.7717" height="18.7717" rx="5" fill="#2F984A"/>
<rect x="580.852" y="92.1141" width="18.7717" height="18.7717" rx="5" fill="#E8EAEE"/>
<rect x="98.3719" y="92.1141" width="18.7717" height="18.7717" rx="5" fill="#E8EAEE"/>
<rect x="773.844" y="92.1141" width="18.7717" height="18.7717" rx="5" fill="#E8EAEE"/>
<rect x="436.108" y="92.1141" width="18.7717" height="18.7717" rx="5" fill="#E8EAEE"/>
<rect x="267.24" y="92.1141" width="18.7717" height="18.7717" rx="5" fill="#93E7A2"/>
<rect x="942.712" y="92.1141" width="18.7717" height="18.7717" rx="5" fill="#E8EAEE"/>
<rect x="604.976" y="92.1141" width="18.7717" height="18.7717" rx="5" fill="#3EBE5E"/>
<rect x="122.496" y="92.1141" width="18.7717" height="18.7717" rx="5" fill="#E8EAEE"/>
<rect x="797.968" y="92.1141" width="18.7717" height="18.7717" rx="5" fill="#E8EAEE"/>
<rect x="460.232" y="92.1141" width="18.7717" height="18.7717" rx="5" fill="#E8EAEE"/>
<rect x="291.364" y="92.1141" width="18.7717" height="18.7717" rx="5" fill="#E8EAEE"/>
<rect x="966.836" y="92.1141" width="18.7717" height="18.7717" rx="5" fill="#E8EAEE"/>
<rect x="629.1" y="92.1141" width="18.7717" height="18.7717" rx="5" fill="#93E7A2"/>
<rect x="146.62" y="92.1141" width="18.7717" height="18.7717" rx="5" fill="#E8EAEE"/>
<rect x="822.092" y="92.1141" width="18.7717" height="18.7717" rx="5" fill="#E8EAEE"/>
<rect x="484.356" y="92.1141" width="18.7717" height="18.7717" rx="5" fill="#E8EAEE"/>
<rect x="315.488" y="92.1141" width="18.7717" height="18.7717" rx="5" fill="#93E7A2"/>
<rect x="653.224" y="92.1141" width="18.7717" height="18.7717" rx="5" fill="#3EBE5E"/>
<rect x="170.744" y="92.1141" width="18.7717" height="18.7717" rx="5" fill="#3EBE5E"/>
<rect x="846.216" y="92.1141" width="18.7717" height="18.7717" rx="5" fill="#E8EAEE"/>
<rect x="508.48" y="92.1141" width="18.7717" height="18.7717" rx="5" fill="#93E7A2"/>
<rect x="339.612" y="92.1141" width="18.7717" height="18.7717" rx="5" fill="#E8EAEE"/>
<rect x="677.348" y="92.1141" width="18.7717" height="18.7717" rx="5" fill="#93E7A2"/>
<rect x="26" y="115.152" width="18.7717" height="18.7717" rx="5" fill="#3EBE5E"/>
<rect x="701.472" y="115.152" width="18.7717" height="18.7717" rx="5" fill="#E8EAEE"/>
<rect x="363.736" y="115.152" width="18.7717" height="18.7717" rx="5" fill="#E8EAEE"/>
<rect x="194.868" y="115.152" width="18.7717" height="18.7717" rx="5" fill="#E8EAEE"/>
<rect x="870.34" y="115.152" width="18.7717" height="18.7717" rx="5" fill="#E8EAEE"/>
<rect x="532.604" y="115.152" width="18.7717" height="18.7717" rx="5" fill="#E8EAEE"/>
<rect x="50.1239" y="115.152" width="18.7717" height="18.7717" rx="5" fill="#E8EAEE"/>
<rect x="725.596" y="115.152" width="18.7717" height="18.7717" rx="5" fill="#3EBE5E"/>
<rect x="387.86" y="115.152" width="18.7717" height="18.7717" rx="5" fill="#93E7A2"/>
<rect x="218.992" y="115.152" width="18.7717" height="18.7717" rx="5" fill="#E8EAEE"/>
<rect x="894.464" y="115.152" width="18.7717" height="18.7717" rx="5" fill="#E8EAEE"/>
<rect x="556.728" y="115.152" width="18.7717" height="18.7717" rx="5" fill="#E8EAEE"/>
<rect x="74.2478" y="115.152" width="18.7717" height="18.7717" rx="5" fill="#E8EAEE"/>
<rect x="749.72" y="115.152" width="18.7717" height="18.7717" rx="5" fill="#E8EAEE"/>
<rect x="411.984" y="115.152" width="18.7717" height="18.7717" rx="5" fill="#2F984A"/>
<rect x="243.116" y="115.152" width="18.7717" height="18.7717" rx="5" fill="#E8EAEE"/>
<rect x="918.588" y="115.152" width="18.7717" height="18.7717" rx="5" fill="#93E7A2"/>
<rect x="580.852" y="115.152" width="18.7717" height="18.7717" rx="5" fill="#E8EAEE"/>
<rect x="98.3719" y="115.152" width="18.7717" height="18.7717" rx="5" fill="#E8EAEE"/>
<rect x="773.844" y="115.152" width="18.7717" height="18.7717" rx="5" fill="#E8EAEE"/>
<rect x="436.108" y="115.152" width="18.7717" height="18.7717" rx="5" fill="#E8EAEE"/>
<rect x="267.24" y="115.152" width="18.7717" height="18.7717" rx="5" fill="#3EBE5E"/>
<rect x="942.712" y="115.152" width="18.7717" height="18.7717" rx="5" fill="#E8EAEE"/>
<rect x="604.976" y="115.152" width="18.7717" height="18.7717" rx="5" fill="#3EBE5E"/>
<rect x="122.496" y="115.152" width="18.7717" height="18.7717" rx="5" fill="#E8EAEE"/>
<rect x="797.968" y="115.152" width="18.7717" height="18.7717" rx="5" fill="#E8EAEE"/>
<rect x="460.232" y="115.152" width="18.7717" height="18.7717" rx="5" fill="#E8EAEE"/>
<rect x="291.364" y="115.152" width="18.7717" height="18.7717" rx="5" fill="#E8EAEE"/>
<rect x="966.836" y="115.152" width="18.7717" height="18.7717" rx="5" fill="#E8EAEE"/>
<rect x="629.1" y="115.152" width="18.7717" height="18.7717" rx="5" fill="#E8EAEE"/>
<rect x="146.62" y="115.152" width="18.7717" height="18.7717" rx="5" fill="#E8EAEE"/>
<rect x="822.092" y="115.152" width="18.7717" height="18.7717" rx="5" fill="#E8EAEE"/>
<rect x="484.356" y="115.152" width="18.7717" height="18.7717" rx="5" fill="#E8EAEE"/>
<rect x="315.488" y="115.152" width="18.7717" height="18.7717" rx="5" fill="#216435"/>
<rect x="653.224" y="115.152" width="18.7717" height="18.7717" rx="5" fill="#E8EAEE"/>
<rect x="170.744" y="115.152" width="18.7717" height="18.7717" rx="5" fill="#93E7A2"/>
<rect x="846.216" y="115.152" width="18.7717" height="18.7717" rx="5" fill="#E8EAEE"/>
<rect x="508.48" y="115.152" width="18.7717" height="18.7717" rx="5" fill="#93E7A2"/>
<rect x="339.612" y="115.152" width="18.7717" height="18.7717" rx="5" fill="#E8EAEE"/>
<rect x="677.348" y="115.152" width="18.7717" height="18.7717" rx="5" fill="#3EBE5E"/>
<rect x="26" y="138.19" width="18.7717" height="18.7717" rx="5" fill="#216435"/>
<rect x="701.472" y="138.19" width="18.7717" height="18.7717" rx="5" fill="#E8EAEE"/>
<rect x="363.736" y="138.19" width="18.7717" height="18.7717" rx="5" fill="#E8EAEE"/>
<rect x="194.868" y="138.19" width="18.7717" height="18.7717" rx="5" fill="#93E7A2"/>
<rect x="870.34" y="138.19" width="18.7717" height="18.7717" rx="5" fill="#E8EAEE"/>
<rect x="532.604" y="138.19" width="18.7717" height="18.7717" rx="5" fill="#E8EAEE"/>
<rect x="50.1239" y="138.19" width="18.7717" height="18.7717" rx="5" fill="#2F984A"/>
<rect x="725.596" y="138.19" width="18.7717" height="18.7717" rx="5" fill="#3EBE5E"/>
<rect x="387.86" y="138.19" width="18.7717" height="18.7717" rx="5" fill="#3EBE5E"/>
<rect x="218.992" y="138.19" width="18.7717" height="18.7717" rx="5" fill="#E8EAEE"/>
<rect x="894.464" y="138.19" width="18.7717" height="18.7717" rx="5" fill="#E8EAEE"/>
<rect x="556.728" y="138.19" width="18.7717" height="18.7717" rx="5" fill="#E8EAEE"/>
<rect x="74.2478" y="138.19" width="18.7717" height="18.7717" rx="5" fill="#E8EAEE"/>
<rect x="749.72" y="138.19" width="18.7717" height="18.7717" rx="5" fill="#93E7A2"/>
<rect x="411.984" y="138.19" width="18.7717" height="18.7717" rx="5" fill="#93E7A2"/>
<rect x="243.116" y="138.19" width="18.7717" height="18.7717" rx="5" fill="#3EBE5E"/>
<rect x="918.588" y="138.19" width="18.7717" height="18.7717" rx="5" fill="#3EBE5E"/>
<rect x="580.852" y="138.19" width="18.7717" height="18.7717" rx="5" fill="#E8EAEE"/>
<rect x="98.3719" y="138.19" width="18.7717" height="18.7717" rx="5" fill="#E8EAEE"/>
<rect x="773.844" y="138.19" width="18.7717" height="18.7717" rx="5" fill="#E8EAEE"/>
<rect x="436.108" y="138.19" width="18.7717" height="18.7717" rx="5" fill="#E8EAEE"/>
<rect x="267.24" y="138.19" width="18.7717" height="18.7717" rx="5" fill="#3EBE5E"/>
<rect x="942.712" y="138.19" width="18.7717" height="18.7717" rx="5" fill="#E8EAEE"/>
<rect x="604.976" y="138.19" width="18.7717" height="18.7717" rx="5" fill="#2F984A"/>
<rect x="122.496" y="138.19" width="18.7717" height="18.7717" rx="5" fill="#3EBE5E"/>
<rect x="797.968" y="138.19" width="18.7717" height="18.7717" rx="5" fill="#E8EAEE"/>
<rect x="460.232" y="138.19" width="18.7717" height="18.7717" rx="5" fill="#E8EAEE"/>
<rect x="291.364" y="138.19" width="18.7717" height="18.7717" rx="5" fill="#E8EAEE"/>
<rect x="966.836" y="138.19" width="18.7717" height="18.7717" rx="5" fill="#E8EAEE"/>
<rect x="629.1" y="138.19" width="18.7717" height="18.7717" rx="5" fill="#E8EAEE"/>
<rect x="146.62" y="138.19" width="18.7717" height="18.7717" rx="5" fill="#E8EAEE"/>
<rect x="822.092" y="138.19" width="18.7717" height="18.7717" rx="5" fill="#2F984A"/>
<rect x="484.356" y="138.19" width="18.7717" height="18.7717" rx="5" fill="#E8EAEE"/>
<rect x="315.488" y="138.19" width="18.7717" height="18.7717" rx="5" fill="#93E7A2"/>
<rect x="653.224" y="138.19" width="18.7717" height="18.7717" rx="5" fill="#E8EAEE"/>
<rect x="170.744" y="138.19" width="18.7717" height="18.7717" rx="5" fill="#2F984A"/>
<rect x="846.216" y="138.19" width="18.7717" height="18.7717" rx="5" fill="#E8EAEE"/>
<rect x="508.48" y="138.19" width="18.7717" height="18.7717" rx="5" fill="#3EBE5E"/>
<rect x="339.612" y="138.19" width="18.7717" height="18.7717" rx="5" fill="#E8EAEE"/>
<rect x="677.348" y="138.19" width="18.7717" height="18.7717" rx="5" fill="#2F984A"/>
<rect x="26" y="161.228" width="18.7717" height="18.7717" rx="5" fill="#E8EAEE"/>
<rect x="701.472" y="161.228" width="18.7717" height="18.7717" rx="5" fill="#E8EAEE"/>
<rect x="363.736" y="161.228" width="18.7717" height="18.7717" rx="5" fill="#E8EAEE"/>
<rect x="194.868" y="161.228" width="18.7717" height="18.7717" rx="5" fill="#3EBE5E"/>
<rect x="870.34" y="161.228" width="18.7717" height="18.7717" rx="5" fill="#E8EAEE"/>
<rect x="532.604" y="161.228" width="18.7717" height="18.7717" rx="5" fill="#E8EAEE"/>
<rect x="50.1239" y="161.228" width="18.7717" height="18.7717" rx="5" fill="#3EBE5E"/>
<rect x="725.596" y="161.228" width="18.7717" height="18.7717" rx="5" fill="#E8EAEE"/>
<rect x="387.86" y="161.228" width="18.7717" height="18.7717" rx="5" fill="#E8EAEE"/>
<rect x="218.992" y="161.228" width="18.7717" height="18.7717" rx="5" fill="#216435"/>
<rect x="894.464" y="161.228" width="18.7717" height="18.7717" rx="5" fill="#E8EAEE"/>
<rect x="556.728" y="161.228" width="18.7717" height="18.7717" rx="5" fill="#E8EAEE"/>
<rect x="74.2478" y="161.228" width="18.7717" height="18.7717" rx="5" fill="#93E7A2"/>
<rect x="749.72" y="161.228" width="18.7717" height="18.7717" rx="5" fill="#93E7A2"/>
<rect x="411.984" y="161.228" width="18.7717" height="18.7717" rx="5" fill="#216435"/>
<rect x="243.116" y="161.228" width="18.7717" height="18.7717" rx="5" fill="#3EBE5E"/>
<rect x="918.588" y="161.228" width="18.7717" height="18.7717" rx="5" fill="#3EBE5E"/>
<rect x="580.852" y="161.228" width="18.7717" height="18.7717" rx="5" fill="#E8EAEE"/>
<rect x="98.3719" y="161.228" width="18.7717" height="18.7717" rx="5" fill="#93E7A2"/>
<rect x="773.844" y="161.228" width="18.7717" height="18.7717" rx="5" fill="#3EBE5E"/>
<rect x="436.108" y="161.228" width="18.7717" height="18.7717" rx="5" fill="#E8EAEE"/>
<rect x="267.24" y="161.228" width="18.7717" height="18.7717" rx="5" fill="#E8EAEE"/>
<rect x="942.712" y="161.228" width="18.7717" height="18.7717" rx="5" fill="#E8EAEE"/>
<rect x="604.976" y="161.228" width="18.7717" height="18.7717" rx="5" fill="#216435"/>
<rect x="122.496" y="161.228" width="18.7717" height="18.7717" rx="5" fill="#E8EAEE"/>
<rect x="797.968" y="161.228" width="18.7717" height="18.7717" rx="5" fill="#93E7A2"/>
<rect x="460.232" y="161.228" width="18.7717" height="18.7717" rx="5" fill="#E8EAEE"/>
<rect x="291.364" y="161.228" width="18.7717" height="18.7717" rx="5" fill="#E8EAEE"/>
<rect x="966.836" y="161.228" width="18.7717" height="18.7717" rx="5" fill="#E8EAEE"/>
<rect x="629.1" y="161.228" width="18.7717" height="18.7717" rx="5" fill="#E8EAEE"/>
<rect x="146.62" y="161.228" width="18.7717" height="18.7717" rx="5" fill="#E8EAEE"/>
<rect x="822.092" y="161.228" width="18.7717" height="18.7717" rx="5" fill="#E8EAEE"/>
<rect x="484.356" y="161.228" width="18.7717" height="18.7717" rx="5" fill="#E8EAEE"/>
<rect x="315.488" y="161.228" width="18.7717" height="18.7717" rx="5" fill="#93E7A2"/>
<rect x="653.224" y="161.228" width="18.7717" height="18.7717" rx="5" fill="#E8EAEE"/>
<rect x="170.744" y="161.228" width="18.7717" height="18.7717" rx="5" fill="#E8EAEE"/>
<rect x="846.216" y="161.228" width="18.7717" height="18.7717" rx="5" fill="#E8EAEE"/>
<rect x="508.48" y="161.228" width="18.7717" height="18.7717" rx="5" fill="#93E7A2"/>
<rect x="339.612" y="161.228" width="18.7717" height="18.7717" rx="5" fill="#E8EAEE"/>
<rect x="677.348" y="161.228" width="18.7717" height="18.7717" rx="5" fill="#3EBE5E"/>
<defs>
<filter id="filter0_d_220_2" x="0" y="0" width="1040" height="235" filterUnits="userSpaceOnUse" color-interpolation-filters="sRGB">
<feFlood flood-opacity="0" result="BackgroundImageFix"/>
<feColorMatrix in="SourceAlpha" type="matrix" values="0 0 0 0 0 0 0 0 0 0 0 0 0 0 0 0 0 0 127 0" result="hardAlpha"/>
<feMorphology radius="2" operator="erode" in="SourceAlpha" result="effect1_dropShadow_220_2"/>
<feOffset dx="16" dy="16"/>
<feGaussianBlur stdDeviation="12"/>
<feColorMatrix type="matrix" values="0 0 0 0 0 0 0 0 0 0 0 0 0 0 0 0 0 0 0.05 0"/>
<feBlend mode="normal" in2="BackgroundImageFix" result="effect1_dropShadow_220_2"/>
<feBlend mode="normal" in="SourceGraphic" in2="effect1_dropShadow_220_2" result="shape"/>
</filter>
</defs>
</svg>
